<?xml version="1.0" encoding="utf-8" ?>
<svg baseProfile="full" height="100%" version="1.1" width="100%" xmlns="http://www.w3.org/2000/svg" xmlns:ev="http://www.w3.org/2001/xml-events" xmlns:xlink="http://www.w3.org/1999/xlink"><defs /><polyline fill="none" points="787.0,959.8 786.8,960.0 786.8,961.0 786.8,962.0 786.8,963.0 786.8,964.0 786.8,965.0 786.8,966.0 786.8,967.0 786.8,968.0 786.8,969.0 786.0,969.8 785.8,970.0 785.8,971.0 785.8,972.0 785.8,973.0 785.8,974.0 785.8,975.0 785.8,976.0 785.0,976.8 784.8,977.0 784.8,978.0 784.8,979.0 784.8,980.0 784.8,981.0 784.0,981.8 783.8,982.0 783.8,983.0 783.8,984.0 783.8,985.0 783.8,986.0 783.0,986.8 782.8,987.0 782.8,988.0 782.8,989.0 782.0,989.8 781.8,990.0 781.8,991.0 781.8,992.0 781.8,993.0 781.0,993.8 780.8,994.0 780.8,995.0 780.8,996.0 780.0,996.8 779.8,997.0 779.8,998.0 779.8,999.0 779.0,999.8 778.8,1000.0 778.8,1001.0 778.0,1001.8 777.8,1002.0 777.8,1003.0 777.8,1004.0 777.0,1004.8 776.8,1005.0 776.8,1006.0 776.0,1006.8 775.8,1007.0 775.8,1008.0 775.8,1009.0 775.0,1009.8 774.8,1010.0 774.8,1011.0 774.0,1011.8 773.8,1012.0 773.8,1013.0 773.0,1013.8 772.8,1014.0 772.8,1015.0 772.0,1015.8 771.8,1016.0 771.8,1017.0 771.0,1017.8 770.8,1018.0 770.8,1019.0 770.0,1019.8 769.8,1020.0 769.0,1020.8 768.8,1021.0 768.8,1022.0 768.0,1022.8 767.8,1023.0 767.8,1024.0 767.0,1024.8 766.8,1025.0 766.0,1025.8 765.8,1026.0 765.8,1027.0 765.0,1027.8 764.8,1028.0 764.0,1028.8 763.8,1029.0 763.8,1030.0 763.0,1030.8 762.8,1031.0 762.0,1031.8 761.8,1032.0 761.8,1033.0 761.0,1033.8 760.8,1034.0 760.0,1034.8 759.8,1035.0 759.0,1035.8 758.8,1036.0 758.8,1037.0 758.0,1037.8 757.8,1038.0 757.0,1038.8 756.8,1039.0 756.0,1039.8 755.8,1040.0 755.8,1041.0 755.0,1041.8 754.8,1042.0 754.0,1042.8 753.8,1043.0 753.0,1043.8 752.8,1044.0 752.0,1044.8 751.8,1045.0 751.0,1045.8 750.8,1046.0 750.0,1046.8 749.8,1047.0 749.0,1047.8 748.8,1048.0 748.0,1048.8 747.8,1049.0 747.0,1049.8 746.8,1050.0 746.0,1050.8 745.8,1051.0 745.0,1051.8 744.8,1052.0 744.0,1052.8 743.8,1053.0 743.0,1053.8 742.8,1054.0 742.0,1054.8 741.8,1055.0 741.0,1055.8 740.8,1056.0 740.0,1056.8 739.8,1057.0 739.0,1057.8 738.8,1058.0 738.0,1058.8 737.8,1059.0 737.0,1059.8 736.0,1059.8 735.8,1060.0 735.0,1060.8 734.8,1061.0 734.0,1061.8 733.8,1062.0 733.0,1062.8 732.0,1062.8 731.8,1063.0 731.0,1063.8 730.8,1064.0 730.0,1064.8 729.8,1065.0 729.0,1065.8 728.0,1065.8 727.8,1066.0 727.0,1066.8 726.8,1067.0 726.0,1067.8 725.0,1067.8 724.8,1068.0 724.0,1068.8 723.8,1069.0 723.0,1069.8 722.0,1069.8 721.8,1070.0 721.0,1070.8 720.0,1070.8 719.8,1071.0 719.0,1071.8 718.8,1072.0 718.0,1072.8 717.0,1072.8 716.8,1073.0 716.0,1073.8 715.0,1073.8 714.8,1074.0 714.0,1074.8 713.8,1075.0 713.0,1075.8 712.0,1075.8 711.0,1075.8 710.8,1076.0 710.0,1076.8 709.8,1077.0 709.0,1077.8 708.0,1077.8 707.0,1077.8 706.8,1078.0 706.0,1078.8 705.0,1078.8 704.8,1079.0 704.0,1079.8 703.0,1079.8 702.8,1080.0 702.0,1080.8 701.0,1080.8 700.8,1081.0 700.0,1081.8 699.0,1081.8 698.0,1081.8 697.8,1082.0 697.0,1082.8 696.0,1082.8 695.0,1082.8 694.8,1083.0 694.0,1083.8 693.0,1083.8 692.0,1083.8 691.8,1084.0 691.0,1084.8 690.0,1084.8 689.0,1084.8 688.8,1085.0 688.0,1085.8 687.0,1085.8 686.0,1085.8 685.0,1085.8 684.8,1086.0 684.0,1086.8 683.0,1086.8 682.0,1086.8 681.8,1087.0 681.0,1087.8 680.0,1087.8 679.0,1087.8 678.0,1087.8 677.0,1087.8 676.8,1088.0 676.0,1088.8 675.0,1088.8 674.0,1088.8 673.0,1088.8 672.0,1088.8 671.8,1089.0 671.0,1089.8 670.0,1089.8 669.0,1089.8 668.0,1089.8 667.0,1089.8 666.0,1089.8 665.0,1089.8 664.0,1089.8 663.8,1090.0 663.0,1090.8 662.0,1090.8 661.0,1090.8 660.0,1090.8 659.0,1090.8 658.0,1090.8 657.0,1090.8 656.0,1090.8 655.0,1090.8 654.0,1090.8 653.0,1090.8 652.0,1090.8 651.0,1090.8 650.0,1090.8 649.0,1090.8 648.0,1090.8 647.0,1090.8 646.0,1090.8 645.0,1090.8 644.0,1090.8 643.0,1090.8 642.0,1090.8 641.0,1090.8 640.0,1090.8 639.0,1090.8 638.0,1090.8 637.0,1090.8 636.0,1090.8 635.0,1090.8 634.0,1090.8 633.0,1090.8 632.2,1090.0 632.0,1089.8 631.0,1089.8 630.0,1089.8 629.0,1089.8 628.0,1089.8 627.0,1089.8 626.0,1089.8 625.0,1089.8 624.2,1089.0 624.0,1088.8 623.0,1088.8 622.0,1088.8 621.0,1088.8 620.0,1088.8 619.2,1088.0 619.0,1087.8 618.0,1087.8 617.0,1087.8 616.0,1087.8 615.0,1087.8 614.2,1087.0 614.0,1086.8 613.0,1086.8 612.0,1086.8 611.2,1086.0 611.0,1085.8 610.0,1085.8 609.0,1085.8 608.0,1085.8 607.2,1085.0 607.0,1084.8 606.0,1084.8 605.0,1084.8 604.2,1084.0 604.0,1083.8 603.0,1083.8 602.0,1083.8 601.2,1083.0 601.0,1082.8 600.0,1082.8 599.0,1082.8 598.2,1082.0 598.0,1081.8 597.0,1081.8 596.0,1081.8 595.2,1081.0 595.0,1080.8 594.0,1080.8 593.2,1080.0 593.0,1079.8 592.0,1079.8 591.2,1079.0 591.0,1078.8 590.0,1078.8 589.2,1078.0 589.0,1077.8 588.0,1077.8 587.0,1077.8 586.2,1077.0 586.0,1076.8 585.0,1076.8 584.2,1076.0 584.0,1075.8 583.0,1075.8 582.2,1075.0 582.0,1074.8 581.2,1074.0 581.0,1073.8 580.0,1073.8 579.2,1073.0 579.0,1072.8 578.0,1072.8 577.2,1072.0 577.0,1071.8 576.0,1071.8 575.2,1071.0 575.0,1070.8 574.2,1070.0 574.0,1069.8 573.0,1069.8 572.2,1069.0 572.0,1068.8 571.2,1068.0 571.0,1067.8 570.0,1067.8 569.2,1067.0 569.0,1066.8 568.2,1066.0 568.0,1065.8 567.0,1065.8 566.2,1065.0 566.0,1064.8 565.2,1064.0 565.0,1063.8 564.0,1063.8 563.2,1063.0 563.0,1062.8 562.2,1062.0 562.0,1061.8 561.2,1061.0 561.0,1060.8 560.2,1060.0 560.0,1059.8 559.2,1059.0 559.0,1058.8 558.0,1058.8 557.2,1058.0 557.0,1057.8 556.2,1057.0 556.0,1056.8 555.2,1056.0 555.0,1055.8 554.2,1055.0 554.0,1054.8 553.2,1054.0 553.0,1053.8 552.0,1053.8 551.2,1053.0 551.0,1052.8 550.2,1052.0 550.0,1051.8 549.2,1051.0 549.0,1050.8 548.2,1050.0 548.0,1049.8 547.2,1049.0 547.0,1048.8 546.2,1048.0 546.2,1047.0 546.0,1046.8 545.2,1046.0 545.0,1045.8 544.2,1045.0 544.0,1044.8 543.2,1044.0 543.0,1043.8 542.2,1043.0 542.0,1042.8 541.2,1042.0 541.0,1041.8 540.2,1041.0 540.2,1040.0 540.0,1039.8 539.2,1039.0 539.0,1038.8 538.2,1038.0 538.0,1037.8 537.2,1037.0 537.0,1036.8 536.2,1036.0 536.2,1035.0 536.0,1034.8 535.2,1034.0 535.0,1033.8 534.2,1033.0 534.2,1032.0 534.0,1031.8 533.2,1031.0 533.0,1030.8 532.2,1030.0 532.0,1029.8 531.2,1029.0 531.2,1028.0 531.0,1027.8 530.2,1027.0 530.2,1026.0 530.0,1025.8 529.2,1025.0 529.0,1024.8 528.2,1024.0 528.2,1023.0 528.0,1022.8 527.2,1022.0 527.2,1021.0 527.0,1020.8 526.2,1020.0 526.0,1019.8 525.2,1019.0 525.2,1018.0 525.0,1017.8 524.2,1017.0 524.2,1016.0 524.0,1015.8 523.2,1015.0 523.2,1014.0 523.0,1013.8 522.2,1013.0 522.2,1012.0 522.0,1011.8 521.2,1011.0 521.2,1010.0 521.0,1009.8 520.2,1009.0 520.2,1008.0 520.0,1007.8 519.2,1007.0 519.2,1006.0 519.2,1005.0 519.0,1004.8 518.2,1004.0 518.2,1003.0 518.0,1002.8 517.2,1002.0 517.2,1001.0 517.2,1000.0 517.0,999.8 516.2,999.0 516.2,998.0 516.2,997.0 516.0,996.8 515.2,996.0 515.2,995.0 515.2,994.0 515.0,993.8 514.2,993.0 514.2,992.0 514.0,991.8 513.2,991.0 513.0,990.8 512.8,991.0 512.0,991.8 511.8,992.0 511.8,993.0 511.8,994.0 511.0,994.8 510.8,995.0 510.8,996.0 510.8,997.0 510.0,997.8 509.8,998.0 509.8,999.0 509.8,1000.0 509.0,1000.8 508.8,1001.0 508.8,1002.0 508.0,1002.8 507.8,1003.0 507.8,1004.0 507.8,1005.0 507.0,1005.8 506.8,1006.0 506.8,1007.0 506.0,1007.8 505.8,1008.0 505.8,1009.0 505.0,1009.8 504.8,1010.0 504.8,1011.0 504.0,1011.8 503.8,1012.0 503.8,1013.0 503.8,1014.0 503.0,1014.8 502.8,1015.0 502.0,1015.8 501.8,1016.0 501.8,1017.0 501.0,1017.8 500.8,1018.0 500.8,1019.0 500.0,1019.8 499.8,1020.0 499.8,1021.0 499.0,1021.8 498.8,1022.0 498.8,1023.0 498.0,1023.8 497.8,1024.0 497.8,1025.0 497.0,1025.8 496.8,1026.0 496.0,1026.8 495.8,1027.0 495.0,1027.8 494.8,1028.0 494.8,1029.0 494.0,1029.8 493.8,1030.0 493.8,1031.0 493.0,1031.8 492.8,1032.0 492.0,1032.8 491.8,1033.0 491.0,1033.8 490.8,1034.0 490.8,1035.0 490.0,1035.8 489.8,1036.0 489.0,1036.8 488.8,1037.0 488.0,1037.8 487.8,1038.0 487.8,1039.0 487.0,1039.8 486.8,1040.0 486.0,1040.8 485.8,1041.0 485.0,1041.8 484.8,1042.0 484.0,1042.8 483.8,1043.0 483.0,1043.8 482.8,1044.0 482.0,1044.8 481.8,1045.0 481.0,1045.8 480.8,1046.0 480.0,1046.8 479.8,1047.0 479.0,1047.8 478.8,1048.0 478.8,1049.0 478.0,1049.8 477.8,1050.0 477.0,1050.8 476.8,1051.0 476.0,1051.8 475.0,1051.8 474.8,1052.0 474.0,1052.8 473.8,1053.0 473.0,1053.8 472.8,1054.0 472.0,1054.8 471.8,1055.0 471.0,1055.8 470.8,1056.0 470.0,1056.8 469.8,1057.0 469.0,1057.8 468.8,1058.0 468.0,1058.8 467.8,1059.0 467.0,1059.8 466.8,1060.0 466.0,1060.8 465.8,1061.0 465.0,1061.8 464.0,1061.8 463.8,1062.0 463.0,1062.8 462.8,1063.0 462.0,1063.8 461.0,1063.8 460.8,1064.0 460.0,1064.8 459.8,1065.0 459.0,1065.8 458.8,1066.0 458.0,1066.8 457.0,1066.8 456.8,1067.0 456.0,1067.8 455.8,1068.0 455.0,1068.8 454.0,1068.8 453.8,1069.0 453.0,1069.8 452.8,1070.0 452.0,1070.8 451.0,1070.8 450.8,1071.0 450.0,1071.8 449.0,1071.8 448.8,1072.0 448.0,1072.8 447.8,1073.0 447.0,1073.8 446.0,1073.8 445.8,1074.0 445.0,1074.8 444.0,1074.8 443.8,1075.0 443.0,1075.8 442.0,1075.8 441.8,1076.0 441.0,1076.8 440.0,1076.8 439.8,1077.0 439.0,1077.8 438.0,1077.8 437.8,1078.0 437.0,1078.8 436.0,1078.8 435.8,1079.0 435.0,1079.8 434.0,1079.8 433.0,1079.8 432.8,1080.0 432.0,1080.8 431.0,1080.8 430.8,1081.0 430.0,1081.8 429.0,1081.8 428.0,1081.8 427.8,1082.0 427.0,1082.8 426.0,1082.8 425.8,1083.0 425.0,1083.8 424.0,1083.8 423.0,1083.8 422.0,1083.8 421.8,1084.0 421.0,1084.8 420.0,1084.8 419.8,1085.0 419.0,1085.8 418.0,1085.8 417.0,1085.8 416.0,1085.8 415.8,1086.0 415.0,1086.8 414.0,1086.8 413.0,1086.8 412.0,1086.8 411.8,1087.0 411.0,1087.8 410.0,1087.8 409.0,1087.8 408.0,1087.8 407.0,1087.8 406.8,1088.0 406.0,1088.8 405.0,1088.8 404.0,1088.8 403.0,1088.8 402.8,1089.0 402.0,1089.8 401.0,1089.8 400.0,1089.8 399.0,1089.8 398.0,1089.8 397.0,1089.8 396.0,1089.8 395.0,1089.8 394.8,1090.0 394.0,1090.8 393.0,1090.8 392.0,1090.8 391.0,1090.8 390.0,1090.8 389.0,1090.8 388.0,1090.8 387.0,1090.8 386.0,1090.8 385.0,1090.8 384.0,1090.8 383.0,1090.8 382.0,1090.8 381.0,1090.8 380.0,1090.8 379.0,1090.8 378.0,1090.8 377.0,1090.8 376.0,1090.8 375.0,1090.8 374.0,1090.8 373.0,1090.8 372.0,1090.8 371.0,1090.8 370.0,1090.8 369.0,1090.8 368.0,1090.8 367.0,1090.8 366.0,1090.8 365.0,1090.8 364.0,1090.8 363.0,1090.8 362.2,1090.0 362.0,1089.8 361.0,1089.8 360.0,1089.8 359.0,1089.8 358.0,1089.8 357.0,1089.8 356.0,1089.8 355.0,1089.8 354.2,1089.0 354.0,1088.8 353.0,1088.8 352.0,1088.8 351.0,1088.8 350.0,1088.8 349.2,1088.0 349.0,1087.8 348.0,1087.8 347.0,1087.8 346.0,1087.8 345.0,1087.8 344.2,1087.0 344.0,1086.8 343.0,1086.8 342.0,1086.8 341.2,1086.0 341.0,1085.8 340.0,1085.8 339.0,1085.8 338.0,1085.8 337.2,1085.0 337.0,1084.8 336.0,1084.8 335.0,1084.8 334.2,1084.0 334.0,1083.8 333.0,1083.8 332.0,1083.8 331.2,1083.0 331.0,1082.8 330.0,1082.8 329.2,1082.0 329.0,1081.8 328.0,1081.8 327.0,1081.8 326.2,1081.0 326.0,1080.8 325.0,1080.8 324.2,1080.0 324.0,1079.8 323.0,1079.8 322.0,1079.8 321.2,1079.0 321.0,1078.8 320.0,1078.8 319.2,1078.0 319.0,1077.8 318.0,1077.8 317.2,1077.0 317.0,1076.8 316.0,1076.8 315.2,1076.0 315.0,1075.8 314.0,1075.8 313.2,1075.0 313.0,1074.8 312.0,1074.8 311.2,1074.0 311.0,1073.8 310.0,1073.8 309.2,1073.0 309.0,1072.8 308.0,1072.8 307.2,1072.0 307.0,1071.8 306.2,1071.0 306.0,1070.8 305.0,1070.8 304.2,1070.0 304.0,1069.8 303.2,1069.0 303.0,1068.8 302.0,1068.8 301.2,1068.0 301.0,1067.8 300.0,1067.8 299.2,1067.0 299.0,1066.8 298.2,1066.0 298.0,1065.8 297.2,1065.0 297.0,1064.8 296.0,1064.8 295.2,1064.0 295.0,1063.8 294.2,1063.0 294.0,1062.8 293.2,1062.0 293.0,1061.8 292.0,1061.8 291.2,1061.0 291.0,1060.8 290.2,1060.0 290.0,1059.8 289.2,1059.0 289.0,1058.8 288.2,1058.0 288.0,1057.8 287.2,1057.0 287.0,1056.8 286.2,1056.0 286.0,1055.8 285.0,1055.8 284.2,1055.0 284.0,1054.8 283.2,1054.0 283.0,1053.8 282.2,1053.0 282.0,1052.8 281.2,1052.0 281.0,1051.8 280.2,1051.0 280.0,1050.8 279.2,1050.0 279.0,1049.8 278.2,1049.0 278.0,1048.8 277.2,1048.0 277.0,1047.8 276.2,1047.0 276.0,1046.8 275.2,1046.0 275.0,1045.8 274.2,1045.0 274.2,1044.0 274.0,1043.8 273.2,1043.0 273.0,1042.8 272.2,1042.0 272.0,1041.8 271.2,1041.0 271.0,1040.8 270.2,1040.0 270.0,1039.8 269.2,1039.0 269.0,1038.8 268.2,1038.0 268.0,1037.8 267.2,1037.0 267.2,1036.0 267.0,1035.8 266.2,1035.0 266.0,1034.8 265.2,1034.0 265.2,1033.0 265.0,1032.8 264.2,1032.0 264.0,1031.8 263.2,1031.0 263.0,1030.8 262.2,1030.0 262.2,1029.0 262.0,1028.8 261.2,1028.0 261.2,1027.0 261.0,1026.8 260.2,1026.0 260.0,1025.8 259.2,1025.0 259.2,1024.0 259.0,1023.8 258.2,1023.0 258.2,1022.0 258.0,1021.8 257.2,1021.0 257.0,1020.8 256.2,1020.0 256.2,1019.0 256.0,1018.8 255.2,1018.0 255.2,1017.0 255.0,1016.8 254.2,1016.0 254.2,1015.0 254.0,1014.8 253.2,1014.0 253.2,1013.0 253.0,1012.8 252.2,1012.0 252.2,1011.0 252.0,1010.8 251.2,1010.0 251.2,1009.0 251.0,1008.8 250.2,1008.0 250.2,1007.0 250.0,1006.8 249.2,1006.0 249.2,1005.0 249.2,1004.0 249.0,1003.8 248.2,1003.0 248.2,1002.0 248.0,1001.8 247.2,1001.0 247.2,1000.0 247.2,999.0 247.0,998.8 246.2,998.0 246.2,997.0 246.2,996.0 246.0,995.8 245.2,995.0 245.2,994.0 245.2,993.0 245.2,992.0 245.0,991.8 244.2,991.0 244.2,990.0 244.2,989.0 244.0,988.8 243.2,988.0 243.2,987.0 243.2,986.0 243.2,985.0 243.0,984.8 242.2,984.0 242.2,983.0 242.2,982.0 242.2,981.0 242.0,980.8 241.2,980.0 241.2,979.0 241.2,978.0 241.2,977.0 241.2,976.0 241.2,975.0 241.0,974.8 240.2,974.0 240.2,973.0 240.2,972.0 240.2,971.0 240.2,970.0 240.2,969.0 240.0,968.8 239.2,968.0 239.2,967.0 239.2,966.0 239.2,965.0 239.2,964.0 239.2,963.0 239.2,962.0 239.2,961.0 239.2,960.0 239.2,959.0 239.2,958.0 239.2,957.0 239.2,956.0 239.2,955.0 239.2,954.0 239.2,953.0 239.2,952.0 239.2,951.0 239.2,950.0 239.2,949.0 239.2,948.0 239.2,947.0 239.2,946.0 239.2,945.0 239.2,944.0 239.2,943.0 239.2,942.0 239.2,941.0 239.2,940.0 239.2,939.0 239.2,938.0 239.2,937.0 239.2,936.0 240.0,935.2 240.2,935.0 240.2,934.0 240.2,933.0 240.2,932.0 240.2,931.0 240.2,930.0 240.2,929.0 241.0,928.2 241.2,928.0 241.2,927.0 241.2,926.0 241.2,925.0 241.2,924.0 241.2,923.0 242.0,922.2 242.2,922.0 242.2,921.0 242.2,920.0 243.0,919.2 243.2,919.0 243.2,918.0 243.2,917.0 243.2,916.0 243.2,915.0 244.0,914.2 244.2,914.0 244.2,913.0 244.2,912.0 245.0,911.2 245.2,911.0 245.2,910.0 245.2,909.0 246.0,908.2 246.2,908.0 246.2,907.0 246.2,906.0 247.0,905.2 247.2,905.0 247.2,904.0 247.2,903.0 248.0,902.2 248.2,902.0 248.2,901.0 248.2,900.0 249.0,899.2 249.2,899.0 249.2,898.0 250.0,897.2 250.2,897.0 250.2,896.0 251.0,895.2 251.2,895.0 251.2,894.0 251.2,893.0 252.0,892.2 252.2,892.0 252.2,891.0 253.0,890.2 253.2,890.0 253.2,889.0 254.0,888.2 254.2,888.0 254.2,887.0 255.0,886.2 255.2,886.0 256.0,885.2 256.2,885.0 256.2,884.0 257.0,883.2 257.2,883.0 257.2,882.0 258.0,881.2 258.2,881.0 258.2,880.0 259.0,879.2 259.2,879.0 259.2,878.0 260.0,877.2 260.2,877.0 261.0,876.2 261.2,876.0 262.0,875.2 262.2,875.0 262.2,874.0 263.0,873.2 263.2,873.0 263.2,872.0 264.0,871.2 264.2,871.0 265.0,870.2 265.2,870.0 266.0,869.2 266.2,869.0 267.0,868.2 267.2,868.0 267.2,867.0 268.0,866.2 268.2,866.0 269.0,865.2 269.2,865.0 269.2,864.0 270.0,863.2 270.2,863.0 271.0,862.2 271.2,862.0 272.0,861.2 272.2,861.0 273.0,860.2 273.2,860.0 274.0,859.2 274.2,859.0 275.0,858.2 275.2,858.0 276.0,857.2 276.2,857.0 277.0,856.2 277.2,856.0 278.0,855.2 278.2,855.0 279.0,854.2 279.2,854.0 280.0,853.2 280.2,853.0 281.0,852.2 281.2,852.0 282.0,851.2 282.2,851.0 283.0,850.2 283.2,850.0 284.0,849.2 284.2,849.0 285.0,848.2 285.2,848.0 286.0,847.2 286.2,847.0 287.0,846.2 287.2,846.0 288.0,845.2 288.2,845.0 289.0,844.2 289.2,844.0 290.0,843.2 291.0,843.2 291.2,843.0 292.0,842.2 292.2,842.0 293.0,841.2 293.2,841.0 294.0,840.2 295.0,840.2 295.2,840.0 296.0,839.2 296.2,839.0 297.0,838.2 297.2,838.0 298.0,837.2 299.0,837.2 299.2,837.0 300.0,836.2 300.2,836.0 301.0,835.2 302.0,835.2 302.2,835.0 303.0,834.2 303.2,834.0 304.0,833.2 305.0,833.2 305.2,833.0 306.0,832.2 307.0,832.2 307.2,832.0 308.0,831.2 308.2,831.0 309.0,830.2 310.0,830.2 310.2,830.0 311.0,829.2 312.0,829.2 312.2,829.0 313.0,828.2 314.0,828.2 314.2,828.0 315.0,827.2 316.0,827.2 316.2,827.0 317.0,826.2 318.0,826.2 318.2,826.0 319.0,825.2 320.0,825.2 320.2,825.0 321.0,824.2 322.0,824.2 322.2,824.0 323.0,823.2 324.0,823.2 325.0,823.2 325.2,823.0 326.0,822.2 327.0,822.2 327.2,822.0 328.0,821.2 329.0,821.2 330.0,821.2 330.2,821.0 331.0,820.2 332.0,820.2 332.2,820.0 333.0,819.2 334.0,819.2 335.0,819.2 336.0,819.2 336.2,819.0 337.0,818.2 338.0,818.2 339.0,818.2 339.2,818.0 340.0,817.2 341.0,817.2 342.0,817.2 343.0,817.2 343.2,817.0 344.0,816.2 345.0,816.2 346.0,816.2 346.2,816.0 347.0,815.2 348.0,815.2 348.2,815.0 349.0,814.2 349.2,814.0 349.2,813.0 349.2,812.0 349.2,811.0 349.2,810.0 349.2,809.0 349.2,808.0 349.2,807.0 349.2,806.0 349.2,805.0 349.2,804.0 349.2,803.0 349.2,802.0 349.2,801.0 349.2,800.0 349.2,799.0 349.2,798.0 349.2,797.0 349.2,796.0 349.2,795.0 349.2,794.0 349.2,793.0 349.2,792.0 349.2,791.0 349.2,790.0 349.2,789.0 349.2,788.0 349.2,787.0 349.2,786.0 349.2,785.0 349.2,784.0 349.2,783.0 349.2,782.0 349.2,781.0 349.2,780.0 349.2,779.0 349.2,778.0 349.2,777.0 349.2,776.0 349.2,775.0 349.2,774.0 349.2,773.0 349.2,772.0 349.2,771.0 349.2,770.0 349.2,769.0 349.2,768.0 349.2,767.0 349.2,766.0 349.2,765.0 349.2,764.0 349.2,763.0 349.2,762.0 349.2,761.0 349.2,760.0 349.2,759.0 349.2,758.0 349.2,757.0 349.2,756.0 349.2,755.0 349.2,754.0 349.2,753.0 349.2,752.0 349.2,751.0 349.2,750.0 349.2,749.0 349.2,748.0 349.2,747.0 349.2,746.0 349.2,745.0 349.2,744.0 349.2,743.0 349.2,742.0 349.2,741.0 349.2,740.0 349.2,739.0 349.2,738.0 349.2,737.0 349.2,736.0 349.2,735.0 349.2,734.0 349.2,733.0 349.2,732.0 349.2,731.0 349.2,730.0 349.2,729.0 349.2,728.0 349.2,727.0 349.2,726.0 349.2,725.0 349.2,724.0 349.2,723.0 349.2,722.0 349.2,721.0 349.2,720.0 349.2,719.0 349.2,718.0 349.2,717.0 349.2,716.0 349.2,715.0 349.2,714.0 349.2,713.0 349.2,712.0 349.2,711.0 349.2,710.0 349.2,709.0 349.2,708.0 349.2,707.0 349.2,706.0 349.2,705.0 349.2,704.0 349.2,703.0 349.2,702.0 349.2,701.0 349.2,700.0 349.2,699.0 349.2,698.0 349.2,697.0 349.2,696.0 349.2,695.0 349.2,694.0 349.2,693.0 349.2,692.0 349.2,691.0 349.2,690.0 349.2,689.0 349.2,688.0 349.2,687.0 349.2,686.0 349.2,685.0 349.2,684.0 349.2,683.0 349.2,682.0 349.2,681.0 349.2,680.0 349.2,679.0 349.2,678.0 349.2,677.0 349.2,676.0 349.2,675.0 349.2,674.0 349.2,673.0 349.2,672.0 349.2,671.0 349.2,670.0 349.2,669.0 349.2,668.0 349.2,667.0 349.2,666.0 349.2,665.0 349.2,664.0 349.2,663.0 349.2,662.0 349.2,661.0 349.2,660.0 349.2,659.0 349.2,658.0 349.2,657.0 349.2,656.0 349.2,655.0 349.2,654.0 349.2,653.0 349.2,652.0 349.2,651.0 349.2,650.0 349.2,649.0 349.2,648.0 349.2,647.0 349.2,646.0 349.2,645.0 349.2,644.0 349.2,643.0 349.2,642.0 349.2,641.0 349.2,640.0 349.2,639.0 349.2,638.0 349.2,637.0 349.2,636.0 349.2,635.0 349.2,634.0 349.2,633.0 349.2,632.0 349.2,631.0 349.2,630.0 349.2,629.0 349.2,628.0 349.2,627.0 349.2,626.0 349.2,625.0 349.2,624.0 349.2,623.0 349.2,622.0 349.2,621.0 349.2,620.0 349.2,619.0 349.2,618.0 349.2,617.0 349.2,616.0 349.2,615.0 349.2,614.0 349.2,613.0 349.2,612.0 349.2,611.0 349.2,610.0 349.2,609.0 349.2,608.0 349.2,607.0 349.2,606.0 349.2,605.0 349.2,604.0 349.2,603.0 349.2,602.0 349.2,601.0 349.2,600.0 349.2,599.0 349.2,598.0 349.2,597.0 349.2,596.0 349.2,595.0 349.2,594.0 349.2,593.0 349.2,592.0 349.2,591.0 349.2,590.0 349.2,589.0 349.2,588.0 349.2,587.0 349.2,586.0 349.2,585.0 349.2,584.0 349.2,583.0 349.2,582.0 349.2,581.0 349.2,580.0 349.2,579.0 349.2,578.0 349.2,577.0 349.2,576.0 349.2,575.0 349.2,574.0 349.2,573.0 349.2,572.0 349.2,571.0 349.2,570.0 349.2,569.0 349.2,568.0 349.2,567.0 349.2,566.0 349.2,565.0 349.2,564.0 349.2,563.0 349.2,562.0 349.2,561.0 349.2,560.0 349.2,559.0 349.2,558.0 349.2,557.0 349.2,556.0 349.2,555.0 349.2,554.0 349.2,553.0 349.2,552.0 349.2,551.0 349.2,550.0 349.2,549.0 349.2,548.0 349.2,547.0 349.2,546.0 349.2,545.0 349.2,544.0 349.2,543.0 349.2,542.0 349.2,541.0 349.2,540.0 349.2,539.0 349.2,538.0 349.2,537.0 349.2,536.0 349.2,535.0 349.2,534.0 349.2,533.0 349.2,532.0 349.2,531.0 349.2,530.0 349.2,529.0 349.2,528.0 349.2,527.0 349.2,526.0 349.2,525.0 349.2,524.0 349.2,523.0 349.2,522.0 349.2,521.0 349.2,520.0 349.2,519.0 349.2,518.0 349.2,517.0 349.2,516.0 349.2,515.0 349.2,514.0 349.2,513.0 349.2,512.0 349.2,511.0 349.2,510.0 349.2,509.0 349.2,508.0 349.2,507.0 349.2,506.0 349.2,505.0 349.2,504.0 349.2,503.0 349.2,502.0 349.2,501.0 349.2,500.0 349.2,499.0 349.2,498.0 349.2,497.0 349.2,496.0 349.2,495.0 349.2,494.0 349.2,493.0 349.2,492.0 349.2,491.0 349.2,490.0 349.2,489.0 349.2,488.0 349.2,487.0 349.2,486.0 349.2,485.0 349.2,484.0 349.2,483.0 349.2,482.0 349.2,481.0 349.2,480.0 349.2,479.0 349.2,478.0 349.2,477.0 349.2,476.0 349.2,475.0 349.2,474.0 349.2,473.0 349.2,472.0 349.2,471.0 349.2,470.0 349.2,469.0 349.2,468.0 349.2,467.0 349.2,466.0 349.2,465.0 349.2,464.0 349.2,463.0 349.2,462.0 349.2,461.0 349.2,460.0 349.2,459.0 349.2,458.0 349.2,457.0 349.2,456.0 349.2,455.0 349.2,454.0 349.2,453.0 349.2,452.0 349.2,451.0 349.2,450.0 349.2,449.0 349.2,448.0 349.2,447.0 349.2,446.0 349.2,445.0 349.2,444.0 349.2,443.0 349.2,442.0 349.2,441.0 349.2,440.0 349.2,439.0 349.2,438.0 349.2,437.0 349.2,436.0 349.2,435.0 349.2,434.0 349.2,433.0 349.2,432.0 349.2,431.0 349.2,430.0 349.2,429.0 349.2,428.0 349.2,427.0 349.2,426.0 349.2,425.0 349.2,424.0 349.2,423.0 349.2,422.0 349.2,421.0 349.2,420.0 349.2,419.0 349.2,418.0 349.2,417.0 349.2,416.0 349.2,415.0 349.2,414.0 349.2,413.0 349.2,412.0 349.2,411.0 349.2,410.0 349.2,409.0 349.2,408.0 349.2,407.0 349.2,406.0 349.2,405.0 349.2,404.0 349.2,403.0 349.2,402.0 349.2,401.0 349.2,400.0 349.2,399.0 349.2,398.0 349.2,397.0 349.2,396.0 349.2,395.0 349.2,394.0 349.2,393.0 349.2,392.0 349.2,391.0 349.2,390.0 349.2,389.0 349.2,388.0 349.2,387.0 349.2,386.0 349.2,385.0 349.2,384.0 349.2,383.0 349.2,382.0 349.2,381.0 349.2,380.0 349.2,379.0 349.2,378.0 349.2,377.0 349.2,376.0 349.2,375.0 349.2,374.0 349.2,373.0 349.2,372.0 349.2,371.0 349.2,370.0 349.2,369.0 349.2,368.0 349.2,367.0 349.2,366.0 349.2,365.0 349.2,364.0 349.2,363.0 349.2,362.0 349.2,361.0 349.2,360.0 349.2,359.0 349.2,358.0 349.2,357.0 349.2,356.0 349.2,355.0 349.2,354.0 349.2,353.0 349.2,352.0 349.2,351.0 349.2,350.0 349.2,349.0 349.2,348.0 349.2,347.0 349.2,346.0 349.2,345.0 349.2,344.0 349.2,343.0 349.2,342.0 349.2,341.0 349.2,340.0 349.2,339.0 349.2,338.0 349.2,337.0 349.2,336.0 349.2,335.0 349.2,334.0 349.2,333.0 349.2,332.0 349.2,331.0 349.2,330.0 349.2,329.0 349.2,328.0 349.2,327.0 349.2,326.0 349.2,325.0 349.2,324.0 349.2,323.0 349.0,322.8 348.2,322.0 348.0,321.8 347.2,321.0 347.0,320.8 346.0,320.8 345.0,320.8 344.2,320.0 344.0,319.8 343.0,319.8 342.0,319.8 341.2,319.0 341.0,318.8 340.0,318.8 339.0,318.8 338.2,318.0 338.0,317.8 337.0,317.8 336.0,317.8 335.2,317.0 335.0,316.8 334.0,316.8 333.2,316.0 333.0,315.8 332.0,315.8 331.2,315.0 331.0,314.8 330.0,314.8 329.2,314.0 329.0,313.8 328.0,313.8 327.0,313.8 326.2,313.0 326.0,312.8 325.0,312.8 324.2,312.0 324.0,311.8 323.0,311.8 322.2,311.0 322.0,310.8 321.0,310.8 320.2,310.0 320.0,309.8 319.2,309.0 319.0,308.8 318.0,308.8 317.2,308.0 317.0,307.8 316.0,307.8 315.2,307.0 315.0,306.8 314.2,306.0 314.0,305.8 313.0,305.8 312.2,305.0 312.0,304.8 311.0,304.8 310.2,304.0 310.0,303.8 309.2,303.0 309.0,302.8 308.0,302.8 307.2,302.0 307.0,301.8 306.2,301.0 306.0,300.8 305.0,300.8 304.2,300.0 304.0,299.8 303.2,299.0 303.0,298.8 302.2,298.0 302.0,297.8 301.2,297.0 301.0,296.8 300.0,296.8 299.2,296.0 299.0,295.8 298.2,295.0 298.0,294.8 297.2,294.0 297.0,293.8 296.0,293.8 295.2,293.0 295.0,292.8 294.2,292.0 294.0,291.8 293.2,291.0 293.0,290.8 292.2,290.0 292.0,289.8 291.2,289.0 291.0,288.8 290.2,288.0 290.0,287.8 289.2,287.0 289.0,286.8 288.2,286.0 288.0,285.8 287.2,285.0 287.0,284.8 286.2,284.0 286.0,283.8 285.2,283.0 285.0,282.8 284.2,282.0 284.0,281.8 283.2,281.0 283.0,280.8 282.2,280.0 282.0,279.8 281.2,279.0 281.0,278.8 280.2,278.0 280.2,277.0 280.0,276.8 279.2,276.0 279.0,275.8 278.2,275.0 278.0,274.8 277.2,274.0 277.2,273.0 277.0,272.8 276.2,272.0 276.0,271.8 275.2,271.0 275.0,270.8 274.2,270.0 274.0,269.8 273.2,269.0 273.2,268.0 273.0,267.8 272.2,267.0 272.0,266.8 271.2,266.0 271.2,265.0 271.0,264.8 270.2,264.0 270.0,263.8 269.2,263.0 269.2,262.0 269.0,261.8 268.2,261.0 268.2,260.0 268.0,259.8 267.2,259.0 267.0,258.8 266.2,258.0 266.2,257.0 266.0,256.8 265.2,256.0 265.2,255.0 265.0,254.8 264.2,254.0 264.0,253.8 263.2,253.0 263.2,252.0 263.0,251.8 262.2,251.0 262.2,250.0 262.0,249.8 261.2,249.0 261.2,248.0 261.0,247.8 260.2,247.0 260.2,246.0 260.0,245.8 259.2,245.0 259.2,244.0 259.2,243.0 259.0,242.8 258.2,242.0 258.2,241.0 258.0,240.8 257.2,240.0 257.2,239.0 257.2,238.0 257.0,237.8 256.2,237.0 256.2,236.0 256.0,235.8 255.2,235.0 255.2,234.0 255.2,233.0 255.0,232.8 254.2,232.0 254.2,231.0 254.2,230.0 254.0,229.8 253.2,229.0 253.2,228.0 253.2,227.0 253.2,226.0 253.0,225.8 252.2,225.0 252.2,224.0 252.2,223.0 252.0,222.8 251.2,222.0 251.2,221.0 251.2,220.0 251.2,219.0 251.2,218.0 251.0,217.8 250.2,217.0 250.2,216.0 250.2,215.0 250.2,214.0 250.0,213.8 249.2,213.0 249.2,212.0 249.2,211.0 249.2,210.0 249.2,209.0 249.2,208.0 249.2,207.0 249.0,206.8 248.2,206.0 248.2,205.0 248.2,204.0 248.2,203.0 248.2,202.0 248.2,201.0 248.2,200.0 248.2,199.0 248.2,198.0 248.0,197.8 247.2,197.0 247.2,196.0 247.2,195.0 247.2,194.0 247.2,193.0 247.2,192.0 247.2,191.0 247.2,190.0 247.2,189.0 247.2,188.0 247.2,187.0 247.2,186.0 247.2,185.0 247.2,184.0 247.2,183.0 247.2,182.0 247.2,181.0 247.2,180.0 247.2,179.0 247.2,178.0 247.2,177.0 248.0,176.2 248.2,176.0 248.2,175.0 248.2,174.0 248.2,173.0 248.2,172.0 248.2,171.0 248.2,170.0 248.2,169.0 249.0,168.2 249.2,168.0 249.2,167.0 249.2,166.0 249.2,165.0 249.2,164.0 249.2,163.0 249.2,162.0 250.0,161.2 250.2,161.0 250.2,160.0 250.2,159.0 250.2,158.0 251.0,157.2 251.2,157.0 251.2,156.0 251.2,155.0 251.2,154.0 251.2,153.0 252.0,152.2 252.2,152.0 252.2,151.0 252.2,150.0 252.2,149.0 253.0,148.2 253.2,148.0 253.2,147.0 253.2,146.0 254.0,145.2 254.2,145.0 254.2,144.0 254.2,143.0 255.0,142.2 255.2,142.0 255.2,141.0 255.2,140.0 256.0,139.2 256.2,139.0 256.2,138.0 257.0,137.2 257.2,137.0 257.2,136.0 257.2,135.0 258.0,134.2 258.2,134.0 258.2,133.0 258.2,132.0 259.0,131.2 259.2,131.0 259.2,130.0 260.0,129.2 260.2,129.0 260.2,128.0 261.0,127.2 261.2,127.0 261.2,126.0 262.0,125.2 262.2,125.0 262.2,124.0 263.0,123.2 263.2,123.0 263.2,122.0 264.0,121.2 264.2,121.0 264.2,120.0 265.0,119.2 265.2,119.0 265.2,118.0 266.0,117.2 266.2,117.0 267.0,116.2 267.2,116.0 267.2,115.0 268.0,114.2 268.2,114.0 268.2,113.0 269.0,112.2 269.2,112.0 270.0,111.2 270.2,111.0 271.0,110.2 271.2,110.0 271.2,109.0 272.0,108.2 272.2,108.0 272.2,107.0 273.0,106.2 273.2,106.0 274.0,105.2 274.2,105.0 275.0,104.2 275.2,104.0 276.0,103.2 276.2,103.0 276.2,102.0 277.0,101.2 277.2,101.0 278.0,100.2 278.2,100.0 278.2,99.0 279.0,98.2 279.2,98.0 280.0,97.2 280.2,97.0 281.0,96.2 281.2,96.0 282.0,95.2 282.2,95.0 283.0,94.2 283.2,94.0 284.0,93.2 284.2,93.0 285.0,92.2 285.2,92.0 286.0,91.2 286.2,91.0 287.0,90.2 287.2,90.0 288.0,89.2 288.2,89.0 289.0,88.2 289.2,88.0 290.0,87.2 290.2,87.0 291.0,86.2 291.2,86.0 292.0,85.2 292.2,85.0 293.0,84.2 293.2,84.0 294.0,83.2 294.2,83.0 295.0,82.2 295.2,82.0 296.0,81.2 296.2,81.0 297.0,80.2 297.2,80.0 298.0,79.2 299.0,79.2 299.2,79.0 300.0,78.2 300.2,78.0 301.0,77.2 301.2,77.0 302.0,76.2 303.0,76.2 303.2,76.0 304.0,75.2 304.2,75.0 305.0,74.2 305.2,74.0 306.0,73.2 307.0,73.2 307.2,73.0 308.0,72.2 308.2,72.0 309.0,71.2 310.0,71.2 310.2,71.0 311.0,70.2 311.2,70.0 312.0,69.2 313.0,69.2 313.2,69.0 314.0,68.2 314.2,68.0 315.0,67.2 316.0,67.2 316.2,67.0 317.0,66.2 318.0,66.2 318.2,66.0 319.0,65.2 320.0,65.2 320.2,65.0 321.0,64.2 321.2,64.0 322.0,63.2 323.0,63.2 323.2,63.0 324.0,62.2 325.0,62.2 325.2,62.0 326.0,61.2 327.0,61.2 328.0,61.2 328.2,61.0 329.0,60.2 330.0,60.2 330.2,60.0 331.0,59.2 332.0,59.2 332.2,59.0 333.0,58.2 334.0,58.2 334.2,58.0 335.0,57.2 336.0,57.2 337.0,57.2 337.2,57.0 338.0,56.2 339.0,56.2 340.0,56.2 340.2,56.0 341.0,55.2 342.0,55.2 343.0,55.2 343.2,55.0 344.0,54.2 345.0,54.2 346.0,54.2 346.2,54.0 347.0,53.2 348.0,53.2 349.0,53.2 350.0,53.2 350.2,53.0 351.0,52.2 352.0,52.2 353.0,52.2 353.2,52.0 354.0,51.2 355.0,51.2 356.0,51.2 357.0,51.2 358.0,51.2 358.2,51.0 359.0,50.2 360.0,50.2 361.0,50.2 362.0,50.2 363.0,50.2 363.2,50.0 364.0,49.2 365.0,49.2 366.0,49.2 367.0,49.2 368.0,49.2 369.0,49.2 370.0,49.2 371.0,49.2 371.2,49.0 372.0,48.2 373.0,48.2 374.0,48.2 375.0,48.2 376.0,48.2 377.0,48.2 378.0,48.2 379.0,48.2 380.0,48.2 381.0,48.2 382.0,48.2 383.0,48.2 384.0,48.2 385.0,48.2 386.0,48.2 387.0,48.2 388.0,48.2 389.0,48.2 390.0,48.2 391.0,48.2 392.0,48.2 393.0,48.2 394.0,48.2 395.0,48.2 396.0,48.2 397.0,48.2 398.0,48.2 399.0,48.2 400.0,48.2 401.0,48.2 402.0,48.2 402.8,49.0 403.0,49.2 404.0,49.2 405.0,49.2 406.0,49.2 407.0,49.2 408.0,49.2 409.0,49.2 410.0,49.2 410.8,50.0 411.0,50.2 412.0,50.2 413.0,50.2 414.0,50.2 415.0,50.2 415.8,51.0 416.0,51.2 417.0,51.2 418.0,51.2 419.0,51.2 420.0,51.2 420.8,52.0 421.0,52.2 422.0,52.2 423.0,52.2 423.8,53.0 424.0,53.2 425.0,53.2 426.0,53.2 427.0,53.2 427.8,54.0 428.0,54.2 429.0,54.2 430.0,54.2 430.8,55.0 431.0,55.2 432.0,55.2 433.0,55.2 433.8,56.0 434.0,56.2 435.0,56.2 436.0,56.2 436.8,57.0 437.0,57.2 438.0,57.2 438.8,58.0 439.0,58.2 440.0,58.2 441.0,58.2 441.8,59.0 442.0,59.2 443.0,59.2 443.8,60.0 444.0,60.2 445.0,60.2 445.8,61.0 446.0,61.2 447.0,61.2 447.8,62.0 448.0,62.2 449.0,62.2 449.8,63.0 450.0,63.2 451.0,63.2 451.8,64.0 452.0,64.2 453.0,64.2 453.8,65.0 454.0,65.2 455.0,65.2 455.8,66.0 456.0,66.2 457.0,66.2 457.8,67.0 458.0,67.2 459.0,67.2 459.8,68.0 460.0,68.2 460.8,69.0 461.0,69.2 462.0,69.2 462.8,70.0 463.0,70.2 463.8,71.0 464.0,71.2 465.0,71.2 465.8,72.0 466.0,72.2 466.8,73.0 467.0,73.2 467.8,74.0 468.0,74.2 469.0,74.2 469.8,75.0 470.0,75.2 470.8,76.0 471.0,76.2 472.0,76.2 472.8,77.0 473.0,77.2 473.8,78.0 474.0,78.2 474.8,79.0 475.0,79.2 475.8,80.0 476.0,80.2 476.8,81.0 477.0,81.2 478.0,81.2 478.8,82.0 479.0,82.2 479.8,83.0 480.0,83.2 480.8,84.0 481.0,84.2 481.8,85.0 482.0,85.2 482.8,86.0 483.0,86.2 483.8,87.0 484.0,87.2 484.8,88.0 485.0,88.2 485.8,89.0 486.0,89.2 486.8,90.0 487.0,90.2 487.8,91.0 488.0,91.2 488.8,92.0 489.0,92.2 489.8,93.0 490.0,93.2 490.8,94.0 491.0,94.2 491.8,95.0 492.0,95.2 492.8,96.0 492.8,97.0 493.0,97.2 493.8,98.0 494.0,98.2 494.8,99.0 495.0,99.2 495.8,100.0 496.0,100.2 496.8,101.0 497.0,101.2 497.8,102.0 497.8,103.0 498.0,103.2 498.8,104.0 499.0,104.2 499.8,105.0 500.0,105.2 500.8,106.0 500.8,107.0 501.0,107.2 501.8,108.0 502.0,108.2 502.8,109.0 502.8,110.0 503.0,110.2 503.8,111.0 504.0,111.2 504.8,112.0 504.8,113.0 505.0,113.2 505.8,114.0 506.0,114.2 506.8,115.0 506.8,116.0 507.0,116.2 507.8,117.0 507.8,118.0 508.0,118.2 508.8,119.0 509.0,119.2 509.8,120.0 509.8,121.0 510.0,121.2 510.8,122.0 510.8,123.0 511.0,123.2 511.8,124.0 511.8,125.0 512.0,125.2 512.8,126.0 512.8,127.0 513.0,127.2 513.8,128.0 513.8,129.0 514.0,129.2 514.8,130.0 515.0,130.2 516.0,130.2 516.2,130.0 517.0,129.2 517.2,129.0 517.2,128.0 518.0,127.2 518.2,127.0 518.2,126.0 519.0,125.2 519.2,125.0 519.2,124.0 520.0,123.2 520.2,123.0 520.2,122.0 521.0,121.2 521.2,121.0 521.2,120.0 522.0,119.2 522.2,119.0 522.2,118.0 523.0,117.2 523.2,117.0 523.2,116.0 524.0,115.2 524.2,115.0 525.0,114.2 525.2,114.0 525.2,113.0 526.0,112.2 526.2,112.0 527.0,111.2 527.2,111.0 527.2,110.0 528.0,109.2 528.2,109.0 529.0,108.2 529.2,108.0 529.2,107.0 530.0,106.2 530.2,106.0 531.0,105.2 531.2,105.0 531.2,104.0 532.0,103.2 532.2,103.0 533.0,102.2 533.2,102.0 534.0,101.2 534.2,101.0 535.0,100.2 535.2,100.0 535.2,99.0 536.0,98.2 536.2,98.0 537.0,97.2 537.2,97.0 538.0,96.2 538.2,96.0 539.0,95.2 539.2,95.0 539.2,94.0 540.0,93.2 540.2,93.0 541.0,92.2 541.2,92.0 542.0,91.2 542.2,91.0 543.0,90.2 543.2,90.0 544.0,89.2 544.2,89.0 545.0,88.2 545.2,88.0 546.0,87.2 546.2,87.0 547.0,86.2 547.2,86.0 548.0,85.2 548.2,85.0 549.0,84.2 549.2,84.0 550.0,83.2 551.0,83.2 551.2,83.0 552.0,82.2 552.2,82.0 553.0,81.2 553.2,81.0 554.0,80.2 554.2,80.0 555.0,79.2 556.0,79.2 556.2,79.0 557.0,78.2 557.2,78.0 558.0,77.2 558.2,77.0 559.0,76.2 559.2,76.0 560.0,75.2 561.0,75.2 561.2,75.0 562.0,74.2 562.2,74.0 563.0,73.2 564.0,73.2 564.2,73.0 565.0,72.2 565.2,72.0 566.0,71.2 566.2,71.0 567.0,70.2 568.0,70.2 568.2,70.0 569.0,69.2 570.0,69.2 570.2,69.0 571.0,68.2 571.2,68.0 572.0,67.2 573.0,67.2 573.2,67.0 574.0,66.2 575.0,66.2 575.2,66.0 576.0,65.2 576.2,65.0 577.0,64.2 578.0,64.2 578.2,64.0 579.0,63.2 580.0,63.2 580.2,63.0 581.0,62.2 582.0,62.2 582.2,62.0 583.0,61.2 584.0,61.2 584.2,61.0 585.0,60.2 586.0,60.2 586.2,60.0 587.0,59.2 588.0,59.2 589.0,59.2 589.2,59.0 590.0,58.2 591.0,58.2 591.2,58.0 592.0,57.2 593.0,57.2 594.0,57.2 594.2,57.0 595.0,56.2 596.0,56.2 596.2,56.0 597.0,55.2 598.0,55.2 599.0,55.2 600.0,55.2 600.2,55.0 601.0,54.2 602.0,54.2 602.2,54.0 603.0,53.2 604.0,53.2 605.0,53.2 606.0,53.2 606.2,53.0 607.0,52.2 608.0,52.2 609.0,52.2 610.0,52.2 610.2,52.0 611.0,51.2 612.0,51.2 613.0,51.2 614.0,51.2 615.0,51.2 615.2,51.0 616.0,50.2 617.0,50.2 618.0,50.2 619.0,50.2 620.0,50.2 620.2,50.0 621.0,49.2 622.0,49.2 623.0,49.2 624.0,49.2 625.0,49.2 626.0,49.2 627.0,49.2 628.0,49.2 628.2,49.0 629.0,48.2 630.0,48.2 631.0,48.2 632.0,48.2 633.0,48.2 634.0,48.2 635.0,48.2 636.0,48.2 637.0,48.2 638.0,48.2 639.0,48.2 640.0,48.2 641.0,48.2 642.0,48.2 643.0,48.2 644.0,48.2 645.0,48.2 646.0,48.2 647.0,48.2 648.0,48.2 649.0,48.2 650.0,48.2 651.0,48.2 652.0,48.2 653.0,48.2 654.0,48.2 655.0,48.2 656.0,48.2 657.0,48.2 658.0,48.2 659.0,48.2 659.8,49.0 660.0,49.2 661.0,49.2 662.0,49.2 663.0,49.2 664.0,49.2 665.0,49.2 666.0,49.2 667.0,49.2 667.8,50.0 668.0,50.2 669.0,50.2 670.0,50.2 671.0,50.2 671.8,51.0 672.0,51.2 673.0,51.2 674.0,51.2 675.0,51.2 676.0,51.2 676.8,52.0 677.0,52.2 678.0,52.2 679.0,52.2 680.0,52.2 680.8,53.0 681.0,53.2 682.0,53.2 683.0,53.2 684.0,53.2 684.8,54.0 685.0,54.2 686.0,54.2 687.0,54.2 687.8,55.0 688.0,55.2 689.0,55.2 690.0,55.2 690.8,56.0 691.0,56.2 692.0,56.2 692.8,57.0 693.0,57.2 694.0,57.2 695.0,57.2 695.8,58.0 696.0,58.2 697.0,58.2 697.8,59.0 698.0,59.2 699.0,59.2 700.0,59.2 700.8,60.0 701.0,60.2 702.0,60.2 702.8,61.0 703.0,61.2 704.0,61.2 704.8,62.0 705.0,62.2 706.0,62.2 706.8,63.0 707.0,63.2 708.0,63.2 708.8,64.0 709.0,64.2 710.0,64.2 710.8,65.0 711.0,65.2 712.0,65.2 712.8,66.0 713.0,66.2 713.8,67.0 714.0,67.2 715.0,67.2 715.8,68.0 716.0,68.2 717.0,68.2 717.8,69.0 718.0,69.2 719.0,69.2 719.8,70.0 720.0,70.2 720.8,71.0 721.0,71.2 721.8,72.0 722.0,72.2 723.0,72.2 723.8,73.0 724.0,73.2 724.8,74.0 725.0,74.2 726.0,74.2 726.8,75.0 727.0,75.2 727.8,76.0 728.0,76.2 728.8,77.0 729.0,77.2 729.8,78.0 730.0,78.2 731.0,78.2 731.8,79.0 732.0,79.2 732.8,80.0 733.0,80.2 733.8,81.0 734.0,81.2 735.0,81.2 735.8,82.0 736.0,82.2 736.8,83.0 737.0,83.2 737.8,84.0 738.0,84.2 738.8,85.0 739.0,85.2 739.8,86.0 740.0,86.2 740.8,87.0 741.0,87.2 741.8,88.0 742.0,88.2 742.8,89.0 743.0,89.2 743.8,90.0 744.0,90.2 744.8,91.0 745.0,91.2 745.8,92.0 746.0,92.2 746.8,93.0 747.0,93.2 747.8,94.0 748.0,94.2 748.8,95.0 749.0,95.2 749.8,96.0 749.8,97.0 750.0,97.2 750.8,98.0 751.0,98.2 751.8,99.0 752.0,99.2 752.8,100.0 752.8,101.0 753.0,101.2 753.8,102.0 754.0,102.2 754.8,103.0 755.0,103.2 755.8,104.0 756.0,104.2 756.8,105.0 756.8,106.0 757.0,106.2 757.8,107.0 758.0,107.2 758.8,108.0 758.8,109.0 759.0,109.2 759.8,110.0 760.0,110.2 760.8,111.0 761.0,111.2 761.8,112.0 761.8,113.0 762.0,113.2 762.8,114.0 762.8,115.0 763.0,115.2 763.8,116.0 763.8,117.0 764.0,117.2 764.8,118.0 765.0,118.2 765.8,119.0 765.8,120.0 766.0,120.2 766.8,121.0 766.8,122.0 767.0,122.2 767.8,123.0 767.8,124.0 768.0,124.2 768.8,125.0 768.8,126.0 769.0,126.2 769.8,127.0 769.8,128.0 770.0,128.2 770.8,129.0 770.8,130.0 771.0,130.2 771.8,131.0 771.8,132.0 771.8,133.0 772.0,133.2 772.8,134.0 772.8,135.0 773.0,135.2 773.8,136.0 773.8,137.0 773.8,138.0 774.0,138.2 774.8,139.0 774.8,140.0 775.0,140.2 775.8,141.0 775.8,142.0 775.8,143.0 776.0,143.2 776.8,144.0 776.8,145.0 776.8,146.0 777.0,146.2 777.8,147.0 777.8,148.0 777.8,149.0 777.8,150.0 778.0,150.2 778.8,151.0 778.8,152.0 778.8,153.0 778.8,154.0 779.0,154.2 779.8,155.0 779.8,156.0 779.8,157.0 779.8,158.0 779.8,159.0 780.0,159.2 780.8,160.0 780.8,161.0 780.8,162.0 780.8,163.0 781.0,163.2 781.8,164.0 781.8,165.0 781.8,166.0 781.8,167.0 781.8,168.0 781.8,169.0 781.8,170.0 781.8,171.0 782.0,171.2 782.8,172.0 782.8,173.0 782.8,174.0 782.8,175.0 782.8,176.0 782.8,177.0 782.8,178.0 782.8,179.0 782.8,180.0 782.8,181.0 782.8,182.0 782.8,183.0 782.8,184.0 782.8,185.0 782.8,186.0 782.8,187.0 782.8,188.0 782.8,189.0 782.8,190.0 782.8,191.0 782.8,192.0 782.8,193.0 782.8,194.0 782.8,195.0 782.8,196.0 782.8,197.0 782.8,198.0 782.8,199.0 782.8,200.0 782.8,201.0 782.8,202.0 782.0,202.8 781.8,203.0 781.8,204.0 781.8,205.0 781.8,206.0 781.8,207.0 781.8,208.0 781.8,209.0 781.8,210.0 781.0,210.8 780.8,211.0 780.8,212.0 780.8,213.0 780.8,214.0 780.8,215.0 780.0,215.8 779.8,216.0 779.8,217.0 779.8,218.0 779.8,219.0 779.8,220.0 779.0,220.8 778.8,221.0 778.8,222.0 778.8,223.0 778.8,224.0 778.0,224.8 777.8,225.0 777.8,226.0 777.8,227.0 777.0,227.8 776.8,228.0 776.8,229.0 776.8,230.0 776.0,230.8 775.8,231.0 775.8,232.0 775.8,233.0 775.8,234.0 775.0,234.8 774.8,235.0 774.8,236.0 774.0,236.8 773.8,237.0 773.8,238.0 773.8,239.0 773.0,239.8 772.8,240.0 772.8,241.0 772.0,241.8 771.8,242.0 771.8,243.0 771.0,243.8 770.8,244.0 770.8,245.0 770.8,246.0 770.0,246.8 769.8,247.0 769.8,248.0 769.0,248.8 768.8,249.0 768.8,250.0 768.0,250.8 767.8,251.0 767.8,252.0 767.0,252.8 766.8,253.0 766.0,253.8 765.8,254.0 765.8,255.0 765.0,255.8 764.8,256.0 764.8,257.0 764.0,257.8 763.8,258.0 763.8,259.0 763.0,259.8 762.8,260.0 762.0,260.8 761.8,261.0 761.8,262.0 761.0,262.8 760.8,263.0 760.8,264.0 760.0,264.8 759.8,265.0 759.0,265.8 758.8,266.0 758.0,266.8 757.8,267.0 757.8,268.0 757.0,268.8 756.8,269.0 756.0,269.8 755.8,270.0 755.8,271.0 755.0,271.8 754.8,272.0 754.0,272.8 753.8,273.0 753.0,273.8 752.8,274.0 752.0,274.8 751.8,275.0 751.8,276.0 751.0,276.8 750.8,277.0 750.0,277.8 749.8,278.0 749.0,278.8 748.8,279.0 748.0,279.8 747.8,280.0 747.8,281.0 747.0,281.8 746.8,282.0 746.0,282.8 745.8,283.0 745.0,283.8 744.8,284.0 744.0,284.8 743.8,285.0 743.0,285.8 742.8,286.0 742.0,286.8 741.8,287.0 741.0,287.8 740.8,288.0 740.0,288.8 739.8,289.0 739.0,289.8 738.8,290.0 738.0,290.8 737.0,290.8 736.8,291.0 736.0,291.8 735.8,292.0 735.0,292.8 734.8,293.0 734.0,293.8 733.8,294.0 733.0,294.8 732.0,294.8 731.8,295.0 731.0,295.8 730.8,296.0 730.0,296.8 729.8,297.0 729.0,297.8 728.8,298.0 728.0,298.8 727.8,299.0 727.0,299.8 726.0,299.8 725.8,300.0 725.0,300.8 724.8,301.0 724.0,301.8 723.0,301.8 722.8,302.0 722.0,302.8 721.8,303.0 721.0,303.8 720.0,303.8 719.8,304.0 719.0,304.8 718.8,305.0 718.0,305.8 717.0,305.8 716.8,306.0 716.0,306.8 715.8,307.0 715.0,307.8 714.0,307.8 713.8,308.0 713.0,308.8 712.0,308.8 711.8,309.0 711.0,309.8 710.0,309.8 709.8,310.0 709.0,310.8 708.0,310.8 707.8,311.0 707.0,311.8 706.0,311.8 705.8,312.0 705.0,312.8 704.0,312.8 703.8,313.0 703.0,313.8 702.0,313.8 701.8,314.0 701.0,314.8 700.0,314.8 699.8,315.0 699.0,315.8 698.0,315.8 697.0,315.8 696.8,316.0 696.0,316.8 695.0,316.8 694.8,317.0 694.0,317.8 693.0,317.8 692.0,317.8 691.8,318.0 691.0,318.8 690.0,318.8 689.8,319.0 689.0,319.8 688.0,319.8 687.0,319.8 686.0,319.8 685.8,320.0 685.0,320.8 684.0,320.8 683.0,320.8 682.8,321.0 682.0,321.8 681.0,321.8 680.0,321.8 679.0,321.8 678.8,322.0 678.0,322.8 677.0,322.8 676.0,322.8 675.8,323.0 675.0,323.8 674.0,323.8 673.0,323.8 672.8,324.0 672.8,325.0 672.0,325.8 671.8,326.0 671.8,327.0 671.8,328.0 671.8,329.0 671.8,330.0 671.8,331.0 671.8,332.0 671.8,333.0 671.8,334.0 671.8,335.0 671.8,336.0 671.8,337.0 671.8,338.0 671.8,339.0 671.8,340.0 671.8,341.0 671.8,342.0 671.8,343.0 671.8,344.0 671.8,345.0 671.8,346.0 671.8,347.0 671.8,348.0 671.8,349.0 671.8,350.0 671.8,351.0 671.8,352.0 671.8,353.0 671.8,354.0 671.8,355.0 671.8,356.0 671.8,357.0 671.8,358.0 671.8,359.0 671.8,360.0 671.8,361.0 671.8,362.0 671.8,363.0 671.8,364.0 671.8,365.0 671.8,366.0 671.8,367.0 671.8,368.0 671.8,369.0 671.8,370.0 671.8,371.0 671.8,372.0 671.8,373.0 671.8,374.0 671.8,375.0 671.8,376.0 671.8,377.0 671.8,378.0 671.8,379.0 671.8,380.0 671.8,381.0 671.8,382.0 671.8,383.0 671.8,384.0 671.8,385.0 671.8,386.0 671.8,387.0 671.8,388.0 671.8,389.0 671.8,390.0 671.8,391.0 671.8,392.0 671.8,393.0 671.8,394.0 671.8,395.0 671.8,396.0 671.8,397.0 671.8,398.0 671.8,399.0 671.8,400.0 671.8,401.0 671.8,402.0 671.8,403.0 671.8,404.0 671.8,405.0 671.8,406.0 671.8,407.0 671.8,408.0 671.8,409.0 671.8,410.0 671.8,411.0 671.8,412.0 671.8,413.0 671.8,414.0 671.8,415.0 671.8,416.0 671.8,417.0 671.8,418.0 671.8,419.0 671.8,420.0 671.8,421.0 671.8,422.0 671.8,423.0 671.8,424.0 671.8,425.0 671.8,426.0 671.8,427.0 671.8,428.0 671.8,429.0 671.8,430.0 671.8,431.0 671.8,432.0 671.8,433.0 671.8,434.0 671.8,435.0 671.8,436.0 671.8,437.0 671.8,438.0 671.8,439.0 671.8,440.0 671.8,441.0 671.8,442.0 671.8,443.0 671.8,444.0 671.8,445.0 671.8,446.0 671.8,447.0 671.8,448.0 671.8,449.0 671.8,450.0 671.8,451.0 671.8,452.0 671.8,453.0 671.8,454.0 671.8,455.0 671.8,456.0 671.8,457.0 671.8,458.0 671.8,459.0 671.8,460.0 671.8,461.0 671.8,462.0 671.8,463.0 671.8,464.0 671.8,465.0 671.8,466.0 671.8,467.0 671.8,468.0 671.8,469.0 671.8,470.0 671.8,471.0 671.8,472.0 671.8,473.0 671.8,474.0 671.8,475.0 671.8,476.0 671.8,477.0 671.8,478.0 671.8,479.0 671.8,480.0 671.8,481.0 671.8,482.0 671.8,483.0 671.8,484.0 671.8,485.0 671.8,486.0 671.8,487.0 671.8,488.0 671.8,489.0 671.8,490.0 671.8,491.0 671.8,492.0 671.8,493.0 671.8,494.0 671.8,495.0 671.8,496.0 671.8,497.0 671.8,498.0 671.8,499.0 671.8,500.0 671.8,501.0 671.8,502.0 671.8,503.0 671.8,504.0 671.8,505.0 671.8,506.0 671.8,507.0 671.8,508.0 671.8,509.0 671.8,510.0 671.8,511.0 671.8,512.0 671.8,513.0 671.8,514.0 671.8,515.0 671.8,516.0 671.8,517.0 671.8,518.0 671.8,519.0 671.8,520.0 671.8,521.0 671.8,522.0 671.8,523.0 671.8,524.0 671.8,525.0 671.8,526.0 671.8,527.0 671.8,528.0 671.8,529.0 671.8,530.0 671.8,531.0 671.8,532.0 671.8,533.0 671.8,534.0 671.8,535.0 671.8,536.0 671.8,537.0 671.8,538.0 671.8,539.0 671.8,540.0 671.8,541.0 671.8,542.0 671.8,543.0 671.8,544.0 671.8,545.0 671.8,546.0 671.8,547.0 671.8,548.0 671.8,549.0 671.8,550.0 671.8,551.0 671.8,552.0 671.8,553.0 671.8,554.0 671.8,555.0 671.8,556.0 671.8,557.0 671.8,558.0 671.8,559.0 671.8,560.0 671.8,561.0 671.8,562.0 671.8,563.0 671.8,564.0 671.8,565.0 671.8,566.0 671.8,567.0 671.8,568.0 671.8,569.0 671.8,570.0 671.8,571.0 671.8,572.0 671.8,573.0 671.8,574.0 671.8,575.0 671.8,576.0 671.8,577.0 671.8,578.0 671.8,579.0 671.8,580.0 671.8,581.0 671.8,582.0 671.8,583.0 671.8,584.0 671.8,585.0 671.8,586.0 671.8,587.0 671.8,588.0 671.8,589.0 671.8,590.0 671.8,591.0 671.8,592.0 671.8,593.0 671.8,594.0 671.8,595.0 671.8,596.0 671.8,597.0 671.8,598.0 671.8,599.0 671.8,600.0 671.8,601.0 671.8,602.0 671.8,603.0 671.8,604.0 671.8,605.0 671.8,606.0 671.8,607.0 671.8,608.0 671.8,609.0 671.8,610.0 671.8,611.0 671.8,612.0 671.8,613.0 671.8,614.0 671.8,615.0 671.8,616.0 671.8,617.0 671.8,618.0 671.8,619.0 671.8,620.0 671.8,621.0 671.8,622.0 671.8,623.0 671.8,624.0 671.8,625.0 671.8,626.0 671.8,627.0 671.8,628.0 671.8,629.0 671.8,630.0 671.8,631.0 671.8,632.0 671.8,633.0 671.8,634.0 671.8,635.0 671.8,636.0 671.8,637.0 671.8,638.0 671.8,639.0 671.8,640.0 671.8,641.0 671.8,642.0 671.8,643.0 671.8,644.0 671.8,645.0 671.8,646.0 671.8,647.0 671.8,648.0 671.8,649.0 671.8,650.0 671.8,651.0 671.8,652.0 671.8,653.0 671.8,654.0 671.8,655.0 671.8,656.0 671.8,657.0 671.8,658.0 671.8,659.0 671.8,660.0 671.8,661.0 671.8,662.0 671.8,663.0 671.8,664.0 671.8,665.0 671.8,666.0 671.8,667.0 671.8,668.0 671.8,669.0 671.8,670.0 671.8,671.0 671.8,672.0 671.8,673.0 671.8,674.0 671.8,675.0 671.8,676.0 671.8,677.0 671.8,678.0 671.8,679.0 671.8,680.0 671.8,681.0 671.8,682.0 671.8,683.0 671.8,684.0 671.8,685.0 671.8,686.0 671.8,687.0 671.8,688.0 671.8,689.0 671.8,690.0 671.8,691.0 671.8,692.0 671.8,693.0 671.8,694.0 671.8,695.0 671.8,696.0 671.8,697.0 671.8,698.0 671.8,699.0 671.8,700.0 671.8,701.0 671.8,702.0 671.8,703.0 671.8,704.0 671.8,705.0 671.8,706.0 671.8,707.0 671.8,708.0 671.8,709.0 671.8,710.0 671.8,711.0 671.8,712.0 671.8,713.0 671.8,714.0 671.8,715.0 671.8,716.0 671.8,717.0 671.8,718.0 671.8,719.0 671.8,720.0 671.8,721.0 671.8,722.0 671.8,723.0 671.8,724.0 671.8,725.0 671.8,726.0 671.8,727.0 671.8,728.0 671.8,729.0 671.8,730.0 671.8,731.0 671.8,732.0 671.8,733.0 671.8,734.0 671.8,735.0 671.8,736.0 671.8,737.0 671.8,738.0 671.8,739.0 671.8,740.0 671.8,741.0 671.8,742.0 671.8,743.0 671.8,744.0 671.8,745.0 671.8,746.0 671.8,747.0 671.8,748.0 671.8,749.0 671.8,750.0 671.8,751.0 671.8,752.0 671.8,753.0 671.8,754.0 671.8,755.0 671.8,756.0 671.8,757.0 671.8,758.0 671.8,759.0 671.8,760.0 671.8,761.0 671.8,762.0 671.8,763.0 671.8,764.0 671.8,765.0 671.8,766.0 671.8,767.0 671.8,768.0 671.8,769.0 671.8,770.0 671.8,771.0 671.8,772.0 671.8,773.0 671.8,774.0 671.8,775.0 671.8,776.0 671.8,777.0 671.8,778.0 671.8,779.0 671.8,780.0 671.8,781.0 671.8,782.0 671.8,783.0 671.8,784.0 671.8,785.0 671.8,786.0 671.8,787.0 671.8,788.0 671.8,789.0 671.8,790.0 671.8,791.0 671.8,792.0 671.8,793.0 671.8,794.0 671.8,795.0 671.8,796.0 671.8,797.0 671.8,798.0 671.8,799.0 671.8,800.0 671.8,801.0 671.8,802.0 671.8,803.0 671.8,804.0 671.8,805.0 671.8,806.0 671.8,807.0 671.8,808.0 671.8,809.0 671.8,810.0 671.8,811.0 671.8,812.0 672.0,812.2 672.8,813.0 672.8,814.0 673.0,814.2 674.0,814.2 674.8,815.0 675.0,815.2 676.0,815.2 677.0,815.2 678.0,815.2 679.0,815.2 679.8,816.0 680.0,816.2 681.0,816.2 682.0,816.2 682.8,817.0 683.0,817.2 684.0,817.2 685.0,817.2 686.0,817.2 686.8,818.0 687.0,818.2 688.0,818.2 689.0,818.2 690.0,818.2 690.8,819.0 691.0,819.2 692.0,819.2 693.0,819.2 693.8,820.0 694.0,820.2 695.0,820.2 695.8,821.0 696.0,821.2 697.0,821.2 698.0,821.2 698.8,822.0 699.0,822.2 700.0,822.2 701.0,822.2 701.8,823.0 702.0,823.2 703.0,823.2 703.8,824.0 704.0,824.2 705.0,824.2 705.8,825.0 706.0,825.2 707.0,825.2 707.8,826.0 708.0,826.2 709.0,826.2 709.8,827.0 710.0,827.2 711.0,827.2 711.8,828.0 712.0,828.2 713.0,828.2 713.8,829.0 714.0,829.2 715.0,829.2 715.8,830.0 716.0,830.2 717.0,830.2 717.8,831.0 718.0,831.2 719.0,831.2 719.8,832.0 720.0,832.2 720.8,833.0 721.0,833.2 722.0,833.2 722.8,834.0 723.0,834.2 724.0,834.2 724.8,835.0 725.0,835.2 725.8,836.0 726.0,836.2 726.8,837.0 727.0,837.2 728.0,837.2 728.8,838.0 729.0,838.2 729.8,839.0 730.0,839.2 731.0,839.2 731.8,840.0 732.0,840.2 732.8,841.0 733.0,841.2 733.8,842.0 734.0,842.2 734.8,843.0 735.0,843.2 736.0,843.2 736.8,844.0 737.0,844.2 737.8,845.0 738.0,845.2 738.8,846.0 739.0,846.2 740.0,846.2 740.8,847.0 741.0,847.2 741.8,848.0 742.0,848.2 742.8,849.0 743.0,849.2 743.8,850.0 744.0,850.2 744.8,851.0 745.0,851.2 745.8,852.0 746.0,852.2 746.8,853.0 747.0,853.2 747.8,854.0 748.0,854.2 748.8,855.0 749.0,855.2 749.8,856.0 750.0,856.2 750.8,857.0 751.0,857.2 751.8,858.0 752.0,858.2 752.8,859.0 753.0,859.2 753.8,860.0 753.8,861.0 754.0,861.2 754.8,862.0 755.0,862.2 755.8,863.0 756.0,863.2 756.8,864.0 756.8,865.0 757.0,865.2 757.8,866.0 758.0,866.2 758.8,867.0 759.0,867.2 759.8,868.0 760.0,868.2 760.8,869.0 760.8,870.0 761.0,870.2 761.8,871.0 762.0,871.2 762.8,872.0 762.8,873.0 763.0,873.2 763.8,874.0 764.0,874.2 764.8,875.0 765.0,875.2 765.8,876.0 765.8,877.0 766.0,877.2 766.8,878.0 766.8,879.0 767.0,879.2 767.8,880.0 767.8,881.0 768.0,881.2 768.8,882.0 769.0,882.2 769.8,883.0 769.8,884.0 770.0,884.2 770.8,885.0 770.8,886.0 771.0,886.2 771.8,887.0 771.8,888.0 772.0,888.2 772.8,889.0 772.8,890.0 773.0,890.2 773.8,891.0 773.8,892.0 774.0,892.2 774.8,893.0 774.8,894.0 775.0,894.2 775.8,895.0 775.8,896.0 776.0,896.2 776.8,897.0 776.8,898.0 776.8,899.0 777.0,899.2 777.8,900.0 777.8,901.0 778.0,901.2 778.8,902.0 778.8,903.0 778.8,904.0 779.0,904.2 779.8,905.0 779.8,906.0 779.8,907.0 780.0,907.2 780.8,908.0 780.8,909.0 780.8,910.0 781.0,910.2 781.8,911.0 781.8,912.0 781.8,913.0 781.8,914.0 782.0,914.2 782.8,915.0 782.8,916.0 782.8,917.0 783.0,917.2 783.8,918.0 783.8,919.0 783.8,920.0 783.8,921.0 783.8,922.0 784.0,922.2 784.8,923.0 784.8,924.0 784.8,925.0 784.8,926.0 785.0,926.2 785.8,927.0 785.8,928.0 785.8,929.0 785.8,930.0 785.8,931.0 785.8,932.0 785.8,933.0 786.0,933.2 786.8,934.0 786.8,935.0 786.8,936.0 786.8,937.0 786.8,938.0 786.8,939.0 786.8,940.0 786.8,941.0 786.8,942.0 786.8,943.0 787.0,943.2 787.8,944.0 787.8,945.0 787.8,946.0 787.8,947.0 787.8,948.0 787.8,949.0 787.8,950.0 787.8,951.0 787.8,952.0 787.8,953.0 787.8,954.0 787.8,955.0 787.8,956.0 787.8,957.0 787.8,958.0 787.8,959.0 787.0,959.8" stroke="black" /><polyline fill="none" points="485.2,541.0 485.2,540.0 485.2,539.0 485.2,538.0 485.2,537.0 485.2,536.0 485.2,535.0 485.2,534.0 485.2,533.0 485.2,532.0 485.2,531.0 485.2,530.0 485.2,529.0 485.0,528.8 484.2,528.0 484.2,527.0 484.2,526.0 484.0,525.8 483.2,525.0 483.2,524.0 483.0,523.8 482.2,523.0 482.2,522.0 482.0,521.8 481.2,521.0 481.0,520.8 480.2,520.0 480.2,519.0 480.0,518.8 479.2,518.0 479.0,517.8 478.2,517.0 478.0,516.8 477.2,516.0 477.0,515.8 476.2,515.0 476.0,514.8 475.2,514.0 475.0,513.8 474.2,513.0 474.0,512.8 473.2,512.0 473.0,511.8 472.0,511.8 471.2,511.0 471.0,510.8 470.2,510.0 470.0,509.8 469.2,509.0 469.0,508.8 468.0,508.8 467.2,508.0 467.0,507.8 466.0,507.8 465.2,507.0 465.0,506.8 464.0,506.8 463.2,506.0 463.0,505.8 462.0,505.8 461.2,505.0 461.0,504.8 460.0,504.8 459.2,504.0 459.0,503.8 458.0,503.8 457.0,503.8 456.2,503.0 456.0,502.8 455.0,502.8 454.0,502.8 453.2,502.0 453.0,501.8 452.0,501.8 451.0,501.8 450.0,501.8 449.0,501.8 448.2,501.0 448.0,500.8 447.0,500.8 446.0,500.8 445.0,500.8 444.0,500.8 443.0,500.8 442.2,500.0 442.0,499.8 441.0,499.8 440.0,499.8 439.0,499.8 438.0,499.8 437.0,499.8 436.0,499.8 435.0,499.8 434.0,499.8 433.8,500.0 433.0,500.8 432.0,500.8 431.0,500.8 430.0,500.8 429.0,500.8 428.0,500.8 427.8,501.0 427.0,501.8 426.0,501.8 425.0,501.8 424.0,501.8 423.0,501.8 422.8,502.0 422.0,502.8 421.0,502.8 420.8,503.0 420.0,503.8 419.0,503.8 418.0,503.8 417.8,504.0 417.0,504.8 416.0,504.8 415.8,505.0 415.0,505.8 414.0,505.8 413.8,506.0 413.0,506.8 412.8,507.0 412.0,507.8 411.0,507.8 410.8,508.0 410.0,508.8 409.8,509.0 409.0,509.8 408.8,510.0 408.0,510.8 407.8,511.0 407.0,511.8 406.8,512.0 406.0,512.8 405.8,513.0 405.0,513.8 404.8,514.0 404.8,515.0 404.0,515.8 403.8,516.0 403.8,517.0 403.0,517.8 402.8,518.0 402.8,519.0 402.0,519.8 401.8,520.0 401.8,521.0 401.8,522.0 401.8,523.0 401.8,524.0 401.0,524.8 400.8,525.0 400.8,526.0 400.8,527.0 400.8,528.0 400.8,529.0 401.0,529.2 401.8,530.0 401.8,531.0 401.8,532.0 401.8,533.0 402.0,533.2 402.8,534.0 402.8,535.0 402.8,536.0 403.0,536.2 403.8,537.0 403.8,538.0 404.0,538.2 404.8,539.0 405.0,539.2 405.8,540.0 405.8,541.0 406.0,541.2 406.8,542.0 407.0,542.2 407.8,543.0 407.8,544.0 408.0,544.2 408.8,545.0 409.0,545.2 409.8,546.0 410.0,546.2 410.8,547.0 411.0,547.2 411.8,548.0 412.0,548.2 412.8,549.0 413.0,549.2 414.0,549.2 414.8,550.0 415.0,550.2 415.8,551.0 416.0,551.2 417.0,551.2 417.8,552.0 418.0,552.2 418.8,553.0 419.0,553.2 420.0,553.2 420.8,554.0 421.0,554.2 421.8,555.0 422.0,555.2 423.0,555.2 424.0,555.2 424.8,556.0 425.0,556.2 426.0,556.2 426.8,557.0 427.0,557.2 428.0,557.2 429.0,557.2 429.8,558.0 430.0,558.2 431.0,558.2 431.8,559.0 432.0,559.2 433.0,559.2 434.0,559.2 435.0,559.2 436.0,559.2 436.8,560.0 437.0,560.2 438.0,560.2 439.0,560.2 440.0,560.2 440.8,561.0 441.0,561.2 442.0,561.2 443.0,561.2 444.0,561.2 445.0,561.2 446.0,561.2 447.0,561.2 448.0,561.2 449.0,561.2 450.0,561.2 451.0,561.2 452.0,561.2 453.0,561.2 454.0,561.2 455.0,561.2 456.0,561.2 457.0,561.2 457.2,561.0 458.0,560.2 459.0,560.2 460.0,560.2 461.0,560.2 461.2,560.0 462.0,559.2 463.0,559.2 464.0,559.2 465.0,559.2 465.2,559.0 466.0,558.2 467.0,558.2 467.2,558.0 468.0,557.2 469.0,557.2 469.2,557.0 470.0,556.2 471.0,556.2 471.2,556.0 472.0,555.2 473.0,555.2 473.2,555.0 474.0,554.2 475.0,554.2 475.2,554.0 476.0,553.2 476.2,553.0 477.0,552.2 477.2,552.0 478.0,551.2 478.2,551.0 479.0,550.2 479.2,550.0 480.0,549.2 480.2,549.0 481.0,548.2 481.2,548.0 482.0,547.2 482.2,547.0 482.2,546.0 483.0,545.2 483.2,545.0 483.2,544.0 484.0,543.2 484.2,543.0 484.2,542.0 485.0,541.2 485.2,541.0" stroke="black" /><polyline fill="none" points="485.2,607.0 485.2,606.0 485.2,605.0 485.2,604.0 485.2,603.0 485.2,602.0 485.2,601.0 485.2,600.0 485.2,599.0 485.2,598.0 485.2,597.0 485.2,596.0 485.2,595.0 485.0,594.8 484.2,594.0 484.2,593.0 484.2,592.0 484.0,591.8 483.2,591.0 483.2,590.0 483.0,589.8 482.2,589.0 482.0,588.8 481.2,588.0 481.2,587.0 481.0,586.8 480.2,586.0 480.0,585.8 479.2,585.0 479.0,584.8 478.2,584.0 478.0,583.8 477.2,583.0 477.0,582.8 476.0,582.8 475.2,582.0 475.0,581.8 474.2,581.0 474.0,580.8 473.0,580.8 472.2,580.0 472.0,579.8 471.2,579.0 471.0,578.8 470.0,578.8 469.2,578.0 469.0,577.8 468.0,577.8 467.0,577.8 466.2,577.0 466.0,576.8 465.0,576.8 464.0,576.8 463.2,576.0 463.0,575.8 462.0,575.8 461.0,575.8 460.0,575.8 459.2,575.0 459.0,574.8 458.0,574.8 457.0,574.8 456.0,574.8 455.0,574.8 454.0,574.8 453.2,574.0 453.0,573.8 452.0,573.8 451.0,573.8 450.0,573.8 449.0,573.8 448.0,573.8 447.0,573.8 446.0,573.8 445.0,573.8 444.8,574.0 444.0,574.8 443.0,574.8 442.0,574.8 441.0,574.8 440.0,574.8 439.0,574.8 438.8,575.0 438.0,575.8 437.0,575.8 436.0,575.8 435.0,575.8 434.0,575.8 433.8,576.0 433.0,576.8 432.0,576.8 431.0,576.8 430.8,577.0 430.0,577.8 429.0,577.8 428.0,577.8 427.8,578.0 427.0,578.8 426.0,578.8 425.8,579.0 425.0,579.8 424.0,579.8 423.0,579.8 422.8,580.0 422.0,580.8 421.8,581.0 421.0,581.8 420.0,581.8 419.8,582.0 419.0,582.8 418.0,582.8 417.8,583.0 417.0,583.8 416.8,584.0 416.0,584.8 415.0,584.8 414.8,585.0 414.0,585.8 413.8,586.0 413.0,586.8 412.8,587.0 412.0,587.8 411.8,588.0 411.0,588.8 410.8,589.0 410.0,589.8 409.8,590.0 409.0,590.8 408.8,591.0 408.0,591.8 407.8,592.0 407.0,592.8 406.8,593.0 406.0,593.8 405.8,594.0 405.8,595.0 405.0,595.8 404.8,596.0 404.8,597.0 404.0,597.8 403.8,598.0 403.8,599.0 403.0,599.8 402.8,600.0 402.8,601.0 402.0,601.8 401.8,602.0 401.8,603.0 401.8,604.0 401.8,605.0 401.8,606.0 401.0,606.8 400.8,607.0 400.8,608.0 400.8,609.0 400.8,610.0 400.8,611.0 401.0,611.2 401.8,612.0 401.8,613.0 401.8,614.0 401.8,615.0 402.0,615.2 402.8,616.0 402.8,617.0 402.8,618.0 403.0,618.2 403.8,619.0 403.8,620.0 404.0,620.2 404.8,621.0 405.0,621.2 405.8,622.0 406.0,622.2 406.8,623.0 407.0,623.2 407.8,624.0 408.0,624.2 408.8,625.0 409.0,625.2 409.8,626.0 410.0,626.2 410.8,627.0 411.0,627.2 411.8,628.0 412.0,628.2 413.0,628.2 413.8,629.0 414.0,629.2 414.8,630.0 415.0,630.2 416.0,630.2 416.8,631.0 417.0,631.2 418.0,631.2 418.8,632.0 419.0,632.2 420.0,632.2 421.0,632.2 421.8,633.0 422.0,633.2 423.0,633.2 424.0,633.2 425.0,633.2 425.8,634.0 426.0,634.2 427.0,634.2 428.0,634.2 429.0,634.2 429.8,635.0 430.0,635.2 431.0,635.2 432.0,635.2 433.0,635.2 434.0,635.2 435.0,635.2 436.0,635.2 437.0,635.2 438.0,635.2 439.0,635.2 440.0,635.2 441.0,635.2 442.0,635.2 443.0,635.2 444.0,635.2 445.0,635.2 446.0,635.2 446.2,635.0 447.0,634.2 448.0,634.2 449.0,634.2 450.0,634.2 450.2,634.0 451.0,633.2 452.0,633.2 453.0,633.2 454.0,633.2 455.0,633.2 455.2,633.0 456.0,632.2 457.0,632.2 457.2,632.0 458.0,631.2 459.0,631.2 460.0,631.2 460.2,631.0 461.0,630.2 462.0,630.2 462.2,630.0 463.0,629.2 464.0,629.2 464.2,629.0 465.0,628.2 466.0,628.2 466.2,628.0 467.0,627.2 468.0,627.2 468.2,627.0 469.0,626.2 469.2,626.0 470.0,625.2 471.0,625.2 471.2,625.0 472.0,624.2 472.2,624.0 473.0,623.2 473.2,623.0 474.0,622.2 475.0,622.2 475.2,622.0 476.0,621.2 476.2,621.0 477.0,620.2 477.2,620.0 478.0,619.2 478.2,619.0 479.0,618.2 479.2,618.0 479.2,617.0 480.0,616.2 480.2,616.0 481.0,615.2 481.2,615.0 481.2,614.0 482.0,613.2 482.2,613.0 483.0,612.2 483.2,612.0 483.2,611.0 483.2,610.0 484.0,609.2 484.2,609.0 484.2,608.0 485.0,607.2 485.2,607.0" stroke="black" /><polyline fill="none" points="529.2,483.0 529.2,482.0 529.2,481.0 529.2,480.0 529.2,479.0 529.2,478.0 529.0,477.8 528.2,477.0 528.2,476.0 528.2,475.0 528.2,474.0 528.0,473.8 527.2,473.0 527.2,472.0 527.2,471.0 527.0,470.8 526.2,470.0 526.2,469.0 526.0,468.8 525.2,468.0 525.2,467.0 525.0,466.8 524.2,466.0 524.0,465.8 523.2,465.0 523.2,464.0 523.0,463.8 522.2,463.0 522.0,462.8 521.2,462.0 521.2,461.0 521.0,460.8 520.2,460.0 520.0,459.8 519.2,459.0 519.0,458.8 518.2,458.0 518.0,457.8 517.2,457.0 517.0,456.8 516.2,456.0 516.0,455.8 515.0,455.8 514.2,455.0 514.0,454.8 513.2,454.0 513.0,453.8 512.2,453.0 512.0,452.8 511.0,452.8 510.2,452.0 510.0,451.8 509.2,451.0 509.0,450.8 508.0,450.8 507.2,450.0 507.0,449.8 506.0,449.8 505.2,449.0 505.0,448.8 504.2,448.0 504.0,447.8 503.0,447.8 502.0,447.8 501.2,447.0 501.0,446.8 500.0,446.8 499.2,446.0 499.0,445.8 498.0,445.8 497.0,445.8 496.2,445.0 496.0,444.8 495.0,444.8 494.2,444.0 494.0,443.8 493.0,443.8 492.0,443.8 491.0,443.8 490.0,443.8 489.2,443.0 489.0,442.8 488.0,442.8 487.0,442.8 486.0,442.8 485.0,442.8 484.2,442.0 484.0,441.8 483.0,441.8 482.0,441.8 481.0,441.8 480.0,441.8 479.0,441.8 478.0,441.8 477.0,441.8 476.0,441.8 475.0,441.8 474.0,441.8 473.0,441.8 472.0,441.8 471.8,442.0 471.0,442.8 470.0,442.8 469.0,442.8 468.0,442.8 467.8,443.0 467.0,443.8 466.0,443.8 465.0,443.8 464.0,443.8 463.8,444.0 463.0,444.8 462.0,444.8 461.8,445.0 461.0,445.8 460.0,445.8 459.8,446.0 459.0,446.8 458.0,446.8 457.8,447.0 457.0,447.8 456.8,448.0 456.0,448.8 455.0,448.8 454.8,449.0 454.0,449.8 453.8,450.0 453.0,450.8 452.8,451.0 452.0,451.8 451.8,452.0 451.0,452.8 450.8,453.0 450.0,453.8 449.8,454.0 449.8,455.0 449.0,455.8 448.8,456.0 448.8,457.0 448.0,457.8 447.8,458.0 447.8,459.0 447.0,459.8 446.8,460.0 446.8,461.0 446.8,462.0 446.0,462.8 445.8,463.0 445.8,464.0 445.8,465.0 445.8,466.0 445.8,467.0 445.8,468.0 445.8,469.0 445.8,470.0 446.0,470.2 446.8,471.0 446.8,472.0 446.8,473.0 446.8,474.0 447.0,474.2 447.8,475.0 447.8,476.0 448.0,476.2 448.8,477.0 448.8,478.0 449.0,478.2 449.8,479.0 449.8,480.0 450.0,480.2 450.8,481.0 450.8,482.0 451.0,482.2 451.8,483.0 452.0,483.2 452.8,484.0 452.8,485.0 453.0,485.2 453.8,486.0 454.0,486.2 454.8,487.0 455.0,487.2 455.8,488.0 456.0,488.2 456.8,489.0 457.0,489.2 457.8,490.0 458.0,490.2 458.8,491.0 459.0,491.2 459.8,492.0 460.0,492.2 460.8,493.0 461.0,493.2 462.0,493.2 462.8,494.0 463.0,494.2 463.8,495.0 464.0,495.2 465.0,495.2 465.8,496.0 466.0,496.2 466.8,497.0 467.0,497.2 468.0,497.2 468.8,498.0 469.0,498.2 470.0,498.2 470.8,499.0 471.0,499.2 472.0,499.2 472.8,500.0 473.0,500.2 474.0,500.2 474.8,501.0 475.0,501.2 476.0,501.2 477.0,501.2 477.8,502.0 478.0,502.2 479.0,502.2 479.8,503.0 480.0,503.2 481.0,503.2 482.0,503.2 483.0,503.2 483.8,504.0 484.0,504.2 485.0,504.2 486.0,504.2 487.0,504.2 487.8,505.0 488.0,505.2 489.0,505.2 490.0,505.2 491.0,505.2 492.0,505.2 493.0,505.2 494.0,505.2 495.0,505.2 496.0,505.2 497.0,505.2 498.0,505.2 499.0,505.2 500.0,505.2 501.0,505.2 502.0,505.2 503.0,505.2 504.0,505.2 505.0,505.2 505.2,505.0 506.0,504.2 507.0,504.2 508.0,504.2 508.2,504.0 509.0,503.2 510.0,503.2 511.0,503.2 512.0,503.2 512.2,503.0 513.0,502.2 514.0,502.2 514.2,502.0 515.0,501.2 516.0,501.2 516.2,501.0 517.0,500.2 517.2,500.0 518.0,499.2 519.0,499.2 519.2,499.0 520.0,498.2 520.2,498.0 521.0,497.2 522.0,497.2 522.2,497.0 523.0,496.2 523.2,496.0 523.2,495.0 524.0,494.2 524.2,494.0 525.0,493.2 525.2,493.0 525.2,492.0 526.0,491.2 526.2,491.0 527.0,490.2 527.2,490.0 527.2,489.0 527.2,488.0 528.0,487.2 528.2,487.0 528.2,486.0 528.2,485.0 528.2,484.0 529.0,483.2 529.2,483.0" stroke="black" /><polyline fill="none" points="529.2,657.0 529.2,656.0 529.2,655.0 529.2,654.0 529.2,653.0 529.2,652.0 529.0,651.8 528.2,651.0 528.2,650.0 528.2,649.0 528.2,648.0 528.0,647.8 527.2,647.0 527.2,646.0 527.0,645.8 526.2,645.0 526.2,644.0 526.0,643.8 525.2,643.0 525.0,642.8 524.2,642.0 524.2,641.0 524.0,640.8 523.2,640.0 523.0,639.8 522.2,639.0 522.0,638.8 521.2,638.0 521.0,637.8 520.2,637.0 520.0,636.8 519.0,636.8 518.2,636.0 518.0,635.8 517.2,635.0 517.0,634.8 516.0,634.8 515.2,634.0 515.0,633.8 514.0,633.8 513.2,633.0 513.0,632.8 512.0,632.8 511.2,632.0 511.0,631.8 510.0,631.8 509.0,631.8 508.0,631.8 507.2,631.0 507.0,630.8 506.0,630.8 505.0,630.8 504.0,630.8 503.0,630.8 502.2,630.0 502.0,629.8 501.0,629.8 500.0,629.8 499.0,629.8 498.0,629.8 497.0,629.8 496.0,629.8 495.0,629.8 494.0,629.8 493.0,629.8 492.0,629.8 491.8,630.0 491.0,630.8 490.0,630.8 489.0,630.8 488.0,630.8 487.0,630.8 486.0,630.8 485.8,631.0 485.0,631.8 484.0,631.8 483.0,631.8 482.0,631.8 481.8,632.0 481.0,632.8 480.0,632.8 479.0,632.8 478.8,633.0 478.0,633.8 477.0,633.8 476.0,633.8 475.8,634.0 475.0,634.8 474.0,634.8 473.8,635.0 473.0,635.8 472.0,635.8 471.8,636.0 471.0,636.8 470.0,636.8 469.8,637.0 469.0,637.8 468.0,637.8 467.8,638.0 467.0,638.8 466.0,638.8 465.8,639.0 465.0,639.8 464.8,640.0 464.0,640.8 463.0,640.8 462.8,641.0 462.0,641.8 461.8,642.0 461.0,642.8 460.8,643.0 460.0,643.8 459.0,643.8 458.8,644.0 458.0,644.8 457.8,645.0 457.0,645.8 456.8,646.0 456.0,646.8 455.8,647.0 455.0,647.8 454.8,648.0 454.0,648.8 453.8,649.0 453.8,650.0 453.0,650.8 452.8,651.0 452.0,651.8 451.8,652.0 451.8,653.0 451.0,653.8 450.8,654.0 450.0,654.8 449.8,655.0 449.8,656.0 449.0,656.8 448.8,657.0 448.8,658.0 448.0,658.8 447.8,659.0 447.8,660.0 447.8,661.0 447.0,661.8 446.8,662.0 446.8,663.0 446.8,664.0 446.8,665.0 446.0,665.8 445.8,666.0 445.8,667.0 445.8,668.0 445.8,669.0 445.8,670.0 445.8,671.0 445.8,672.0 446.0,672.2 446.8,673.0 446.8,674.0 446.8,675.0 447.0,675.2 447.8,676.0 447.8,677.0 447.8,678.0 448.0,678.2 448.8,679.0 448.8,680.0 449.0,680.2 449.8,681.0 450.0,681.2 450.8,682.0 450.8,683.0 451.0,683.2 451.8,684.0 452.0,684.2 452.8,685.0 453.0,685.2 453.8,686.0 454.0,686.2 455.0,686.2 455.8,687.0 456.0,687.2 456.8,688.0 457.0,688.2 458.0,688.2 458.8,689.0 459.0,689.2 460.0,689.2 460.8,690.0 461.0,690.2 462.0,690.2 462.8,691.0 463.0,691.2 464.0,691.2 465.0,691.2 465.8,692.0 466.0,692.2 467.0,692.2 468.0,692.2 469.0,692.2 469.8,693.0 470.0,693.2 471.0,693.2 472.0,693.2 473.0,693.2 474.0,693.2 475.0,693.2 476.0,693.2 477.0,693.2 478.0,693.2 479.0,693.2 480.0,693.2 481.0,693.2 482.0,693.2 483.0,693.2 484.0,693.2 485.0,693.2 486.0,693.2 487.0,693.2 487.2,693.0 488.0,692.2 489.0,692.2 490.0,692.2 491.0,692.2 491.2,692.0 492.0,691.2 493.0,691.2 494.0,691.2 495.0,691.2 495.2,691.0 496.0,690.2 497.0,690.2 498.0,690.2 498.2,690.0 499.0,689.2 500.0,689.2 500.2,689.0 501.0,688.2 502.0,688.2 502.2,688.0 503.0,687.2 504.0,687.2 504.2,687.0 505.0,686.2 506.0,686.2 506.2,686.0 507.0,685.2 508.0,685.2 508.2,685.0 509.0,684.2 509.2,684.0 510.0,683.2 511.0,683.2 511.2,683.0 512.0,682.2 512.2,682.0 513.0,681.2 514.0,681.2 514.2,681.0 515.0,680.2 515.2,680.0 516.0,679.2 516.2,679.0 517.0,678.2 517.2,678.0 518.0,677.2 518.2,677.0 519.0,676.2 519.2,676.0 520.0,675.2 520.2,675.0 521.0,674.2 521.2,674.0 522.0,673.2 522.2,673.0 522.2,672.0 523.0,671.2 523.2,671.0 524.0,670.2 524.2,670.0 524.2,669.0 525.0,668.2 525.2,668.0 525.2,667.0 526.0,666.2 526.2,666.0 526.2,665.0 527.0,664.2 527.2,664.0 527.2,663.0 527.2,662.0 528.0,661.2 528.2,661.0 528.2,660.0 528.2,659.0 528.2,658.0 529.0,657.2 529.2,657.0" stroke="black" /><polyline fill="none" points="616.2,616.0 616.2,615.0 616.2,614.0 616.2,613.0 616.2,612.0 616.2,611.0 616.2,610.0 616.2,609.0 616.2,608.0 616.2,607.0 616.2,606.0 616.2,605.0 616.2,604.0 616.2,603.0 616.2,602.0 616.2,601.0 616.0,600.8 615.2,600.0 615.2,599.0 615.2,598.0 615.2,597.0 615.2,596.0 615.2,595.0 615.2,594.0 615.0,593.8 614.2,593.0 614.2,592.0 614.2,591.0 614.2,590.0 614.0,589.8 613.2,589.0 613.2,588.0 613.2,587.0 613.2,586.0 613.2,585.0 613.0,584.8 612.2,584.0 612.2,583.0 612.2,582.0 612.2,581.0 612.0,580.8 611.2,580.0 611.2,579.0 611.2,578.0 611.2,577.0 611.2,576.0 611.2,575.0 611.2,574.0 611.0,573.8 610.2,573.0 610.2,572.0 610.2,571.0 610.2,570.0 610.2,569.0 610.2,568.0 610.2,567.0 610.2,566.0 610.2,565.0 610.2,564.0 610.2,563.0 611.0,562.2 611.2,562.0 611.2,561.0 611.2,560.0 611.2,559.0 611.2,558.0 611.2,557.0 611.2,556.0 612.0,555.2 612.2,555.0 612.2,554.0 612.2,553.0 612.2,552.0 613.0,551.2 613.2,551.0 613.2,550.0 613.2,549.0 613.2,548.0 614.0,547.2 614.2,547.0 614.2,546.0 614.2,545.0 614.2,544.0 615.0,543.2 615.2,543.0 615.2,542.0 615.2,541.0 615.2,540.0 615.2,539.0 615.2,538.0 616.0,537.2 616.2,537.0 616.2,536.0 616.2,535.0 616.2,534.0 616.2,533.0 616.2,532.0 616.2,531.0 616.2,530.0 616.2,529.0 616.2,528.0 616.2,527.0 616.2,526.0 616.2,525.0 616.2,524.0 616.2,523.0 616.2,522.0 616.2,521.0 616.2,520.0 616.2,519.0 616.2,518.0 616.0,517.8 615.2,517.0 615.2,516.0 615.2,515.0 615.2,514.0 615.2,513.0 615.0,512.8 614.2,512.0 614.2,511.0 614.2,510.0 614.0,509.8 613.2,509.0 613.2,508.0 613.2,507.0 613.0,506.8 612.2,506.0 612.2,505.0 612.2,504.0 612.0,503.8 611.2,503.0 611.2,502.0 611.0,501.8 610.2,501.0 610.2,500.0 610.0,499.8 609.2,499.0 609.2,498.0 609.0,497.8 608.2,497.0 608.2,496.0 608.0,495.8 607.2,495.0 607.0,494.8 606.2,494.0 606.0,493.8 605.2,493.0 605.2,492.0 605.0,491.8 604.2,491.0 604.0,490.8 603.2,490.0 603.0,489.8 602.2,489.0 602.0,488.8 601.2,488.0 601.0,487.8 600.2,487.0 600.0,486.8 599.2,486.0 599.0,485.8 598.2,485.0 598.0,484.8 597.0,484.8 596.2,484.0 596.0,483.8 595.2,483.0 595.0,482.8 594.2,482.0 594.0,481.8 593.0,481.8 592.2,481.0 592.0,480.8 591.0,480.8 590.2,480.0 590.0,479.8 589.0,479.8 588.0,479.8 587.2,479.0 587.0,478.8 586.0,478.8 585.0,478.8 584.2,478.0 584.0,477.8 583.0,477.8 582.0,477.8 581.0,477.8 580.2,477.0 580.0,476.8 579.0,476.8 578.0,476.8 577.0,476.8 576.0,476.8 575.0,476.8 574.0,476.8 573.0,476.8 572.0,476.8 571.0,476.8 570.0,476.8 569.0,476.8 568.0,476.8 567.8,477.0 567.0,477.8 566.0,477.8 565.0,477.8 564.0,477.8 563.8,478.0 563.0,478.8 562.0,478.8 561.0,478.8 560.8,479.0 560.0,479.8 559.0,479.8 558.8,480.0 558.0,480.8 557.8,481.0 557.0,481.8 556.0,481.8 555.8,482.0 555.0,482.8 554.0,482.8 553.8,483.0 553.0,483.8 552.8,484.0 552.0,484.8 551.8,485.0 551.0,485.8 550.8,486.0 550.0,486.8 549.8,487.0 549.0,487.8 548.8,488.0 548.0,488.8 547.8,489.0 547.0,489.8 546.8,490.0 546.0,490.8 545.8,491.0 545.0,491.8 544.8,492.0 544.8,493.0 544.0,493.8 543.8,494.0 543.0,494.8 542.8,495.0 542.8,496.0 542.0,496.8 541.8,497.0 541.0,497.8 540.8,498.0 540.0,498.8 539.8,499.0 539.8,500.0 539.0,500.8 538.8,501.0 538.0,501.8 537.8,502.0 537.8,503.0 537.0,503.8 536.8,504.0 536.0,504.8 535.8,505.0 535.8,506.0 535.0,506.8 534.8,507.0 534.0,507.8 533.8,508.0 533.8,509.0 533.0,509.8 532.8,510.0 532.0,510.8 531.8,511.0 531.0,511.8 530.8,512.0 530.0,512.8 529.8,513.0 529.0,513.8 528.8,514.0 528.8,515.0 528.0,515.8 527.8,516.0 527.0,516.8 526.8,517.0 526.0,517.8 525.8,518.0 525.0,518.8 524.8,519.0 524.0,519.8 523.8,520.0 523.0,520.8 522.8,521.0 522.0,521.8 521.8,522.0 521.0,522.8 520.8,523.0 520.0,523.8 519.0,523.8 518.8,524.0 518.0,524.8 517.8,525.0 517.0,525.8 516.8,526.0 516.0,526.8 515.8,527.0 515.0,527.8 514.8,528.0 514.0,528.8 513.8,529.0 513.0,529.8 512.8,530.0 512.0,530.8 511.8,531.0 511.0,531.8 510.8,532.0 510.0,532.8 509.8,533.0 509.0,533.8 508.8,534.0 508.0,534.8 507.8,535.0 507.0,535.8 506.8,536.0 506.0,536.8 505.8,537.0 505.0,537.8 504.8,538.0 504.0,538.8 503.8,539.0 503.0,539.8 502.8,540.0 502.0,540.8 501.8,541.0 501.0,541.8 500.8,542.0 500.0,542.8 499.8,543.0 499.8,544.0 499.0,544.8 498.8,545.0 498.0,545.8 497.8,546.0 497.8,547.0 497.0,547.8 496.8,548.0 496.8,549.0 496.0,549.8 495.8,550.0 495.8,551.0 495.0,551.8 494.8,552.0 494.8,553.0 494.0,553.8 493.8,554.0 493.8,555.0 493.8,556.0 493.0,556.8 492.8,557.0 492.8,558.0 492.8,559.0 492.0,559.8 491.8,560.0 491.8,561.0 491.8,562.0 491.8,563.0 491.8,564.0 491.8,565.0 491.8,566.0 491.8,567.0 491.8,568.0 491.8,569.0 491.8,570.0 491.8,571.0 491.8,572.0 491.8,573.0 492.0,573.2 492.8,574.0 492.8,575.0 492.8,576.0 493.0,576.2 493.8,577.0 493.8,578.0 493.8,579.0 493.8,580.0 494.0,580.2 494.8,581.0 494.8,582.0 495.0,582.2 495.8,583.0 495.8,584.0 496.0,584.2 496.8,585.0 496.8,586.0 497.0,586.2 497.8,587.0 497.8,588.0 498.0,588.2 498.8,589.0 499.0,589.2 499.8,590.0 499.8,591.0 500.0,591.2 500.8,592.0 501.0,592.2 501.8,593.0 501.8,594.0 502.0,594.2 502.8,595.0 503.0,595.2 503.8,596.0 504.0,596.2 504.8,597.0 505.0,597.2 505.8,598.0 505.8,599.0 506.0,599.2 506.8,600.0 507.0,600.2 507.8,601.0 508.0,601.2 508.8,602.0 509.0,602.2 509.8,603.0 509.8,604.0 510.0,604.2 510.8,605.0 511.0,605.2 511.8,606.0 512.0,606.2 512.8,607.0 513.0,607.2 513.8,608.0 514.0,608.2 514.8,609.0 515.0,609.2 515.8,610.0 516.0,610.2 516.8,611.0 517.0,611.2 517.8,612.0 518.0,612.2 518.8,613.0 519.0,613.2 519.8,614.0 520.0,614.2 520.8,615.0 521.0,615.2 521.8,616.0 522.0,616.2 522.8,617.0 523.0,617.2 523.8,618.0 524.0,618.2 524.8,619.0 525.0,619.2 525.8,620.0 526.0,620.2 526.8,621.0 526.8,622.0 527.0,622.2 527.8,623.0 528.0,623.2 528.8,624.0 529.0,624.2 529.8,625.0 529.8,626.0 530.0,626.2 530.8,627.0 531.0,627.2 531.8,628.0 532.0,628.2 532.8,629.0 532.8,630.0 533.0,630.2 533.8,631.0 534.0,631.2 534.8,632.0 534.8,633.0 535.0,633.2 535.8,634.0 536.0,634.2 536.8,635.0 537.0,635.2 537.8,636.0 537.8,637.0 538.0,637.2 538.8,638.0 539.0,638.2 539.8,639.0 539.8,640.0 540.0,640.2 540.8,641.0 541.0,641.2 541.8,642.0 542.0,642.2 542.8,643.0 543.0,643.2 543.8,644.0 543.8,645.0 544.0,645.2 544.8,646.0 545.0,646.2 545.8,647.0 546.0,647.2 546.8,648.0 547.0,648.2 547.8,649.0 548.0,649.2 548.8,650.0 549.0,650.2 549.8,651.0 550.0,651.2 550.8,652.0 551.0,652.2 551.8,653.0 552.0,653.2 552.8,654.0 553.0,654.2 553.8,655.0 554.0,655.2 555.0,655.2 555.8,656.0 556.0,656.2 556.8,657.0 557.0,657.2 558.0,657.2 558.8,658.0 559.0,658.2 560.0,658.2 560.8,659.0 561.0,659.2 562.0,659.2 562.8,660.0 563.0,660.2 564.0,660.2 565.0,660.2 565.8,661.0 566.0,661.2 567.0,661.2 568.0,661.2 569.0,661.2 570.0,661.2 571.0,661.2 571.8,662.0 572.0,662.2 573.0,662.2 574.0,662.2 575.0,662.2 576.0,662.2 576.2,662.0 577.0,661.2 578.0,661.2 579.0,661.2 580.0,661.2 581.0,661.2 582.0,661.2 582.2,661.0 583.0,660.2 584.0,660.2 585.0,660.2 585.2,660.0 586.0,659.2 587.0,659.2 588.0,659.2 588.2,659.0 589.0,658.2 590.0,658.2 590.2,658.0 591.0,657.2 592.0,657.2 592.2,657.0 593.0,656.2 593.2,656.0 594.0,655.2 595.0,655.2 595.2,655.0 596.0,654.2 596.2,654.0 597.0,653.2 598.0,653.2 598.2,653.0 599.0,652.2 599.2,652.0 600.0,651.2 600.2,651.0 601.0,650.2 601.2,650.0 602.0,649.2 602.2,649.0 603.0,648.2 603.2,648.0 604.0,647.2 604.2,647.0 604.2,646.0 605.0,645.2 605.2,645.0 606.0,644.2 606.2,644.0 606.2,643.0 607.0,642.2 607.2,642.0 608.0,641.2 608.2,641.0 608.2,640.0 609.0,639.2 609.2,639.0 609.2,638.0 610.0,637.2 610.2,637.0 610.2,636.0 611.0,635.2 611.2,635.0 611.2,634.0 612.0,633.2 612.2,633.0 612.2,632.0 612.2,631.0 613.0,630.2 613.2,630.0 613.2,629.0 613.2,628.0 614.0,627.2 614.2,627.0 614.2,626.0 614.2,625.0 614.2,624.0 615.0,623.2 615.2,623.0 615.2,622.0 615.2,621.0 615.2,620.0 615.2,619.0 615.2,618.0 615.2,617.0 616.0,616.2 616.2,616.0" stroke="black" /></svg>