<?xml version="1.0" encoding="utf-8" ?>
<svg baseProfile="full" height="100%" version="1.1" width="100%" xmlns="http://www.w3.org/2000/svg" xmlns:ev="http://www.w3.org/2001/xml-events" xmlns:xlink="http://www.w3.org/1999/xlink"><defs /><polyline fill="none" points="1091.0,658.8 1082.8,698.0 1059.8,737.0 1041.0,755.8 1021.0,769.8 1002.0,778.8 971.0,786.8 926.0,785.8 899.0,777.8 873.0,763.8 846.2,740.0 832.2,721.0 820.2,697.0 813.0,672.8 325.0,672.8 315.8,700.0 302.8,723.0 282.0,746.8 261.0,762.8 234.0,775.8 211.0,781.8 185.0,783.8 150.0,778.8 112.0,761.8 80.2,734.0 63.2,709.0 51.2,678.0 47.2,633.0 51.2,609.0 59.2,586.0 80.2,553.0 98.0,535.2 129.2,515.0 107.0,501.8 86.2,484.0 72.2,467.0 58.2,442.0 47.2,397.0 48.2,368.0 53.2,345.0 62.2,323.0 77.2,300.0 95.0,281.2 114.0,267.2 155.0,250.2 202.0,247.2 246.0,259.2 276.0,278.2 299.8,303.0 314.8,328.0 320.8,346.0 325.0,349.2 812.0,349.2 838.2,296.0 860.0,272.2 879.0,258.2 907.0,245.2 932.0,239.2 963.0,238.2 990.0,243.2 1026.0,259.2 1053.8,282.0 1073.8,309.0 1089.8,352.0 1089.8,404.0 1083.8,426.0 1069.8,454.0 1038.0,488.8 1020.0,500.8 992.8,513.0 1034.0,534.2 1065.8,566.0 1078.8,588.0 1087.8,613.0 1091.8,637.0 1091.0,658.8" stroke="black" /><polyline fill="none" points="505.2,501.0 502.2,478.0 487.0,454.8 473.0,446.8 461.0,446.8 449.8,454.0 442.8,469.0 442.8,487.0 448.8,505.0 462.0,521.2 476.0,528.2 488.0,527.2 500.2,517.0 505.2,501.0" stroke="black" /><polyline fill="none" points="661.2,580.0 659.2,561.0 645.0,543.8 622.0,527.8 591.0,499.8 572.0,491.8 557.0,492.8 541.0,501.8 513.0,530.8 484.8,552.0 476.8,570.0 477.8,583.0 486.0,598.2 503.0,611.2 523.0,616.2 558.0,610.2 578.0,610.2 598.0,615.2 628.0,613.2 646.0,604.2 657.2,591.0 661.2,580.0" stroke="black" /><polyline fill="none" points="561.2,450.0 556.2,425.0 541.0,405.8 532.0,401.8 521.0,401.8 506.8,413.0 500.8,430.0 501.8,451.0 508.8,468.0 520.0,480.2 532.0,485.2 546.0,482.2 558.2,466.0 561.2,450.0" stroke="black" /><polyline fill="none" points="635.2,440.0 632.2,420.0 622.0,405.8 614.0,401.8 596.0,404.8 585.8,414.0 576.8,432.0 574.8,457.0 578.8,470.0 594.0,484.2 604.0,485.2 614.0,481.2 626.2,469.0 635.2,440.0" stroke="black" /><polyline fill="none" points="693.2,483.0 691.2,464.0 681.0,449.8 663.0,446.8 654.0,450.8 641.8,462.0 631.8,483.0 630.8,505.0 635.8,518.0 650.0,528.2 669.0,524.2 684.2,509.0 693.2,483.0" stroke="black" /></svg>