  0
SECTION
  2
HEADER
  9
$ACADVER
  1
AC1032
  9
$ACADMAINTVER
 90
      228
  9
$DWGCODEPAGE
  3
ANSI_1252
  9
$REQUIREDVERSIONS
160
                 0
  9
$INSBASE
 10
0.0
 20
0.0
 30
0.0
  9
$EXTMIN
 10
1.000000000000000E+20
 20
1.000000000000000E+20
 30
1.000000000000000E+20
  9
$EXTMAX
 10
-1.000000000000000E+20
 20
-1.000000000000000E+20
 30
-1.000000000000000E+20
  9
$LIMMIN
 10
0.0
 20
0.0
  9
$LIMMAX
 10
12.0
 20
9.0
  9
$ORTHOMODE
 70
     0
  9
$REGENMODE
 70
     1
  9
$FILLMODE
 70
     1
  9
$QTEXTMODE
 70
     0
  9
$MIRRTEXT
 70
     0
  9
$LTSCALE
 40
1.0
  9
$ATTMODE
 70
     1
  9
$TEXTSIZE
 40
0.2
  9
$TRACEWID
 40
0.05
  9
$TEXTSTYLE
  7
Standard
  9
$CLAYER
  8
0
  9
$CELTYPE
  6
ByLayer
  9
$CECOLOR
 62
   256
  9
$CELTSCALE
 40
1.0
  9
$DISPSILH
 70
     0
  9
$DIMSCALE
 40
1.0
  9
$DIMASZ
 40
0.18
  9
$DIMEXO
 40
0.0625
  9
$DIMDLI
 40
0.38
  9
$DIMRND
 40
0.0
  9
$DIMDLE
 40
0.0
  9
$DIMEXE
 40
0.18
  9
$DIMTP
 40
0.0
  9
$DIMTM
 40
0.0
  9
$DIMTXT
 40
0.18
  9
$DIMCEN
 40
0.09
  9
$DIMTSZ
 40
0.0
  9
$DIMTOL
 70
     0
  9
$DIMLIM
 70
     0
  9
$DIMTIH
 70
     1
  9
$DIMTOH
 70
     1
  9
$DIMSE1
 70
     0
  9
$DIMSE2
 70
     0
  9
$DIMTAD
 70
     0
  9
$DIMZIN
 70
     0
  9
$DIMBLK
  1

  9
$DIMASO
 70
     1
  9
$DIMSHO
 70
     1
  9
$DIMPOST
  1

  9
$DIMAPOST
  1

  9
$DIMALT
 70
     0
  9
$DIMALTD
 70
     2
  9
$DIMALTF
 40
25.4
  9
$DIMLFAC
 40
1.0
  9
$DIMTOFL
 70
     0
  9
$DIMTVP
 40
0.0
  9
$DIMTIX
 70
     0
  9
$DIMSOXD
 70
     0
  9
$DIMSAH
 70
     0
  9
$DIMBLK1
  1

  9
$DIMBLK2
  1

  9
$DIMSTYLE
  2
Standard
  9
$DIMCLRD
 70
     0
  9
$DIMCLRE
 70
     0
  9
$DIMCLRT
 70
     0
  9
$DIMTFAC
 40
1.0
  9
$DIMGAP
 40
0.09
  9
$DIMJUST
 70
     0
  9
$DIMSD1
 70
     0
  9
$DIMSD2
 70
     0
  9
$DIMTOLJ
 70
     1
  9
$DIMTZIN
 70
     0
  9
$DIMALTZ
 70
     0
  9
$DIMALTTZ
 70
     0
  9
$DIMUPT
 70
     0
  9
$DIMDEC
 70
     4
  9
$DIMTDEC
 70
     4
  9
$DIMALTU
 70
     2
  9
$DIMALTTD
 70
     2
  9
$DIMTXSTY
  7
Standard
  9
$DIMAUNIT
 70
     0
  9
$DIMADEC
 70
     0
  9
$DIMALTRND
 40
0.0
  9
$DIMAZIN
 70
     0
  9
$DIMDSEP
 70
    46
  9
$DIMATFIT
 70
     3
  9
$DIMFRAC
 70
     0
  9
$DIMLDRBLK
  1

  9
$DIMLUNIT
 70
     2
  9
$DIMLWD
 70
    -2
  9
$DIMLWE
 70
    -2
  9
$DIMTMOVE
 70
     0
  9
$DIMFXL
 40
1.0
  9
$DIMFXLON
 70
     0
  9
$DIMJOGANG
 40
0.7853981633974483
  9
$DIMTFILL
 70
     0
  9
$DIMTFILLCLR
 70
     0
  9
$DIMARCSYM
 70
     0
  9
$DIMLTYPE
  6

  9
$DIMLTEX1
  6

  9
$DIMLTEX2
  6

  9
$DIMTXTDIRECTION
 70
     0
  9
$LUNITS
 70
     2
  9
$LUPREC
 70
     4
  9
$SKETCHINC
 40
0.1
  9
$FILLETRAD
 40
0.0
  9
$AUNITS
 70
     0
  9
$AUPREC
 70
     0
  9
$MENU
  1
.
  9
$ELEVATION
 40
0.0
  9
$PELEVATION
 40
0.0
  9
$THICKNESS
 40
0.0
  9
$LIMCHECK
 70
     0
  9
$CHAMFERA
 40
0.0
  9
$CHAMFERB
 40
0.0
  9
$CHAMFERC
 40
0.0
  9
$CHAMFERD
 40
0.0
  9
$SKPOLY
 70
     0
  9
$TDCREATE
 40
2460462.612002315
  9
$TDUCREATE
 40
2460462.487002315
  9
$TDUPDATE
 40
2460462.612002315
  9
$TDUUPDATE
 40
2460462.487002315
  9
$TDINDWG
 40
0.0000000000
  9
$TDUSRTIMER
 40
0.0000000000
  9
$USRTIMER
 70
     1
  9
$ANGBASE
 50
0.0
  9
$ANGDIR
 70
     0
  9
$PDMODE
 70
     0
  9
$PDSIZE
 40
0.0
  9
$PLINEWID
 40
0.0
  9
$SPLFRAME
 70
     0
  9
$SPLINETYPE
 70
     6
  9
$SPLINESEGS
 70
     8
  9
$HANDSEED
  5
A7
  9
$SURFTAB1
 70
     6
  9
$SURFTAB2
 70
     6
  9
$SURFTYPE
 70
     6
  9
$SURFU
 70
     6
  9
$SURFV
 70
     6
  9
$UCSBASE
  2

  9
$UCSNAME
  2

  9
$UCSORG
 10
0.0
 20
0.0
 30
0.0
  9
$UCSXDIR
 10
1.0
 20
0.0
 30
0.0
  9
$UCSYDIR
 10
0.0
 20
1.0
 30
0.0
  9
$UCSORTHOREF
  2

  9
$UCSORTHOVIEW
 70
     0
  9
$UCSORGTOP
 10
0.0
 20
0.0
 30
0.0
  9
$UCSORGBOTTOM
 10
0.0
 20
0.0
 30
0.0
  9
$UCSORGLEFT
 10
0.0
 20
0.0
 30
0.0
  9
$UCSORGRIGHT
 10
0.0
 20
0.0
 30
0.0
  9
$UCSORGFRONT
 10
0.0
 20
0.0
 30
0.0
  9
$UCSORGBACK
 10
0.0
 20
0.0
 30
0.0
  9
$PUCSBASE
  2

  9
$PUCSNAME
  2

  9
$PUCSORG
 10
0.0
 20
0.0
 30
0.0
  9
$PUCSXDIR
 10
1.0
 20
0.0
 30
0.0
  9
$PUCSYDIR
 10
0.0
 20
1.0
 30
0.0
  9
$PUCSORTHOREF
  2

  9
$PUCSORTHOVIEW
 70
     0
  9
$PUCSORGTOP
 10
0.0
 20
0.0
 30
0.0
  9
$PUCSORGBOTTOM
 10
0.0
 20
0.0
 30
0.0
  9
$PUCSORGLEFT
 10
0.0
 20
0.0
 30
0.0
  9
$PUCSORGRIGHT
 10
0.0
 20
0.0
 30
0.0
  9
$PUCSORGFRONT
 10
0.0
 20
0.0
 30
0.0
  9
$PUCSORGBACK
 10
0.0
 20
0.0
 30
0.0
  9
$USERI1
 70
     0
  9
$USERI2
 70
     0
  9
$USERI3
 70
     0
  9
$USERI4
 70
     0
  9
$USERI5
 70
     0
  9
$USERR1
 40
0.0
  9
$USERR2
 40
0.0
  9
$USERR3
 40
0.0
  9
$USERR4
 40
0.0
  9
$USERR5
 40
0.0
  9
$WORLDVIEW
 70
     1
  9
$SHADEDGE
 70
     3
  9
$SHADEDIF
 70
    70
  9
$TILEMODE
 70
     1
  9
$MAXACTVP
 70
    64
  9
$PINSBASE
 10
0.0
 20
0.0
 30
0.0
  9
$PLIMCHECK
 70
     0
  9
$PEXTMIN
 10
1.000000000000000E+20
 20
1.000000000000000E+20
 30
1.000000000000000E+20
  9
$PEXTMAX
 10
-1.000000000000000E+20
 20
-1.000000000000000E+20
 30
-1.000000000000000E+20
  9
$PLIMMIN
 10
0.0
 20
0.0
  9
$PLIMMAX
 10
12.0
 20
9.0
  9
$UNITMODE
 70
     0
  9
$VISRETAIN
 70
     1
  9
$PLINEGEN
 70
     0
  9
$PSLTSCALE
 70
     1
  9
$TREEDEPTH
 70
  3020
  9
$CMLSTYLE
  2
Standard
  9
$CMLJUST
 70
     0
  9
$CMLSCALE
 40
1.0
  9
$PROXYGRAPHICS
 70
     1
  9
$MEASUREMENT
 70
     0
  9
$CELWEIGHT
370
    -1
  9
$ENDCAPS
280
     0
  9
$JOINSTYLE
280
     0
  9
$LWDISPLAY
290
     1
  9
$INSUNITS
 70
     4
  9
$HYPERLINKBASE
  1

  9
$STYLESHEET
  1

  9
$XEDIT
290
     1
  9
$CEPSNTYPE
380
     0
  9
$PSTYLEMODE
290
     1
  9
$FINGERPRINTGUID
  2
{7B81876B-5689-9141-A69C-952392A47910}
  9
$VERSIONGUID
  2
{10384BDF-0A0D-E446-9DC1-AE865B56FC4C}
  9
$EXTNAMES
290
     1
  9
$PSVPSCALE
 40
0.0
  9
$OLESTARTUP
290
     0
  9
$SORTENTS
280
   127
  9
$INDEXCTL
280
     0
  9
$HIDETEXT
280
     1
  9
$XCLIPFRAME
280
     2
  9
$HALOGAP
280
     0
  9
$OBSCOLOR
 70
   257
  9
$OBSLTYPE
280
     0
  9
$INTERSECTIONDISPLAY
280
     0
  9
$INTERSECTIONCOLOR
 70
   257
  9
$DIMASSOC
280
     2
  9
$PROJECTNAME
  1

  9
$CAMERADISPLAY
290
     0
  9
$LENSLENGTH
 40
50.0
  9
$CAMERAHEIGHT
 40
0.0
  9
$STEPSPERSEC
 40
2.0
  9
$STEPSIZE
 40
6.0
  9
$3DDWFPREC
 40
2.0
  9
$PSOLWIDTH
 40
0.25
  9
$PSOLHEIGHT
 40
4.0
  9
$LOFTANG1
 40
1.570796326794896
  9
$LOFTANG2
 40
1.570796326794896
  9
$LOFTMAG1
 40
0.0
  9
$LOFTMAG2
 40
0.0
  9
$LOFTPARAM
 70
     7
  9
$LOFTNORMALS
280
     1
  9
$LATITUDE
 40
37.795
  9
$LONGITUDE
 40
-122.394
  9
$NORTHDIRECTION
 40
0.0
  9
$TIMEZONE
 70
 -8000
  9
$LIGHTGLYPHDISPLAY
280
     1
  9
$TILEMODELIGHTSYNCH
280
     1
  9
$CMATERIAL
347
11
  9
$SOLIDHIST
280
     0
  9
$SHOWHIST
280
     1
  9
$DWFFRAME
280
     2
  9
$DGNFRAME
280
     0
  9
$REALWORLDSCALE
290
     1
  9
$INTERFERECOLOR
 62
     1
  9
$INTERFEREOBJVS
345
33
  9
$INTERFEREVPVS
346
30
  9
$CSHADOW
280
     0
  9
$SHADOWPLANELOCATION
 40
0.0
  0
ENDSEC
  0
SECTION
  2
CLASSES
  0
CLASS
  1
ACDBDICTIONARYWDFLT
  2
AcDbDictionaryWithDefault
  3
ObjectDBX Classes
 90
        0
 91
        1
280
     0
281
     0
  0
CLASS
  1
MATERIAL
  2
AcDbMaterial
  3
ObjectDBX Classes
 90
     1153
 91
        3
280
     0
281
     0
  0
CLASS
  1
VISUALSTYLE
  2
AcDbVisualStyle
  3
ObjectDBX Classes
 90
     4095
 91
       24
280
     0
281
     0
  0
CLASS
  1
SCALE
  2
AcDbScale
  3
ObjectDBX Classes
 90
     1153
 91
       17
280
     0
281
     0
  0
CLASS
  1
TABLESTYLE
  2
AcDbTableStyle
  3
ObjectDBX Classes
 90
     4095
 91
        1
280
     0
281
     0
  0
CLASS
  1
MLEADERSTYLE
  2
AcDbMLeaderStyle
  3
ACDB_MLEADERSTYLE_CLASS
 90
     4095
 91
        1
280
     0
281
     0
  0
CLASS
  1
ACDBSECTIONVIEWSTYLE
  2
AcDbSectionViewStyle
  3
ObjectDBX Classes
 90
     1025
 91
        1
280
     0
281
     0
  0
CLASS
  1
ACDBDETAILVIEWSTYLE
  2
AcDbDetailViewStyle
  3
ObjectDBX Classes
 90
     1025
 91
        1
280
     0
281
     0
  0
CLASS
  1
DICTIONARYVAR
  2
AcDbDictionaryVar
  3
ObjectDBX Classes
 90
        0
 91
        5
280
     0
281
     0
  0
CLASS
  1
CELLSTYLEMAP
  2
AcDbCellStyleMap
  3
ObjectDBX Classes
 90
     1152
 91
        1
280
     0
281
     0
  0
ENDSEC
  0
SECTION
  2
TABLES
  0
TABLE
  2
VPORT
  5
8
330
0
100
AcDbSymbolTable
 70
     1
  0
VPORT
  5
57
330
8
100
AcDbSymbolTableRecord
100
AcDbViewportTableRecord
  2
*Active
 70
     0
 10
0.0
 20
0.0
 11
1.0
 21
1.0
 12
0.0
 22
0.0
 13
0.0
 23
0.0
 14
1.0
 24
1.0
 15
0.0
 25
0.0
 16
0.0
 26
0.0
 36
1.0
 17
338.666666582
 27
-190.499999952375
 37
0.0
 40
388.619999902845
 41
1.777777777777777
 42
50.0
 43
0.0
 44
0.0
 50
0.0
 51
0.0
 71
     0
 72
   100
 73
     1
 74
     1
 75
     0
 76
     0
 77
     0
 78
     0
281
     0
 65
     1
110
0.0
120
0.0
130
0.0
111
1.0
121
0.0
131
0.0
112
0.0
122
1.0
132
0.0
 79
     0
146
0.0
 60
     3
 61
     5
292
     1
282
     1
141
0.0
142
0.0
 63
   250
421
  3355443
  0
ENDTAB
  0
TABLE
  2
LTYPE
  5
5
330
0
100
AcDbSymbolTable
 70
     1
  0
LTYPE
  5
5B
330
5
100
AcDbSymbolTableRecord
100
AcDbLinetypeTableRecord
  2
ByBlock
 70
     0
  3

 72
    65
 73
     0
 40
0.0
  0
LTYPE
  5
5C
330
5
100
AcDbSymbolTableRecord
100
AcDbLinetypeTableRecord
  2
ByLayer
 70
     0
  3

 72
    65
 73
     0
 40
0.0
  0
LTYPE
  5
5D
330
5
100
AcDbSymbolTableRecord
100
AcDbLinetypeTableRecord
  2
Continuous
 70
     0
  3
Solid line
 72
    65
 73
     0
 40
0.0
  0
ENDTAB
  0
TABLE
  2
LAYER
  5
2
330
0
100
AcDbSymbolTable
 70
     4
  0
LAYER
  5
54
330
2
100
AcDbSymbolTableRecord
100
AcDbLayerTableRecord
  2
0
 70
     0
 62
     7
  6
Continuous
370
    -3
390
F
347
21
348
0
  0
LAYER
  5
78
330
2
100
AcDbSymbolTableRecord
100
AcDbLayerTableRecord
  2
Engraving
 70
     0
 62
     7
  6
Continuous
370
     0
390
F
347
21
348
0
  0
LAYER
  5
97
330
2
100
AcDbSymbolTableRecord
100
AcDbLayerTableRecord
  2
Body
 70
     0
 62
     7
  6
Continuous
370
     0
390
F
347
21
348
0
  0
LAYER
  5
99
330
2
100
AcDbSymbolTableRecord
100
AcDbLayerTableRecord
  2
Handles
 70
     0
 62
     7
  6
Continuous
370
     0
390
F
347
21
348
0
  0
ENDTAB
  0
TABLE
  2
STYLE
  5
3
330
0
100
AcDbSymbolTable
 70
     2
  0
STYLE
  5
55
330
3
100
AcDbSymbolTableRecord
100
AcDbTextStyleTableRecord
  2
Standard
 70
     0
 40
0.0
 41
1.0
 50
0.0
 71
     0
 42
0.2
  3
txt
  4

  0
STYLE
  5
5A
330
3
100
AcDbSymbolTableRecord
100
AcDbTextStyleTableRecord
  2
Annotative
 70
     0
 40
0.0
 41
1.0
 50
0.0
 71
     0
 42
0.2
  3
txt
  4

1001
AcadAnnotative
1000
AnnotativeData
1002
{
1070
     1
1070
     1
1002
}
  0
ENDTAB
  0
TABLE
  2
VIEW
  5
6
330
0
100
AcDbSymbolTable
 70
     0
  0
ENDTAB
  0
TABLE
  2
UCS
  5
7
330
0
100
AcDbSymbolTable
 70
     0
  0
ENDTAB
  0
TABLE
  2
APPID
  5
9
330
0
100
AcDbSymbolTable
 70
     2
  0
APPID
  5
56
330
9
100
AcDbSymbolTableRecord
100
AcDbRegAppTableRecord
  2
ACAD
 70
     0
  0
APPID
  5
5E
330
9
100
AcDbSymbolTableRecord
100
AcDbRegAppTableRecord
  2
AcadAnnotative
 70
     0
  0
ENDTAB
  0
TABLE
  2
DIMSTYLE
  5
A
330
0
100
AcDbSymbolTable
 70
     2
100
AcDbDimStyleTable
 71
     0
  0
DIMSTYLE
105
58
330
A
100
AcDbSymbolTableRecord
100
AcDbDimStyleTableRecord
  2
Standard
 70
     0
340
55
  0
DIMSTYLE
105
59
330
A
100
AcDbSymbolTableRecord
100
AcDbDimStyleTableRecord
  2
Annotative
 70
     0
340
55
1001
AcadAnnotative
1000
AnnotativeData
1002
{
1070
     1
1070
     1
1002
}
  0
ENDTAB
  0
TABLE
  2
BLOCK_RECORD
  5
1
330
0
100
AcDbSymbolTable
 70
     1
  0
BLOCK_RECORD
  5
70
330
1
100
AcDbSymbolTableRecord
100
AcDbBlockTableRecord
  2
*Model_Space
340
73
 70
     0
280
     1
281
     0
  0
BLOCK_RECORD
  5
6C
330
1
100
AcDbSymbolTableRecord
100
AcDbBlockTableRecord
  2
*Paper_Space
340
6F
 70
     0
280
     1
281
     0
  0
BLOCK_RECORD
  5
74
330
1
100
AcDbSymbolTableRecord
100
AcDbBlockTableRecord
  2
*Paper_Space0
340
77
 70
     0
280
     1
281
     0
  0
ENDTAB
  0
ENDSEC
  0
SECTION
  2
BLOCKS
  0
BLOCK
  5
71
330
70
100
AcDbEntity
  8
0
100
AcDbBlockBegin
  2
*Model_Space
 70
     0
 10
0.0
 20
0.0
 30
0.0
  3
*Model_Space
  1

  0
ENDBLK
  5
72
330
70
100
AcDbEntity
  8
0
100
AcDbBlockEnd
  0
BLOCK
  5
6D
330
6C
100
AcDbEntity
 67
     1
  8
0
100
AcDbBlockBegin
  2
*Paper_Space
 70
     0
 10
0.0
 20
0.0
 30
0.0
  3
*Paper_Space
  1

  0
ENDBLK
  5
6E
330
6C
100
AcDbEntity
 67
     1
  8
0
100
AcDbBlockEnd
  0
BLOCK
  5
75
330
74
100
AcDbEntity
 67
     1
  8
0
100
AcDbBlockBegin
  2
*Paper_Space0
 70
     0
 10
0.0
 20
0.0
 30
0.0
  3
*Paper_Space0
  1

  0
ENDBLK
  5
76
330
74
100
AcDbEntity
 67
     1
  8
0
100
AcDbBlockEnd
  0
ENDSEC
  0
SECTION
  2
ENTITIES
  0
SPLINE
  5
79
330
70
100
AcDbEntity
  8
Engraving
100
AcDbSpline
210
0.0
220
0.0
230
1.0
 70
     9
 71
     3
 72
   152
 73
   148
 74
     0
 42
0.0000000001
 43
0.0000000001
 40
0.0
 40
0.0
 40
0.0
 40
0.0
 40
1.0
 40
1.0
 40
1.0
 40
2.0
 40
2.0
 40
2.0
 40
3.0
 40
3.0
 40
3.0
 40
4.0
 40
4.0
 40
4.0
 40
5.0
 40
5.0
 40
5.0
 40
6.0
 40
6.0
 40
6.0
 40
7.0
 40
7.0
 40
7.0
 40
8.0
 40
8.0
 40
8.0
 40
9.0
 40
9.0
 40
9.0
 40
10.0
 40
10.0
 40
10.0
 40
11.0
 40
11.0
 40
11.0
 40
12.0
 40
12.0
 40
12.0
 40
13.0
 40
13.0
 40
13.0
 40
14.0
 40
14.0
 40
14.0
 40
15.0
 40
15.0
 40
15.0
 40
16.0
 40
16.0
 40
16.0
 40
17.0
 40
17.0
 40
17.0
 40
18.0
 40
18.0
 40
18.0
 40
19.0
 40
19.0
 40
19.0
 40
20.0
 40
20.0
 40
20.0
 40
21.0
 40
21.0
 40
21.0
 40
22.0
 40
22.0
 40
22.0
 40
23.0
 40
23.0
 40
23.0
 40
24.0
 40
24.0
 40
24.0
 40
25.0
 40
25.0
 40
25.0
 40
26.0
 40
26.0
 40
26.0
 40
27.0
 40
27.0
 40
27.0
 40
28.0
 40
28.0
 40
28.0
 40
29.0
 40
29.0
 40
29.0
 40
30.0
 40
30.0
 40
30.0
 40
31.0
 40
31.0
 40
31.0
 40
32.0
 40
32.0
 40
32.0
 40
33.0
 40
33.0
 40
33.0
 40
34.0
 40
34.0
 40
34.0
 40
35.0
 40
35.0
 40
35.0
 40
36.0
 40
36.0
 40
36.0
 40
37.0
 40
37.0
 40
37.0
 40
38.0
 40
38.0
 40
38.0
 40
39.0
 40
39.0
 40
39.0
 40
40.0
 40
40.0
 40
40.0
 40
41.0
 40
41.0
 40
41.0
 40
42.0
 40
42.0
 40
42.0
 40
43.0
 40
43.0
 40
43.0
 40
44.0
 40
44.0
 40
44.0
 40
45.0
 40
45.0
 40
45.0
 40
46.0
 40
46.0
 40
46.0
 40
47.0
 40
47.0
 40
47.0
 40
48.0
 40
48.0
 40
48.0
 40
49.0
 40
49.0
 40
49.0
 40
49.0
 10
334.7835621810292
 20
-189.8858020015286
 30
0.0
 10
335.3424999048412
 20
-190.0850488536229
 30
0.0
 10
335.902889987303
 20
-190.2771391941118
 30
0.0
 10
336.4822382272513
 20
-190.4268157475227
 30
0.0
 10
336.4840906963018
 20
-190.4070217933165
 30
0.0
 10
336.4866510659489
 20
-190.3911039459616
 30
0.0
 10
336.4869152230497
 20
-190.3751483618214
 30
0.0
 10
336.4919025360533
 20
-190.073433336621
 30
0.0
 10
336.4964902440556
 20
-189.7717115727086
 30
0.0
 10
336.5016224391426
 20
-189.4699989060576
 30
0.0
 10
336.5020597808719
 20
-189.4442957757419
 30
0.0
 10
336.5008208705959
 20
-189.4264641343221
 30
0.0
 10
336.4682975384568
 20
-189.4181664219243
 30
0.0
 10
335.8766857040576
 20
-189.2672260231718
 30
0.0
 10
335.2975111541419
 20
-189.0762401574976
 30
0.0
 10
334.7220989897581
 20
-188.8732607331051
 30
0.0
 10
334.7188029223718
 20
-188.8720979684368
 30
0.0
 10
334.714975845304
 20
-188.8724396211094
 30
0.0
 10
334.7089750315898
 20
-188.8718344848174
 30
0.0
 10
334.713995027296
 20
-189.0200601936453
 30
0.0
 10
334.7241527775182
 20
-189.1679223489849
 30
0.0
 10
334.7225614331513
 20
-189.3156578165505
 30
0.0
 10
334.720962002342
 20
-189.4641281406044
 30
0.0
 10
334.707664691077
 20
-189.612472113817
 30
0.0
 10
334.6915480755577
 20
-189.759788770463
 30
0.0
 10
334.6055891988165
 20
-189.3509619260672
 30
0.0
 10
334.5196302378415
 20
-188.9421350816705
 30
0.0
 10
334.4333392273486
 20
-188.5317290202358
 30
0.0
 10
334.4395874356416
 20
-188.5336428143007
 30
0.0
 10
334.4527194802526
 20
-188.5368207906415
 30
0.0
 10
334.4652304692836
 20
-188.5416180793534
 30
0.0
 10
335.1503884529455
 20
-188.8043523540467
 30
0.0
 10
335.849364986438
 20
-189.0240292947132
 30
0.0
 10
336.5585981605952
 20
-189.2113701913419
 30
0.0
 10
336.5873983601379
 20
-189.2189771858119
 30
0.0
 10
336.62502053079
 20
-189.2160680840602
 30
0.0
 10
336.6521249360918
 20
-189.2038474307657
 30
0.0
 10
337.2282856017481
 20
-188.9440697657413
 30
0.0
 10
337.8033812156271
 20
-188.681928834595
 30
0.0
 10
338.3793845326025
 20
-188.421799745765
 30
0.0
 10
338.4077288589856
 20
-188.4089988894113
 30
0.0
 10
338.4427576403543
 20
-188.4044098268843
 30
0.0
 10
338.4741178726078
 20
-188.4061308937999
 30
0.0
 10
338.5636971167475
 20
-188.4110464468984
 30
0.0
 10
338.6529889552672
 20
-188.4211925878592
 30
0.0
 10
338.7544384221547
 20
-188.4303710498499
 30
0.0
 10
338.2617891368445
 20
-188.7517580585792
 30
0.0
 10
337.7769102482692
 20
-189.0680758715872
 30
0.0
 10
337.2920316966299
 20
-189.3843940215305
 30
0.0
 10
337.2924872328534
 20
-189.3893139547919
 30
0.0
 10
337.2929431060114
 20
-189.3942338880539
 30
0.0
 10
337.2933986422359
 20
-189.3991538213153
 30
0.0
 10
337.6021356222711
 20
-189.4600320148221
 30
0.0
 10
337.9108722653732
 20
-189.5209102083301
 30
0.0
 10
338.2234813033104
 20
-189.5825522347846
 30
0.0
 10
338.2234813033104
 20
-189.6240556219388
 30
0.0
 10
338.2234813033104
 20
-189.6676931590248
 30
0.0
 10
338.2234813033104
 20
-189.7201223560606
 30
0.0
 10
337.849664639358
 20
-189.6958303119314
 30
0.0
 10
337.4791394941709
 20
-189.6365060652954
 30
0.0
 10
337.1052268037224
 20
-189.5650329326423
 30
0.0
 10
337.1052268037224
 20
-189.9002086928309
 30
0.0
 10
337.1052268037224
 20
-190.2321047221336
 30
0.0
 10
337.1052268037224
 20
-190.5710935822204
 30
0.0
 10
337.2519461936312
 20
-190.5956016020527
 30
0.0
 10
337.3999462737672
 20
-190.6224782789753
 30
0.0
 10
337.5486320167841
 20
-190.6447840878917
 30
0.0
 10
338.1560009569748
 20
-190.7359022492273
 30
0.0
 10
338.7673625778226
 20
-190.7637661473829
 30
0.0
 10
339.3808222933925
 20
-190.7596521640157
 30
0.0
 10
339.4279932041162
 20
-190.7593361184465
 30
0.0
 10
339.4497679703769
 20
-190.7457299860699
 30
0.0
 10
339.4600465118236
 20
-190.7001419289426
 30
0.0
 10
339.5226867857839
 20
-190.4223257440552
 30
0.0
 10
339.587075078921
 20
-190.1449041107259
 30
0.0
 10
339.6509175372352
 20
-189.8673591589751
 30
0.0
 10
339.6558266813019
 20
-189.8460190074164
 30
0.0
 10
339.6610175030911
 20
-189.8247438844239
 30
0.0
 10
339.6720507791089
 20
-189.8035947753354
 30
0.0
 10
339.6963047136629
 20
-190.2513097129569
 30
0.0
 10
339.7114957685263
 20
-190.6989040276411
 30
0.0
 10
339.6876104409457
 20
-191.1520992223838
 30
0.0
 10
338.8988777724011
 20
-191.0916145696279
 30
0.0
 10
338.1179889524384
 20
-191.0215501646129
 30
0.0
 10
337.3416066391247
 20
-190.8558654651124
 30
0.0
 10
337.3625057111217
 20
-190.9674881777821
 30
0.0
 10
337.38698101202
 20
-191.0726464445142
 30
0.0
 10
337.4012815474763
 20
-191.1791706480688
 30
0.0
 10
337.4533696887078
 20
-191.5671890252421
 30
0.0
 10
337.5157205354367
 20
-191.9545092719062
 30
0.0
 10
337.5486731228631
 20
-192.3442507376089
 30
0.0
 10
337.5928237475603
 20
-192.8664402299824
 30
0.0
 10
337.6134475435983
 20
-193.3906237070853
 30
0.0
 10
337.643286513982
 20
-193.9140019081676
 30
0.0
 10
337.6451457217342
 20
-193.9466172717978
 30
0.0
 10
337.6490828081046
 20
-193.9658717921486
 30
0.0
 10
337.6886160745117
 20
-193.9741152579188
 30
0.0
 10
338.1747389273896
 20
-194.075480977823
 30
0.0
 10
338.6530772322576
 20
-194.2063629279424
 30
0.0
 10
339.1256505779641
 20
-194.3586140060805
 30
0.0
 10
339.1374972152571
 20
-194.3624301383982
 30
0.0
 10
339.1499793121045
 20
-194.3642725021205
 30
0.0
 10
339.1692028059641
 20
-194.3686311007152
 30
0.0
 10
339.1171146647332
 20
-193.3053837237865
 30
0.0
 10
339.189561097163
 20
-192.2511547644497
 30
0.0
 10
339.2826010014733
 20
-191.1922787896665
 30
0.0
 10
339.3826538724699
 20
-191.1974042536283
 30
0.0
 10
339.4775280513368
 20
-191.2022642123583
 30
0.0
 10
339.5832333451783
 20
-191.2076787670429
 30
0.0
 10
339.4607432935629
 20
-192.3925491044995
 30
0.0
 10
339.4456317553763
 20
-193.5746451144331
 30
0.0
 10
339.5548647594687
 20
-194.7678984089862
 30
0.0
 10
339.4573995498611
 20
-194.7404395073913
 30
0.0
 10
339.368293025635
 20
-194.7163391796033
 30
0.0
 10
339.2797761377914
 20
-194.6902367806326
 30
0.0
 10
338.5713903553521
 20
-194.481338072064
 30
0.0
 10
337.8654241036963
 20
-194.2637652940603
 30
0.0
 10
337.15399748219
 20
-194.0658102529589
 30
0.0
 10
336.6799453284315
 20
-193.9339046925631
 30
0.0
 10
336.198152091288
 20
-193.8298205764424
 30
0.0
 10
335.7198505123438
 20
-193.7131734804836
 30
0.0
 10
335.7040713373045
 20
-193.709324328478
 30
0.0
 10
335.688592202951
 20
-193.7042440138824
 30
0.0
 10
335.6729730720724
 20
-193.6997378375075
 30
0.0
 10
335.6737059058639
 20
-193.694613721287
 30
0.0
 10
335.6744387396552
 20
-193.6894896050671
 30
0.0
 10
335.675171573447
 20
-193.6843654888459
 30
0.0
 10
336.1289907758555
 20
-193.7366942790816
 30
0.0
 10
336.5828099782639
 20
-193.7890237431865
 30
0.0
 10
337.0431215826641
 20
-193.8421012042697
 30
0.0
 10
337.0503181789645
 20
-193.7458777951063
 30
0.0
 10
337.0600434730166
 20
-193.6456846110019
 30
0.0
 10
337.0649671052905
 20
-193.5452562458646
 30
0.0
 10
337.1020326591964
 20
-192.7891714685081
 30
0.0
 10
337.0419537656884
 20
-192.0416293557122
 30
0.0
 10
336.8565292957899
 20
-191.3066057472588
 30
0.0
 10
336.8076073334748
 20
-191.1126804556287
 30
0.0
 10
336.7412685231764
 20
-190.9231771064828
 30
0.0
 10
336.684571783968
 20
-190.731157522464
 30
0.0
 10
336.6740277376814
 20
-190.6954470686441
 30
0.0
 10
336.6546074737357
 20
-190.678314568543
 30
0.0
 10
336.6189974793609
 20
-190.6675811488751
 30
0.0
 10
335.9849085767909
 20
-190.4764537702582
 30
0.0
 10
335.3828642216154
 20
-190.2094623145794
 30
0.0
 10
334.8004835659783
 20
-189.8962574493456
 30
0.0
 10
334.7946544206849
 20
-189.8931229376945
 30
0.0
 10
334.7891943877694
 20
-189.8893020882777
 30
0.0
 10
334.7835621810292
 20
-189.8858020015286
 30
0.0
  0
HATCH
  5
7A
330
70
100
AcDbEntity
  8
Engraving
 62
     7
440
 33554687
100
AcDbHatch
 10
0.0
 20
0.0
 30
0.0
210
0.0
220
0.0
230
1.0
  2
SOLID
 70
     1
 71
     1
 91
        1
 92
        1
 93
        1
 72
     4
 94
        3
 73
     0
 74
     0
 95
      152
 96
      148
 40
0.0
 40
0.0
 40
0.0
 40
0.0
 40
1.0
 40
1.0
 40
1.0
 40
2.0
 40
2.0
 40
2.0
 40
3.0
 40
3.0
 40
3.0
 40
4.0
 40
4.0
 40
4.0
 40
5.0
 40
5.0
 40
5.0
 40
6.0
 40
6.0
 40
6.0
 40
7.0
 40
7.0
 40
7.0
 40
8.0
 40
8.0
 40
8.0
 40
9.0
 40
9.0
 40
9.0
 40
10.0
 40
10.0
 40
10.0
 40
11.0
 40
11.0
 40
11.0
 40
12.0
 40
12.0
 40
12.0
 40
13.0
 40
13.0
 40
13.0
 40
14.0
 40
14.0
 40
14.0
 40
15.0
 40
15.0
 40
15.0
 40
16.0
 40
16.0
 40
16.0
 40
17.0
 40
17.0
 40
17.0
 40
18.0
 40
18.0
 40
18.0
 40
19.0
 40
19.0
 40
19.0
 40
20.0
 40
20.0
 40
20.0
 40
21.0
 40
21.0
 40
21.0
 40
22.0
 40
22.0
 40
22.0
 40
23.0
 40
23.0
 40
23.0
 40
24.0
 40
24.0
 40
24.0
 40
25.0
 40
25.0
 40
25.0
 40
26.0
 40
26.0
 40
26.0
 40
27.0
 40
27.0
 40
27.0
 40
28.0
 40
28.0
 40
28.0
 40
29.0
 40
29.0
 40
29.0
 40
30.0
 40
30.0
 40
30.0
 40
31.0
 40
31.0
 40
31.0
 40
32.0
 40
32.0
 40
32.0
 40
33.0
 40
33.0
 40
33.0
 40
34.0
 40
34.0
 40
34.0
 40
35.0
 40
35.0
 40
35.0
 40
36.0
 40
36.0
 40
36.0
 40
37.0
 40
37.0
 40
37.0
 40
38.0
 40
38.0
 40
38.0
 40
39.0
 40
39.0
 40
39.0
 40
40.0
 40
40.0
 40
40.0
 40
41.0
 40
41.0
 40
41.0
 40
42.0
 40
42.0
 40
42.0
 40
43.0
 40
43.0
 40
43.0
 40
44.0
 40
44.0
 40
44.0
 40
45.0
 40
45.0
 40
45.0
 40
46.0
 40
46.0
 40
46.0
 40
47.0
 40
47.0
 40
47.0
 40
48.0
 40
48.0
 40
48.0
 40
49.0
 40
49.0
 40
49.0
 40
49.0
 10
334.7835621810292
 20
-189.8858020015286
 10
335.3424999048412
 20
-190.0850488536229
 10
335.902889987303
 20
-190.2771391941118
 10
336.4822382272513
 20
-190.4268157475227
 10
336.4840906963018
 20
-190.4070217933165
 10
336.4866510659489
 20
-190.3911039459616
 10
336.4869152230497
 20
-190.3751483618214
 10
336.4919025360533
 20
-190.073433336621
 10
336.4964902440556
 20
-189.7717115727086
 10
336.5016224391426
 20
-189.4699989060576
 10
336.5020597808719
 20
-189.4442957757419
 10
336.5008208705959
 20
-189.4264641343221
 10
336.4682975384568
 20
-189.4181664219243
 10
335.8766857040576
 20
-189.2672260231718
 10
335.2975111541419
 20
-189.0762401574976
 10
334.7220989897581
 20
-188.8732607331051
 10
334.7188029223718
 20
-188.8720979684368
 10
334.714975845304
 20
-188.8724396211094
 10
334.7089750315898
 20
-188.8718344848174
 10
334.713995027296
 20
-189.0200601936453
 10
334.7241527775182
 20
-189.1679223489849
 10
334.7225614331513
 20
-189.3156578165505
 10
334.720962002342
 20
-189.4641281406044
 10
334.707664691077
 20
-189.612472113817
 10
334.6915480755577
 20
-189.759788770463
 10
334.6055891988165
 20
-189.3509619260672
 10
334.5196302378415
 20
-188.9421350816705
 10
334.4333392273486
 20
-188.5317290202358
 10
334.4395874356416
 20
-188.5336428143007
 10
334.4527194802526
 20
-188.5368207906415
 10
334.4652304692836
 20
-188.5416180793534
 10
335.1503884529455
 20
-188.8043523540467
 10
335.849364986438
 20
-189.0240292947132
 10
336.5585981605952
 20
-189.2113701913419
 10
336.5873983601379
 20
-189.2189771858119
 10
336.62502053079
 20
-189.2160680840602
 10
336.6521249360918
 20
-189.2038474307657
 10
337.2282856017481
 20
-188.9440697657413
 10
337.8033812156271
 20
-188.681928834595
 10
338.3793845326025
 20
-188.421799745765
 10
338.4077288589856
 20
-188.4089988894113
 10
338.4427576403543
 20
-188.4044098268843
 10
338.4741178726078
 20
-188.4061308937999
 10
338.5636971167475
 20
-188.4110464468984
 10
338.6529889552672
 20
-188.4211925878592
 10
338.7544384221547
 20
-188.4303710498499
 10
338.2617891368445
 20
-188.7517580585792
 10
337.7769102482692
 20
-189.0680758715872
 10
337.2920316966299
 20
-189.3843940215305
 10
337.2924872328534
 20
-189.3893139547919
 10
337.2929431060114
 20
-189.3942338880539
 10
337.2933986422359
 20
-189.3991538213153
 10
337.6021356222711
 20
-189.4600320148221
 10
337.9108722653732
 20
-189.5209102083301
 10
338.2234813033104
 20
-189.5825522347846
 10
338.2234813033104
 20
-189.6240556219388
 10
338.2234813033104
 20
-189.6676931590248
 10
338.2234813033104
 20
-189.7201223560606
 10
337.849664639358
 20
-189.6958303119314
 10
337.4791394941709
 20
-189.6365060652954
 10
337.1052268037224
 20
-189.5650329326423
 10
337.1052268037224
 20
-189.9002086928309
 10
337.1052268037224
 20
-190.2321047221336
 10
337.1052268037224
 20
-190.5710935822204
 10
337.2519461936312
 20
-190.5956016020527
 10
337.3999462737672
 20
-190.6224782789753
 10
337.5486320167841
 20
-190.6447840878917
 10
338.1560009569748
 20
-190.7359022492273
 10
338.7673625778226
 20
-190.7637661473829
 10
339.3808222933925
 20
-190.7596521640157
 10
339.4279932041162
 20
-190.7593361184465
 10
339.4497679703769
 20
-190.7457299860699
 10
339.4600465118236
 20
-190.7001419289426
 10
339.5226867857839
 20
-190.4223257440552
 10
339.587075078921
 20
-190.1449041107259
 10
339.6509175372352
 20
-189.8673591589751
 10
339.6558266813019
 20
-189.8460190074164
 10
339.6610175030911
 20
-189.8247438844239
 10
339.6720507791089
 20
-189.8035947753354
 10
339.6963047136629
 20
-190.2513097129569
 10
339.7114957685263
 20
-190.6989040276411
 10
339.6876104409457
 20
-191.1520992223838
 10
338.8988777724011
 20
-191.0916145696279
 10
338.1179889524384
 20
-191.0215501646129
 10
337.3416066391247
 20
-190.8558654651124
 10
337.3625057111217
 20
-190.9674881777821
 10
337.38698101202
 20
-191.0726464445142
 10
337.4012815474763
 20
-191.1791706480688
 10
337.4533696887078
 20
-191.5671890252421
 10
337.5157205354367
 20
-191.9545092719062
 10
337.5486731228631
 20
-192.3442507376089
 10
337.5928237475603
 20
-192.8664402299824
 10
337.6134475435983
 20
-193.3906237070853
 10
337.643286513982
 20
-193.9140019081676
 10
337.6451457217342
 20
-193.9466172717978
 10
337.6490828081046
 20
-193.9658717921486
 10
337.6886160745117
 20
-193.9741152579188
 10
338.1747389273896
 20
-194.075480977823
 10
338.6530772322576
 20
-194.2063629279424
 10
339.1256505779641
 20
-194.3586140060805
 10
339.1374972152571
 20
-194.3624301383982
 10
339.1499793121045
 20
-194.3642725021205
 10
339.1692028059641
 20
-194.3686311007152
 10
339.1171146647332
 20
-193.3053837237865
 10
339.189561097163
 20
-192.2511547644497
 10
339.2826010014733
 20
-191.1922787896665
 10
339.3826538724699
 20
-191.1974042536283
 10
339.4775280513368
 20
-191.2022642123583
 10
339.5832333451783
 20
-191.2076787670429
 10
339.4607432935629
 20
-192.3925491044995
 10
339.4456317553763
 20
-193.5746451144331
 10
339.5548647594687
 20
-194.7678984089862
 10
339.4573995498611
 20
-194.7404395073913
 10
339.368293025635
 20
-194.7163391796033
 10
339.2797761377914
 20
-194.6902367806326
 10
338.5713903553521
 20
-194.481338072064
 10
337.8654241036963
 20
-194.2637652940603
 10
337.15399748219
 20
-194.0658102529589
 10
336.6799453284315
 20
-193.9339046925631
 10
336.198152091288
 20
-193.8298205764424
 10
335.7198505123438
 20
-193.7131734804836
 10
335.7040713373045
 20
-193.709324328478
 10
335.688592202951
 20
-193.7042440138824
 10
335.6729730720724
 20
-193.6997378375075
 10
335.6737059058639
 20
-193.694613721287
 10
335.6744387396552
 20
-193.6894896050671
 10
335.675171573447
 20
-193.6843654888459
 10
336.1289907758555
 20
-193.7366942790816
 10
336.5828099782639
 20
-193.7890237431865
 10
337.0431215826641
 20
-193.8421012042697
 10
337.0503181789645
 20
-193.7458777951063
 10
337.0600434730166
 20
-193.6456846110019
 10
337.0649671052905
 20
-193.5452562458646
 10
337.1020326591964
 20
-192.7891714685081
 10
337.0419537656884
 20
-192.0416293557122
 10
336.8565292957899
 20
-191.3066057472588
 10
336.8076073334748
 20
-191.1126804556287
 10
336.7412685231764
 20
-190.9231771064828
 10
336.684571783968
 20
-190.731157522464
 10
336.6740277376814
 20
-190.6954470686441
 10
336.6546074737357
 20
-190.678314568543
 10
336.6189974793609
 20
-190.6675811488751
 10
335.9849085767909
 20
-190.4764537702582
 10
335.3828642216154
 20
-190.2094623145794
 10
334.8004835659783
 20
-189.8962574493456
 10
334.7946544206849
 20
-189.8931229376945
 10
334.7891943877694
 20
-189.8893020882777
 10
334.7835621810292
 20
-189.8858020015286
 97
        0
 97
        1
330
79
 75
     2
 76
     1
 98
        1
 10
0.0
 20
0.0
450
        0
451
        0
460
0.0
461
0.0
452
        0
462
0.0
453
        0
470

  0
SPLINE
  5
7B
330
70
100
AcDbEntity
  8
Engraving
100
AcDbSpline
210
0.0
220
0.0
230
1.0
 70
     9
 71
     3
 72
   173
 73
   169
 74
     0
 42
0.0000000001
 43
0.0000000001
 40
0.0
 40
0.0
 40
0.0
 40
0.0
 40
1.0
 40
1.0
 40
1.0
 40
2.0
 40
2.0
 40
2.0
 40
3.0
 40
3.0
 40
3.0
 40
4.0
 40
4.0
 40
4.0
 40
5.0
 40
5.0
 40
5.0
 40
6.0
 40
6.0
 40
6.0
 40
7.0
 40
7.0
 40
7.0
 40
8.0
 40
8.0
 40
8.0
 40
9.0
 40
9.0
 40
9.0
 40
10.0
 40
10.0
 40
10.0
 40
11.0
 40
11.0
 40
11.0
 40
12.0
 40
12.0
 40
12.0
 40
13.0
 40
13.0
 40
13.0
 40
14.0
 40
14.0
 40
14.0
 40
15.0
 40
15.0
 40
15.0
 40
16.0
 40
16.0
 40
16.0
 40
17.0
 40
17.0
 40
17.0
 40
18.0
 40
18.0
 40
18.0
 40
19.0
 40
19.0
 40
19.0
 40
20.0
 40
20.0
 40
20.0
 40
21.0
 40
21.0
 40
21.0
 40
22.0
 40
22.0
 40
22.0
 40
23.0
 40
23.0
 40
23.0
 40
24.0
 40
24.0
 40
24.0
 40
25.0
 40
25.0
 40
25.0
 40
26.0
 40
26.0
 40
26.0
 40
27.0
 40
27.0
 40
27.0
 40
28.0
 40
28.0
 40
28.0
 40
29.0
 40
29.0
 40
29.0
 40
30.0
 40
30.0
 40
30.0
 40
31.0
 40
31.0
 40
31.0
 40
32.0
 40
32.0
 40
32.0
 40
33.0
 40
33.0
 40
33.0
 40
34.0
 40
34.0
 40
34.0
 40
35.0
 40
35.0
 40
35.0
 40
36.0
 40
36.0
 40
36.0
 40
37.0
 40
37.0
 40
37.0
 40
38.0
 40
38.0
 40
38.0
 40
39.0
 40
39.0
 40
39.0
 40
40.0
 40
40.0
 40
40.0
 40
41.0
 40
41.0
 40
41.0
 40
42.0
 40
42.0
 40
42.0
 40
43.0
 40
43.0
 40
43.0
 40
44.0
 40
44.0
 40
44.0
 40
45.0
 40
45.0
 40
45.0
 40
46.0
 40
46.0
 40
46.0
 40
47.0
 40
47.0
 40
47.0
 40
48.0
 40
48.0
 40
48.0
 40
49.0
 40
49.0
 40
49.0
 40
50.0
 40
50.0
 40
50.0
 40
51.0
 40
51.0
 40
51.0
 40
52.0
 40
52.0
 40
52.0
 40
53.0
 40
53.0
 40
53.0
 40
54.0
 40
54.0
 40
54.0
 40
55.0
 40
55.0
 40
55.0
 40
56.0
 40
56.0
 40
56.0
 40
56.0
 10
342.4408774409692
 20
-189.4465289847313
 30
0.0
 10
342.39654621907
 20
-189.6428586486208
 30
0.0
 10
342.3525600186913
 20
-189.8392674923707
 30
0.0
 10
342.3078163882591
 20
-190.0355028143001
 30
0.0
 10
342.1904760523534
 20
-190.5501334939908
 30
0.0
 10
342.0775178940541
 20
-191.066217039879
 30
0.0
 10
342.0309352719755
 20
-191.5926269872616
 30
0.0
 10
341.9977256030857
 20
-191.9679132429381
 30
0.0
 10
341.9867004135097
 20
-192.3452197643226
 30
0.0
 10
341.9695059426801
 20
-192.7217958093798
 30
0.0
 10
341.9671696348582
 20
-192.77294397736
 30
0.0
 10
341.9526598627201
 20
-192.8054056983688
 30
0.0
 10
341.9127276651808
 20
-192.8365904335475
 30
0.0
 10
341.3067256705968
 20
-193.3098359904713
 30
0.0
 10
340.7016569861733
 20
-193.7842783425527
 30
0.0
 10
340.0968025924608
 20
-194.2589909169679
 30
0.0
 10
339.9536503342077
 20
-194.3713407366079
 30
0.0
 10
339.8120857140341
 20
-194.4857121696945
 30
0.0
 10
339.6616206168784
 20
-194.593602983939
 30
0.0
 10
339.6732287041364
 20
-194.5771692882193
 30
0.0
 10
339.6843239762089
 20
-194.5603447472328
 30
0.0
 10
339.6965216998526
 20
-194.5443611974401
 30
0.0
 10
339.9382921595446
 20
-194.2275157433219
 30
0.0
 10
340.2126348069626
 20
-193.9403327494584
 30
0.0
 10
340.5000067337916
 20
-193.6652248527204
 30
0.0
 10
340.5277735534539
 20
-193.6386426574892
 30
0.0
 10
340.5376801185759
 20
-193.6121837806791
 30
0.0
 10
340.5382407785435
 20
-193.5742886365949
 30
0.0
 10
340.5473602633271
 20
-192.9580698595196
 30
0.0
 10
340.5479034026714
 20
-192.3414716929877
 30
0.0
 10
340.5723001976982
 20
-191.7258277280056
 30
0.0
 10
340.5863935180814
 20
-191.3701908811729
 30
0.0
 10
340.6395618731685
 20
-191.0161032641122
 30
0.0
 10
340.6750377673831
 20
-190.6613074084745
 30
0.0
 10
340.6757385923423
 20
-190.6542978007783
 30
0.0
 10
340.6751253705035
 20
-190.6471574620796
 30
0.0
 10
340.6751253705035
 20
-190.6433130271715
 30
0.0
 10
340.4234065657399
 20
-190.767046552138
 30
0.0
 10
340.171728193184
 20
-190.890760534841
 30
0.0
 10
339.9200498206287
 20
-191.0144738436729
 30
0.0
 10
339.9175201120727
 20
-191.0100876163622
 30
0.0
 10
339.9149904035188
 20
-191.0057013890508
 30
0.0
 10
339.9124606949628
 20
-191.0013144878676
 30
0.0
 10
339.9221853151429
 20
-190.9936754845178
 30
0.0
 10
339.9316100631067
 20
-190.985615985572
 30
0.0
 10
339.9416770093254
 20
-190.9784581262227
 30
0.0
 10
340.3028060460322
 20
-190.7216566131294
 30
0.0
 10
340.6642747132964
 20
-190.465330179195
 30
0.0
 10
341.0243889015516
 20
-190.2071135366877
 30
0.0
 10
341.0432458100489
 20
-190.1935929859464
 30
0.0
 10
341.0605224930371
 20
-190.1647381602658
 30
0.0
 10
341.0619396419688
 20
-190.1419889441328
 30
0.0
 10
341.0848161859302
 20
-189.7748083475758
 30
0.0
 10
341.1052283867408
 20
-189.4074727606551
 30
0.0
 10
341.1254788587135
 20
-189.0401327935711
 30
0.0
 10
341.1277983197795
 20
-188.9980562790028
 30
0.0
 10
341.1257935560765
 20
-188.955741550984
 30
0.0
 10
341.1257935560765
 20
-188.9035883041833
 30
0.0
 10
340.7148789924515
 20
-189.1738473610667
 30
0.0
 10
340.2943611052709
 20
-189.4215903612342
 30
0.0
 10
339.8419887020825
 20
-189.6229026284031
 30
0.0
 10
340.2374743346793
 20
-189.330205346923
 30
0.0
 10
340.628159990176
 20
-189.0410613880145
 30
0.0
 10
341.0188449718028
 20
-188.7519170921705
 30
0.0
 10
341.0160457151853
 20
-188.7459021182908
 30
0.0
 10
341.0132464585691
 20
-188.7398874813471
 30
0.0
 10
341.0104472019522
 20
-188.7338725074681
 30
0.0
 10
340.3722389311346
 20
-188.5956790553775
 30
0.0
 10
339.7340313341909
 20
-188.457485940223
 30
0.0
 10
339.095823737244
 20
-188.3192924881331
 30
0.0
 10
339.2580822359501
 20
-188.2663737237086
 30
0.0
 10
339.4215429190114
 20
-188.2548801773836
 30
0.0
 10
339.5889342866732
 20
-188.2627883922566
 30
0.0
 10
339.9674727587881
 20
-188.2806722586906
 30
0.0
 10
340.3463319930971
 20
-188.2917409292551
 30
0.0
 10
340.7250530840232
 20
-188.3057830562666
 30
0.0
 10
340.9695722600715
 20
-188.3148493187104
 30
0.0
 10
341.2140651551823
 20
-188.324683457329
 30
0.0
 10
341.4586153292566
 20
-188.3327796822528
 30
0.0
 10
341.4788085222677
 20
-188.3334481624329
 30
0.0
 10
341.5055470160762
 20
-188.3299487495543
 30
0.0
 10
341.5188168671333
 20
-188.3173786940702
 30
0.0
 10
341.7417540037849
 20
-188.1061958992396
 30
0.0
 10
341.963054983704
 20
-187.8932849618481
 30
0.0
 10
342.1845587985393
 20
-187.6805913479027
 30
0.0
 10
342.1907267320523
 20
-187.6746686943706
 30
0.0
 10
342.1951271041508
 20
-187.6669046879224
 30
0.0
 10
342.204208852206
 20
-187.6548986625897
 30
0.0
 10
341.9794057690997
 20
-187.6407204136062
 30
0.0
 10
341.7619822380432
 20
-187.6270078095878
 30
0.0
 10
341.5448882294905
 20
-187.6133157586387
 30
0.0
 10
341.5448882294905
 20
-187.5315793999125
 30
0.0
 10
341.5448882294905
 20
-187.4566931098875
 30
0.0
 10
341.5448882294905
 20
-187.3782674801187
 30
0.0
 10
341.9947342934747
 20
-187.4042174157425
 30
0.0
 10
342.4394367065804
 20
-187.4298705111253
 30
0.0
 10
342.8999939366515
 20
-187.4564383865926
 30
0.0
 10
342.8543176699276
 20
-187.4985974503764
 30
0.0
 10
342.8160795819559
 20
-187.5324352162714
 30
0.0
 10
342.7794466526862
 20
-187.5679296943883
 30
0.0
 10
342.4341434565293
 20
-187.902493411105
 30
0.0
 10
342.0688114916761
 20
-188.2135957983525
 30
0.0
 10
341.6866577061878
 20
-188.5052512750345
 30
0.0
 10
341.6661720535322
 20
-188.5208854226367
 30
0.0
 10
341.6449181889001
 20
-188.5499333124008
 30
0.0
 10
341.6434592600187
 20
-188.5739194190282
 30
0.0
 10
341.6211170950888
 20
-188.9411451649515
 30
0.0
 10
341.6019212299035
 20
-189.3085633010897
 30
0.0
 10
341.5823412587326
 20
-189.6759548193162
 30
0.0
 10
341.5809072630488
 20
-189.7028574402776
 30
0.0
 10
341.5821532489616
 20
-189.7299029219232
 30
0.0
 10
341.5821532489616
 20
-189.7652606041956
 30
0.0
 10
341.5969642410579
 20
-189.755239803269
 30
0.0
 10
341.6058424803262
 20
-189.7502133983658
 30
0.0
 10
341.613612203194
 20
-189.7438365556788
 30
0.0
 10
341.9550965771945
 20
-189.4635674798077
 30
0.0
 10
342.2893449334913
 20
-189.175146247707
 30
0.0
 10
342.5990462217148
 20
-188.8595754208677
 30
0.0
 10
342.6228837045159
 20
-188.8352864091591
 30
0.0
 10
342.6421112415953
 20
-188.7996881548861
 30
0.0
 10
342.6488034460875
 20
-188.7663958876857
 30
0.0
 10
342.72632075142
 20
-188.3807832305151
 30
0.0
 10
342.8009626528088
 20
-187.9945927288339
 30
0.0
 10
342.8766463574535
 20
-187.6086106218053
 30
0.0
 10
342.8790500522913
 20
-187.5963539164052
 30
0.0
 10
342.8844511215686
 20
-187.5846851635829
 30
0.0
 10
342.8934223549183
 20
-187.5579230447553
 30
0.0
 10
342.885550877658
 20
-187.7401372981459
 30
0.0
 10
342.8786861624083
 20
-187.9066151439898
 30
0.0
 10
342.8710956890017
 20
-188.073059970147
 30
0.0
 10
342.8579370265195
 20
-188.3615954234081
 30
0.0
 10
342.8434029950558
 20
-188.6500742714921
 30
0.0
 10
342.831965396946
 20
-188.938676437996
 30
0.0
 10
342.8303561950202
 20
-188.9792852612017
 30
0.0
 10
342.8167325621331
 20
-189.0058091665774
 30
0.0
 10
342.7873262163889
 20
-189.0325581449156
 30
0.0
 10
342.3256523834738
 20
-189.4525284595742
 30
0.0
 10
341.8506103144622
 20
-189.8559424339626
 30
0.0
 10
341.3391765616945
 20
-190.2150476956007
 30
0.0
 10
341.3182427853846
 20
-190.2297468469819
 30
0.0
 10
341.3033596891813
 20
-190.2605097388232
 30
0.0
 10
341.2964545417212
 20
-190.2866421250608
 30
0.0
 10
341.1641084652444
 20
-190.7874830424865
 30
0.0
 10
341.0758260842158
 20
-191.2966344758604
 30
0.0
 10
341.0421858122985
 20
-191.8131162795977
 30
0.0
 10
341.0130287985094
 20
-192.2607648409105
 30
0.0
 10
341.0036370701842
 20
-192.7097018438601
 30
0.0
 10
340.9857161673311
 20
-193.1580775121439
 30
0.0
 10
340.985165615415
 20
-193.1718534600504
 30
0.0
 10
340.9869122868532
 20
-193.1857217283044
 30
0.0
 10
340.9879999132798
 20
-193.2079776707558
 30
0.0
 10
341.0040144374719
 20
-193.194678149751
 30
0.0
 10
341.0137026686636
 20
-193.1872790445315
 30
0.0
 10
341.0226691849216
 20
-193.1790888145814
 30
0.0
 10
341.2087840347914
 20
-193.0090967306931
 30
0.0
 10
341.3954986290986
 20
-192.8397468460127
 30
0.0
 10
341.5798890452466
 20
-192.6679036380777
 30
0.0
 10
341.6000195683336
 20
-192.6491423914076
 30
0.0
 10
341.6164114598102
 20
-192.6165533087515
 30
0.0
 10
341.6181749779998
 20
-192.589317458506
 30
0.0
 10
341.6846691153649
 20
-191.5623634339408
 30
0.0
 10
341.9293412599396
 20
-190.5794239773694
 30
0.0
 10
342.3433293453342
 20
-189.6380091348944
 30
0.0
 10
342.3720456480401
 20
-189.5727096727764
 30
0.0
 10
342.4031629501059
 20
-189.508465829814
 30
0.0
 10
342.433162975455
 20
-189.4437310717183
 30
0.0
 10
342.4357344639593
 20
-189.4446637093896
 30
0.0
 10
342.4383059524629
 20
-189.4455963470603
 30
0.0
 10
342.4408774409692
 20
-189.4465289847313
 30
0.0
  0
HATCH
  5
7C
330
70
100
AcDbEntity
  8
Engraving
 62
     7
440
 33554687
100
AcDbHatch
 10
0.0
 20
0.0
 30
0.0
210
0.0
220
0.0
230
1.0
  2
SOLID
 70
     1
 71
     1
 91
        1
 92
        1
 93
        1
 72
     4
 94
        3
 73
     0
 74
     0
 95
      173
 96
      169
 40
0.0
 40
0.0
 40
0.0
 40
0.0
 40
1.0
 40
1.0
 40
1.0
 40
2.0
 40
2.0
 40
2.0
 40
3.0
 40
3.0
 40
3.0
 40
4.0
 40
4.0
 40
4.0
 40
5.0
 40
5.0
 40
5.0
 40
6.0
 40
6.0
 40
6.0
 40
7.0
 40
7.0
 40
7.0
 40
8.0
 40
8.0
 40
8.0
 40
9.0
 40
9.0
 40
9.0
 40
10.0
 40
10.0
 40
10.0
 40
11.0
 40
11.0
 40
11.0
 40
12.0
 40
12.0
 40
12.0
 40
13.0
 40
13.0
 40
13.0
 40
14.0
 40
14.0
 40
14.0
 40
15.0
 40
15.0
 40
15.0
 40
16.0
 40
16.0
 40
16.0
 40
17.0
 40
17.0
 40
17.0
 40
18.0
 40
18.0
 40
18.0
 40
19.0
 40
19.0
 40
19.0
 40
20.0
 40
20.0
 40
20.0
 40
21.0
 40
21.0
 40
21.0
 40
22.0
 40
22.0
 40
22.0
 40
23.0
 40
23.0
 40
23.0
 40
24.0
 40
24.0
 40
24.0
 40
25.0
 40
25.0
 40
25.0
 40
26.0
 40
26.0
 40
26.0
 40
27.0
 40
27.0
 40
27.0
 40
28.0
 40
28.0
 40
28.0
 40
29.0
 40
29.0
 40
29.0
 40
30.0
 40
30.0
 40
30.0
 40
31.0
 40
31.0
 40
31.0
 40
32.0
 40
32.0
 40
32.0
 40
33.0
 40
33.0
 40
33.0
 40
34.0
 40
34.0
 40
34.0
 40
35.0
 40
35.0
 40
35.0
 40
36.0
 40
36.0
 40
36.0
 40
37.0
 40
37.0
 40
37.0
 40
38.0
 40
38.0
 40
38.0
 40
39.0
 40
39.0
 40
39.0
 40
40.0
 40
40.0
 40
40.0
 40
41.0
 40
41.0
 40
41.0
 40
42.0
 40
42.0
 40
42.0
 40
43.0
 40
43.0
 40
43.0
 40
44.0
 40
44.0
 40
44.0
 40
45.0
 40
45.0
 40
45.0
 40
46.0
 40
46.0
 40
46.0
 40
47.0
 40
47.0
 40
47.0
 40
48.0
 40
48.0
 40
48.0
 40
49.0
 40
49.0
 40
49.0
 40
50.0
 40
50.0
 40
50.0
 40
51.0
 40
51.0
 40
51.0
 40
52.0
 40
52.0
 40
52.0
 40
53.0
 40
53.0
 40
53.0
 40
54.0
 40
54.0
 40
54.0
 40
55.0
 40
55.0
 40
55.0
 40
56.0
 40
56.0
 40
56.0
 40
56.0
 10
342.4408774409692
 20
-189.4465289847313
 10
342.39654621907
 20
-189.6428586486208
 10
342.3525600186913
 20
-189.8392674923707
 10
342.3078163882591
 20
-190.0355028143001
 10
342.1904760523534
 20
-190.5501334939908
 10
342.0775178940541
 20
-191.066217039879
 10
342.0309352719755
 20
-191.5926269872616
 10
341.9977256030857
 20
-191.9679132429381
 10
341.9867004135097
 20
-192.3452197643226
 10
341.9695059426801
 20
-192.7217958093798
 10
341.9671696348582
 20
-192.77294397736
 10
341.9526598627201
 20
-192.8054056983688
 10
341.9127276651808
 20
-192.8365904335475
 10
341.3067256705968
 20
-193.3098359904713
 10
340.7016569861733
 20
-193.7842783425527
 10
340.0968025924608
 20
-194.2589909169679
 10
339.9536503342077
 20
-194.3713407366079
 10
339.8120857140341
 20
-194.4857121696945
 10
339.6616206168784
 20
-194.593602983939
 10
339.6732287041364
 20
-194.5771692882193
 10
339.6843239762089
 20
-194.5603447472328
 10
339.6965216998526
 20
-194.5443611974401
 10
339.9382921595446
 20
-194.2275157433219
 10
340.2126348069626
 20
-193.9403327494584
 10
340.5000067337916
 20
-193.6652248527204
 10
340.5277735534539
 20
-193.6386426574892
 10
340.5376801185759
 20
-193.6121837806791
 10
340.5382407785435
 20
-193.5742886365949
 10
340.5473602633271
 20
-192.9580698595196
 10
340.5479034026714
 20
-192.3414716929877
 10
340.5723001976982
 20
-191.7258277280056
 10
340.5863935180814
 20
-191.3701908811729
 10
340.6395618731685
 20
-191.0161032641122
 10
340.6750377673831
 20
-190.6613074084745
 10
340.6757385923423
 20
-190.6542978007783
 10
340.6751253705035
 20
-190.6471574620796
 10
340.6751253705035
 20
-190.6433130271715
 10
340.4234065657399
 20
-190.767046552138
 10
340.171728193184
 20
-190.890760534841
 10
339.9200498206287
 20
-191.0144738436729
 10
339.9175201120727
 20
-191.0100876163622
 10
339.9149904035188
 20
-191.0057013890508
 10
339.9124606949628
 20
-191.0013144878676
 10
339.9221853151429
 20
-190.9936754845178
 10
339.9316100631067
 20
-190.985615985572
 10
339.9416770093254
 20
-190.9784581262227
 10
340.3028060460322
 20
-190.7216566131294
 10
340.6642747132964
 20
-190.465330179195
 10
341.0243889015516
 20
-190.2071135366877
 10
341.0432458100489
 20
-190.1935929859464
 10
341.0605224930371
 20
-190.1647381602658
 10
341.0619396419688
 20
-190.1419889441328
 10
341.0848161859302
 20
-189.7748083475758
 10
341.1052283867408
 20
-189.4074727606551
 10
341.1254788587135
 20
-189.0401327935711
 10
341.1277983197795
 20
-188.9980562790028
 10
341.1257935560765
 20
-188.955741550984
 10
341.1257935560765
 20
-188.9035883041833
 10
340.7148789924515
 20
-189.1738473610667
 10
340.2943611052709
 20
-189.4215903612342
 10
339.8419887020825
 20
-189.6229026284031
 10
340.2374743346793
 20
-189.330205346923
 10
340.628159990176
 20
-189.0410613880145
 10
341.0188449718028
 20
-188.7519170921705
 10
341.0160457151853
 20
-188.7459021182908
 10
341.0132464585691
 20
-188.7398874813471
 10
341.0104472019522
 20
-188.7338725074681
 10
340.3722389311346
 20
-188.5956790553775
 10
339.7340313341909
 20
-188.457485940223
 10
339.095823737244
 20
-188.3192924881331
 10
339.2580822359501
 20
-188.2663737237086
 10
339.4215429190114
 20
-188.2548801773836
 10
339.5889342866732
 20
-188.2627883922566
 10
339.9674727587881
 20
-188.2806722586906
 10
340.3463319930971
 20
-188.2917409292551
 10
340.7250530840232
 20
-188.3057830562666
 10
340.9695722600715
 20
-188.3148493187104
 10
341.2140651551823
 20
-188.324683457329
 10
341.4586153292566
 20
-188.3327796822528
 10
341.4788085222677
 20
-188.3334481624329
 10
341.5055470160762
 20
-188.3299487495543
 10
341.5188168671333
 20
-188.3173786940702
 10
341.7417540037849
 20
-188.1061958992396
 10
341.963054983704
 20
-187.8932849618481
 10
342.1845587985393
 20
-187.6805913479027
 10
342.1907267320523
 20
-187.6746686943706
 10
342.1951271041508
 20
-187.6669046879224
 10
342.204208852206
 20
-187.6548986625897
 10
341.9794057690997
 20
-187.6407204136062
 10
341.7619822380432
 20
-187.6270078095878
 10
341.5448882294905
 20
-187.6133157586387
 10
341.5448882294905
 20
-187.5315793999125
 10
341.5448882294905
 20
-187.4566931098875
 10
341.5448882294905
 20
-187.3782674801187
 10
341.9947342934747
 20
-187.4042174157425
 10
342.4394367065804
 20
-187.4298705111253
 10
342.8999939366515
 20
-187.4564383865926
 10
342.8543176699276
 20
-187.4985974503764
 10
342.8160795819559
 20
-187.5324352162714
 10
342.7794466526862
 20
-187.5679296943883
 10
342.4341434565293
 20
-187.902493411105
 10
342.0688114916761
 20
-188.2135957983525
 10
341.6866577061878
 20
-188.5052512750345
 10
341.6661720535322
 20
-188.5208854226367
 10
341.6449181889001
 20
-188.5499333124008
 10
341.6434592600187
 20
-188.5739194190282
 10
341.6211170950888
 20
-188.9411451649515
 10
341.6019212299035
 20
-189.3085633010897
 10
341.5823412587326
 20
-189.6759548193162
 10
341.5809072630488
 20
-189.7028574402776
 10
341.5821532489616
 20
-189.7299029219232
 10
341.5821532489616
 20
-189.7652606041956
 10
341.5969642410579
 20
-189.755239803269
 10
341.6058424803262
 20
-189.7502133983658
 10
341.613612203194
 20
-189.7438365556788
 10
341.9550965771945
 20
-189.4635674798077
 10
342.2893449334913
 20
-189.175146247707
 10
342.5990462217148
 20
-188.8595754208677
 10
342.6228837045159
 20
-188.8352864091591
 10
342.6421112415953
 20
-188.7996881548861
 10
342.6488034460875
 20
-188.7663958876857
 10
342.72632075142
 20
-188.3807832305151
 10
342.8009626528088
 20
-187.9945927288339
 10
342.8766463574535
 20
-187.6086106218053
 10
342.8790500522913
 20
-187.5963539164052
 10
342.8844511215686
 20
-187.5846851635829
 10
342.8934223549183
 20
-187.5579230447553
 10
342.885550877658
 20
-187.7401372981459
 10
342.8786861624083
 20
-187.9066151439898
 10
342.8710956890017
 20
-188.073059970147
 10
342.8579370265195
 20
-188.3615954234081
 10
342.8434029950558
 20
-188.6500742714921
 10
342.831965396946
 20
-188.938676437996
 10
342.8303561950202
 20
-188.9792852612017
 10
342.8167325621331
 20
-189.0058091665774
 10
342.7873262163889
 20
-189.0325581449156
 10
342.3256523834738
 20
-189.4525284595742
 10
341.8506103144622
 20
-189.8559424339626
 10
341.3391765616945
 20
-190.2150476956007
 10
341.3182427853846
 20
-190.2297468469819
 10
341.3033596891813
 20
-190.2605097388232
 10
341.2964545417212
 20
-190.2866421250608
 10
341.1641084652444
 20
-190.7874830424865
 10
341.0758260842158
 20
-191.2966344758604
 10
341.0421858122985
 20
-191.8131162795977
 10
341.0130287985094
 20
-192.2607648409105
 10
341.0036370701842
 20
-192.7097018438601
 10
340.9857161673311
 20
-193.1580775121439
 10
340.985165615415
 20
-193.1718534600504
 10
340.9869122868532
 20
-193.1857217283044
 10
340.9879999132798
 20
-193.2079776707558
 10
341.0040144374719
 20
-193.194678149751
 10
341.0137026686636
 20
-193.1872790445315
 10
341.0226691849216
 20
-193.1790888145814
 10
341.2087840347914
 20
-193.0090967306931
 10
341.3954986290986
 20
-192.8397468460127
 10
341.5798890452466
 20
-192.6679036380777
 10
341.6000195683336
 20
-192.6491423914076
 10
341.6164114598102
 20
-192.6165533087515
 10
341.6181749779998
 20
-192.589317458506
 10
341.6846691153649
 20
-191.5623634339408
 10
341.9293412599396
 20
-190.5794239773694
 10
342.3433293453342
 20
-189.6380091348944
 10
342.3720456480401
 20
-189.5727096727764
 10
342.4031629501059
 20
-189.508465829814
 10
342.433162975455
 20
-189.4437310717183
 10
342.4357344639593
 20
-189.4446637093896
 10
342.4383059524629
 20
-189.4455963470603
 10
342.4408774409692
 20
-189.4465289847313
 97
        0
 97
        1
330
7B
 75
     2
 76
     1
 98
        1
 10
0.0
 20
0.0
450
        0
451
        0
460
0.0
461
0.0
452
        0
462
0.0
453
        0
470

  0
SPLINE
  5
7D
330
70
100
AcDbEntity
  8
Engraving
100
AcDbSpline
210
0.0
220
0.0
230
1.0
 70
     9
 71
     3
 72
    44
 73
    40
 74
     0
 42
0.0000000001
 43
0.0000000001
 40
0.0
 40
0.0
 40
0.0
 40
0.0
 40
1.0
 40
1.0
 40
1.0
 40
2.0
 40
2.0
 40
2.0
 40
3.0
 40
3.0
 40
3.0
 40
4.0
 40
4.0
 40
4.0
 40
5.0
 40
5.0
 40
5.0
 40
6.0
 40
6.0
 40
6.0
 40
7.0
 40
7.0
 40
7.0
 40
8.0
 40
8.0
 40
8.0
 40
9.0
 40
9.0
 40
9.0
 40
10.0
 40
10.0
 40
10.0
 40
11.0
 40
11.0
 40
11.0
 40
12.0
 40
12.0
 40
12.0
 40
13.0
 40
13.0
 40
13.0
 40
13.0
 10
338.1044218046039
 20
-188.3164349375247
 30
0.0
 10
338.0243436796162
 20
-188.3164349375247
 30
0.0
 10
337.9427729301308
 20
-188.3154834314615
 30
0.0
 10
337.861231157104
 20
-188.3166013836986
 30
0.0
 10
337.5253926668991
 20
-188.3212042605839
 30
0.0
 10
337.1953022972192
 20
-188.3764670858032
 30
0.0
 10
336.8653187361082
 20
-188.4316719581035
 30
0.0
 10
336.4172028748555
 20
-188.5066407973445
 30
0.0
 10
335.9690378210116
 20
-188.5808623134807
 30
0.0
 10
335.5119266228492
 20
-188.5581555512315
 30
0.0
 10
335.1893133584797
 20
-188.5421295475562
 30
0.0
 10
334.8790118876603
 20
-188.4731780407438
 30
0.0
 10
334.5849687365167
 20
-188.3368660369027
 30
0.0
 10
334.5701589027808
 20
-188.3300003006973
 30
0.0
 10
334.5557838843746
 20
-188.322196535852
 30
0.0
 10
334.5256025453362
 20
-188.3069441362565
 30
0.0
 10
334.8225638952978
 20
-188.2877105059106
 30
0.0
 10
335.1063466850007
 20
-188.2833893071659
 30
0.0
 10
335.3813524720325
 20
-188.1883364121887
 30
0.0
 10
335.2296617278105
 20
-188.0167910553019
 30
0.0
 10
335.0816514990941
 20
-187.8494078635696
 30
0.0
 10
334.9356403090103
 20
-187.684285172608
 30
0.0
 10
335.0503161557894
 20
-187.728375888041
 30
0.0
 10
335.1658176631388
 20
-187.7787625816223
 30
0.0
 10
335.2851110431942
 20
-187.817458958505
 30
0.0
 10
335.5721781121944
 20
-187.9105788540909
 30
0.0
 10
335.8700025225743
 20
-187.9428208931042
 30
0.0
 10
336.1695896112951
 20
-187.9620902386212
 30
0.0
 10
336.5126274034468
 20
-187.9841534539229
 30
0.0
 10
336.8563201983119
 20
-187.999147423932
 30
0.0
 10
337.1984890336735
 20
-188.0306653883964
 30
0.0
 10
337.5024776799838
 20
-188.0586664193321
 30
0.0
 10
337.7943002573693
 20
-188.1398416118581
 30
0.0
 10
338.0639029458828
 20
-188.2891212551618
 30
0.0
 10
338.0767300823616
 20
-188.2962238570766
 30
0.0
 10
338.0895329594811
 20
-188.303407660465
 30
0.0
 10
338.1019301661939
 20
-188.3112161424087
 30
0.0
 10
338.1043389184579
 20
-188.3127330263654
 30
0.0
 10
338.1048065850033
 20
-188.3173315230886
 30
0.0
 10
338.1044218046039
 20
-188.3164349375247
 30
0.0
  0
HATCH
  5
7E
330
70
100
AcDbEntity
  8
Engraving
 62
     7
440
 33554687
100
AcDbHatch
 10
0.0
 20
0.0
 30
0.0
210
0.0
220
0.0
230
1.0
  2
SOLID
 70
     1
 71
     1
 91
        1
 92
        1
 93
        1
 72
     4
 94
        3
 73
     0
 74
     0
 95
       44
 96
       40
 40
0.0
 40
0.0
 40
0.0
 40
0.0
 40
1.0
 40
1.0
 40
1.0
 40
2.0
 40
2.0
 40
2.0
 40
3.0
 40
3.0
 40
3.0
 40
4.0
 40
4.0
 40
4.0
 40
5.0
 40
5.0
 40
5.0
 40
6.0
 40
6.0
 40
6.0
 40
7.0
 40
7.0
 40
7.0
 40
8.0
 40
8.0
 40
8.0
 40
9.0
 40
9.0
 40
9.0
 40
10.0
 40
10.0
 40
10.0
 40
11.0
 40
11.0
 40
11.0
 40
12.0
 40
12.0
 40
12.0
 40
13.0
 40
13.0
 40
13.0
 40
13.0
 10
338.1044218046039
 20
-188.3164349375247
 10
338.0243436796162
 20
-188.3164349375247
 10
337.9427729301308
 20
-188.3154834314615
 10
337.861231157104
 20
-188.3166013836986
 10
337.5253926668991
 20
-188.3212042605839
 10
337.1953022972192
 20
-188.3764670858032
 10
336.8653187361082
 20
-188.4316719581035
 10
336.4172028748555
 20
-188.5066407973445
 10
335.9690378210116
 20
-188.5808623134807
 10
335.5119266228492
 20
-188.5581555512315
 10
335.1893133584797
 20
-188.5421295475562
 10
334.8790118876603
 20
-188.4731780407438
 10
334.5849687365167
 20
-188.3368660369027
 10
334.5701589027808
 20
-188.3300003006973
 10
334.5557838843746
 20
-188.322196535852
 10
334.5256025453362
 20
-188.3069441362565
 10
334.8225638952978
 20
-188.2877105059106
 10
335.1063466850007
 20
-188.2833893071659
 10
335.3813524720325
 20
-188.1883364121887
 10
335.2296617278105
 20
-188.0167910553019
 10
335.0816514990941
 20
-187.8494078635696
 10
334.9356403090103
 20
-187.684285172608
 10
335.0503161557894
 20
-187.728375888041
 10
335.1658176631388
 20
-187.7787625816223
 10
335.2851110431942
 20
-187.817458958505
 10
335.5721781121944
 20
-187.9105788540909
 10
335.8700025225743
 20
-187.9428208931042
 10
336.1695896112951
 20
-187.9620902386212
 10
336.5126274034468
 20
-187.9841534539229
 10
336.8563201983119
 20
-187.999147423932
 10
337.1984890336735
 20
-188.0306653883964
 10
337.5024776799838
 20
-188.0586664193321
 10
337.7943002573693
 20
-188.1398416118581
 10
338.0639029458828
 20
-188.2891212551618
 10
338.0767300823616
 20
-188.2962238570766
 10
338.0895329594811
 20
-188.303407660465
 10
338.1019301661939
 20
-188.3112161424087
 10
338.1043389184579
 20
-188.3127330263654
 10
338.1048065850033
 20
-188.3173315230886
 10
338.1044218046039
 20
-188.3164349375247
 97
        0
 97
        1
330
7D
 75
     2
 76
     1
 98
        1
 10
0.0
 20
0.0
450
        0
451
        0
460
0.0
461
0.0
452
        0
462
0.0
453
        0
470

  0
SPLINE
  5
7F
330
70
100
AcDbEntity
  8
Engraving
100
AcDbSpline
210
0.0
220
0.0
230
1.0
 70
     9
 71
     3
 72
    47
 73
    43
 74
     0
 42
0.0000000001
 43
0.0000000001
 40
0.0
 40
0.0
 40
0.0
 40
0.0
 40
1.0
 40
1.0
 40
1.0
 40
2.0
 40
2.0
 40
2.0
 40
3.0
 40
3.0
 40
3.0
 40
4.0
 40
4.0
 40
4.0
 40
5.0
 40
5.0
 40
5.0
 40
6.0
 40
6.0
 40
6.0
 40
7.0
 40
7.0
 40
7.0
 40
8.0
 40
8.0
 40
8.0
 40
9.0
 40
9.0
 40
9.0
 40
10.0
 40
10.0
 40
10.0
 40
11.0
 40
11.0
 40
11.0
 40
12.0
 40
12.0
 40
12.0
 40
13.0
 40
13.0
 40
13.0
 40
14.0
 40
14.0
 40
14.0
 40
14.0
 10
339.5180593194415
 20
-190.2408202346443
 30
0.0
 10
339.2761217399516
 20
-190.1818352821318
 30
0.0
 10
339.0615756344475
 20
-190.0883477898349
 30
0.0
 10
338.8462411008655
 20
-189.9857701126689
 30
0.0
 10
338.7417561858709
 20
-190.1603782139279
 30
0.0
 10
338.7656920537129
 20
-190.3563116415831
 30
0.0
 10
338.7455224461583
 20
-190.55438966417
 30
0.0
 10
338.7153398019957
 20
-190.5284914481569
 30
0.0
 10
338.691003655284
 20
-190.5099788599403
 30
0.0
 10
338.6693899439908
 20
-190.4887000306556
 30
0.0
 10
338.4414651574008
 20
-190.2643043072655
 30
0.0
 10
338.3123769061791
 20
-189.9924761414115
 30
0.0
 10
338.2867924150081
 20
-189.6738102243831
 30
0.0
 10
338.2734656219227
 20
-189.5078152072188
 30
0.0
 10
338.3196402156254
 20
-189.3524784730883
 30
0.0
 10
338.3976369795719
 20
-189.207989716721
 30
0.0
 10
338.4639084028513
 20
-189.0852211752407
 30
0.0
 10
338.542451001623
 20
-188.9690525277974
 30
0.0
 10
338.6081358209346
 20
-188.8459982649495
 30
0.0
 10
338.6762991346716
 20
-188.7183000190761
 30
0.0
 10
338.7346515728467
 20
-188.5853917384116
 30
0.0
 10
338.7997359738528
 20
-188.4559899462709
 30
0.0
 10
338.8084140736846
 20
-188.4387354754921
 30
0.0
 10
338.8294987969086
 20
-188.4218715130432
 30
0.0
 10
338.8481650001527
 20
-188.4165967866202
 30
0.0
 10
338.9022983372982
 20
-188.4012999115297
 30
0.0
 10
338.9581251101396
 20
-188.3919964464417
 30
0.0
 10
339.0167410315457
 20
-188.379612042458
 30
0.0
 10
339.0167410315457
 20
-188.4388847379508
 30
0.0
 10
339.0181467246847
 20
-188.4955296728971
 30
0.0
 10
339.0164849608873
 20
-188.5520843091109
 30
0.0
 10
339.0108696009008
 20
-188.7432150570829
 30
0.0
 10
339.0076309809443
 20
-188.9345065233236
 30
0.0
 10
338.9970303295639
 20
-189.1253781678403
 30
0.0
 10
338.9827961703173
 20
-189.3816749514421
 30
0.0
 10
339.0532425561329
 20
-189.6138447893483
 30
0.0
 10
339.1944540683458
 20
-189.8235137326396
 30
0.0
 10
339.2794001182475
 20
-189.9496411848656
 30
0.0
 10
339.3785163097293
 20
-190.0662350450033
 30
0.0
 10
339.4715339763252
 20
-190.186905151724
 30
0.0
 10
339.4833361381892
 20
-190.2022168519804
 30
0.0
 10
339.4967785000039
 20
-190.216265380768
 30
0.0
 10
339.5180593194415
 20
-190.2408202346443
 30
0.0
  0
HATCH
  5
80
330
70
100
AcDbEntity
  8
Engraving
 62
     7
440
 33554687
100
AcDbHatch
 10
0.0
 20
0.0
 30
0.0
210
0.0
220
0.0
230
1.0
  2
SOLID
 70
     1
 71
     1
 91
        1
 92
        1
 93
        1
 72
     4
 94
        3
 73
     0
 74
     0
 95
       47
 96
       43
 40
0.0
 40
0.0
 40
0.0
 40
0.0
 40
1.0
 40
1.0
 40
1.0
 40
2.0
 40
2.0
 40
2.0
 40
3.0
 40
3.0
 40
3.0
 40
4.0
 40
4.0
 40
4.0
 40
5.0
 40
5.0
 40
5.0
 40
6.0
 40
6.0
 40
6.0
 40
7.0
 40
7.0
 40
7.0
 40
8.0
 40
8.0
 40
8.0
 40
9.0
 40
9.0
 40
9.0
 40
10.0
 40
10.0
 40
10.0
 40
11.0
 40
11.0
 40
11.0
 40
12.0
 40
12.0
 40
12.0
 40
13.0
 40
13.0
 40
13.0
 40
14.0
 40
14.0
 40
14.0
 40
14.0
 10
339.5180593194415
 20
-190.2408202346443
 10
339.2761217399516
 20
-190.1818352821318
 10
339.0615756344475
 20
-190.0883477898349
 10
338.8462411008655
 20
-189.9857701126689
 10
338.7417561858709
 20
-190.1603782139279
 10
338.7656920537129
 20
-190.3563116415831
 10
338.7455224461583
 20
-190.55438966417
 10
338.7153398019957
 20
-190.5284914481569
 10
338.691003655284
 20
-190.5099788599403
 10
338.6693899439908
 20
-190.4887000306556
 10
338.4414651574008
 20
-190.2643043072655
 10
338.3123769061791
 20
-189.9924761414115
 10
338.2867924150081
 20
-189.6738102243831
 10
338.2734656219227
 20
-189.5078152072188
 10
338.3196402156254
 20
-189.3524784730883
 10
338.3976369795719
 20
-189.207989716721
 10
338.4639084028513
 20
-189.0852211752407
 10
338.542451001623
 20
-188.9690525277974
 10
338.6081358209346
 20
-188.8459982649495
 10
338.6762991346716
 20
-188.7183000190761
 10
338.7346515728467
 20
-188.5853917384116
 10
338.7997359738528
 20
-188.4559899462709
 10
338.8084140736846
 20
-188.4387354754921
 10
338.8294987969086
 20
-188.4218715130432
 10
338.8481650001527
 20
-188.4165967866202
 10
338.9022983372982
 20
-188.4012999115297
 10
338.9581251101396
 20
-188.3919964464417
 10
339.0167410315457
 20
-188.379612042458
 10
339.0167410315457
 20
-188.4388847379508
 10
339.0181467246847
 20
-188.4955296728971
 10
339.0164849608873
 20
-188.5520843091109
 10
339.0108696009008
 20
-188.7432150570829
 10
339.0076309809443
 20
-188.9345065233236
 10
338.9970303295639
 20
-189.1253781678403
 10
338.9827961703173
 20
-189.3816749514421
 10
339.0532425561329
 20
-189.6138447893483
 10
339.1944540683458
 20
-189.8235137326396
 10
339.2794001182475
 20
-189.9496411848656
 10
339.3785163097293
 20
-190.0662350450033
 10
339.4715339763252
 20
-190.186905151724
 10
339.4833361381892
 20
-190.2022168519804
 10
339.4967785000039
 20
-190.216265380768
 10
339.5180593194415
 20
-190.2408202346443
 97
        0
 97
        1
330
7F
 75
     2
 76
     1
 98
        1
 10
0.0
 20
0.0
450
        0
451
        0
460
0.0
461
0.0
452
        0
462
0.0
453
        0
470

  0
SPLINE
  5
81
330
70
100
AcDbEntity
  8
Engraving
100
AcDbSpline
210
0.0
220
0.0
230
1.0
 70
     9
 71
     3
 72
    65
 73
    61
 74
     0
 42
0.0000000001
 43
0.0000000001
 40
0.0
 40
0.0
 40
0.0
 40
0.0
 40
1.0
 40
1.0
 40
1.0
 40
2.0
 40
2.0
 40
2.0
 40
3.0
 40
3.0
 40
3.0
 40
4.0
 40
4.0
 40
4.0
 40
5.0
 40
5.0
 40
5.0
 40
6.0
 40
6.0
 40
6.0
 40
7.0
 40
7.0
 40
7.0
 40
8.0
 40
8.0
 40
8.0
 40
9.0
 40
9.0
 40
9.0
 40
10.0
 40
10.0
 40
10.0
 40
11.0
 40
11.0
 40
11.0
 40
12.0
 40
12.0
 40
12.0
 40
13.0
 40
13.0
 40
13.0
 40
14.0
 40
14.0
 40
14.0
 40
15.0
 40
15.0
 40
15.0
 40
16.0
 40
16.0
 40
16.0
 40
17.0
 40
17.0
 40
17.0
 40
18.0
 40
18.0
 40
18.0
 40
19.0
 40
19.0
 40
19.0
 40
20.0
 40
20.0
 40
20.0
 40
20.0
 10
339.1023629145597
 20
-188.085959211689
 30
0.0
 10
339.1252280350134
 20
-188.066541614519
 30
0.0
 10
339.1477400470089
 20
-188.0466900443281
 30
0.0
 10
339.1710115117401
 20
-188.0277714487455
 30
0.0
 10
339.5148791761571
 20
-187.7482183609701
 30
0.0
 10
339.8864597897553
 20
-187.518596092945
 30
0.0
 10
340.3163652952103
 20
-187.3949223740437
 30
0.0
 10
340.4872179012303
 20
-187.345772065552
 30
0.0
 10
340.6612936327448
 20
-187.32506333126
 30
0.0
 10
340.8395904928597
 20
-187.3299266593459
 30
0.0
 10
340.9307457110667
 20
-187.332413243886
 30
0.0
 10
341.0242628474962
 20
-187.3293666724199
 30
0.0
 10
341.1132286584836
 20
-187.3114878600204
 30
0.0
 10
341.2374709479329
 20
-187.2865199231282
 30
0.0
 10
341.2887323228688
 20
-187.1991356818316
 30
0.0
 10
341.2705957559576
 20
-187.0741165791804
 30
0.0
 10
341.2312875066756
 20
-186.8031497891232
 30
0.0
 10
341.0736724246366
 20
-186.6580877368757
 30
0.0
 10
340.8010639340592
 20
-186.646527477308
 30
0.0
 10
340.5389038149627
 20
-186.6354104564887
 30
0.0
 10
340.2956147822822
 20
-186.7120479691625
 30
0.0
 10
340.0620449925448
 20
-186.8204751848421
 30
0.0
 10
339.6528098093556
 20
-187.010449064518
 30
0.0
 10
339.3177408799534
 20
-187.2903768246524
 30
0.0
 10
339.0628295923293
 20
-187.6642007799355
 30
0.0
 10
339.0558530047822
 20
-187.6744311547906
 30
0.0
 10
339.0477807028183
 20
-187.6839142065403
 30
0.0
 10
339.0350593641029
 20
-187.6913345387017
 30
0.0
 10
339.0371800364712
 20
-187.6852326354436
 30
0.0
 10
339.0385055409332
 20
-187.6787018131991
 30
0.0
 10
339.0415339176783
 20
-187.6730894773317
 30
0.0
 10
339.3310660071774
 20
-187.1363885066915
 30
0.0
 10
339.7504793395322
 20
-186.7471404831384
 30
0.0
 10
340.3357801956086
 20
-186.5563166834739
 30
0.0
 10
340.5643882724008
 20
-186.4817841758026
 30
0.0
 10
340.8033645300128
 20
-186.4562004891483
 30
0.0
 10
341.044183825094
 20
-186.4934689330659
 30
0.0
 10
341.2040934382445
 20
-186.5182163456237
 30
0.0
 10
341.3158138548261
 20
-186.608480543745
 30
0.0
 10
341.3771947521419
 20
-186.758758695625
 30
0.0
 10
341.4404921388796
 20
-186.9137296861885
 30
0.0
 10
341.4713729561258
 20
-187.0772419935708
 30
0.0
 10
341.4771709431096
 20
-187.2425793124942
 30
0.0
 10
341.4843638432826
 20
-187.4476854742327
 30
0.0
 10
341.4756769708711
 20
-187.6533487589462
 30
0.0
 10
341.4737705895175
 20
-187.8676576420369
 30
0.0
 10
341.4539614745211
 20
-187.8576853598328
 30
0.0
 10
341.4479970413746
 20
-187.8565778525991
 30
0.0
 10
341.4451809340278
 20
-187.8529948796969
 30
0.0
 10
341.23501064453
 20
-187.5856407128726
 30
0.0
 10
340.9486727040673
 20
-187.5064258115193
 30
0.0
 10
340.6254598628802
 20
-187.5270447524806
 30
0.0
 10
340.2193177480626
 20
-187.5529542558354
 30
0.0
 10
339.8501974378674
 20
-187.7022374369629
 30
0.0
 10
339.4916427527225
 20
-187.8815430940062
 30
0.0
 10
339.3609575816407
 20
-187.9468957919449
 30
0.0
 10
339.2342017529714
 20
-188.02010549055
 30
0.0
 10
339.1056527532924
 20
-188.0897308685113
 30
0.0
 10
339.1045563650051
 20
-188.0884737618823
 30
0.0
 10
339.1034593028465
 20
-188.0872166552533
 30
0.0
 10
339.1023629145597
 20
-188.085959211689
 30
0.0
  0
HATCH
  5
82
330
70
100
AcDbEntity
  8
Engraving
 62
     7
440
 33554687
100
AcDbHatch
 10
0.0
 20
0.0
 30
0.0
210
0.0
220
0.0
230
1.0
  2
SOLID
 70
     1
 71
     1
 91
        1
 92
        1
 93
        1
 72
     4
 94
        3
 73
     0
 74
     0
 95
       65
 96
       61
 40
0.0
 40
0.0
 40
0.0
 40
0.0
 40
1.0
 40
1.0
 40
1.0
 40
2.0
 40
2.0
 40
2.0
 40
3.0
 40
3.0
 40
3.0
 40
4.0
 40
4.0
 40
4.0
 40
5.0
 40
5.0
 40
5.0
 40
6.0
 40
6.0
 40
6.0
 40
7.0
 40
7.0
 40
7.0
 40
8.0
 40
8.0
 40
8.0
 40
9.0
 40
9.0
 40
9.0
 40
10.0
 40
10.0
 40
10.0
 40
11.0
 40
11.0
 40
11.0
 40
12.0
 40
12.0
 40
12.0
 40
13.0
 40
13.0
 40
13.0
 40
14.0
 40
14.0
 40
14.0
 40
15.0
 40
15.0
 40
15.0
 40
16.0
 40
16.0
 40
16.0
 40
17.0
 40
17.0
 40
17.0
 40
18.0
 40
18.0
 40
18.0
 40
19.0
 40
19.0
 40
19.0
 40
20.0
 40
20.0
 40
20.0
 40
20.0
 10
339.1023629145597
 20
-188.085959211689
 10
339.1252280350134
 20
-188.066541614519
 10
339.1477400470089
 20
-188.0466900443281
 10
339.1710115117401
 20
-188.0277714487455
 10
339.5148791761571
 20
-187.7482183609701
 10
339.8864597897553
 20
-187.518596092945
 10
340.3163652952103
 20
-187.3949223740437
 10
340.4872179012303
 20
-187.345772065552
 10
340.6612936327448
 20
-187.32506333126
 10
340.8395904928597
 20
-187.3299266593459
 10
340.9307457110667
 20
-187.332413243886
 10
341.0242628474962
 20
-187.3293666724199
 10
341.1132286584836
 20
-187.3114878600204
 10
341.2374709479329
 20
-187.2865199231282
 10
341.2887323228688
 20
-187.1991356818316
 10
341.2705957559576
 20
-187.0741165791804
 10
341.2312875066756
 20
-186.8031497891232
 10
341.0736724246366
 20
-186.6580877368757
 10
340.8010639340592
 20
-186.646527477308
 10
340.5389038149627
 20
-186.6354104564887
 10
340.2956147822822
 20
-186.7120479691625
 10
340.0620449925448
 20
-186.8204751848421
 10
339.6528098093556
 20
-187.010449064518
 10
339.3177408799534
 20
-187.2903768246524
 10
339.0628295923293
 20
-187.6642007799355
 10
339.0558530047822
 20
-187.6744311547906
 10
339.0477807028183
 20
-187.6839142065403
 10
339.0350593641029
 20
-187.6913345387017
 10
339.0371800364712
 20
-187.6852326354436
 10
339.0385055409332
 20
-187.6787018131991
 10
339.0415339176783
 20
-187.6730894773317
 10
339.3310660071774
 20
-187.1363885066915
 10
339.7504793395322
 20
-186.7471404831384
 10
340.3357801956086
 20
-186.5563166834739
 10
340.5643882724008
 20
-186.4817841758026
 10
340.8033645300128
 20
-186.4562004891483
 10
341.044183825094
 20
-186.4934689330659
 10
341.2040934382445
 20
-186.5182163456237
 10
341.3158138548261
 20
-186.608480543745
 10
341.3771947521419
 20
-186.758758695625
 10
341.4404921388796
 20
-186.9137296861885
 10
341.4713729561258
 20
-187.0772419935708
 10
341.4771709431096
 20
-187.2425793124942
 10
341.4843638432826
 20
-187.4476854742327
 10
341.4756769708711
 20
-187.6533487589462
 10
341.4737705895175
 20
-187.8676576420369
 10
341.4539614745211
 20
-187.8576853598328
 10
341.4479970413746
 20
-187.8565778525991
 10
341.4451809340278
 20
-187.8529948796969
 10
341.23501064453
 20
-187.5856407128726
 10
340.9486727040673
 20
-187.5064258115193
 10
340.6254598628802
 20
-187.5270447524806
 10
340.2193177480626
 20
-187.5529542558354
 10
339.8501974378674
 20
-187.7022374369629
 10
339.4916427527225
 20
-187.8815430940062
 10
339.3609575816407
 20
-187.9468957919449
 10
339.2342017529714
 20
-188.02010549055
 10
339.1056527532924
 20
-188.0897308685113
 10
339.1045563650051
 20
-188.0884737618823
 10
339.1034593028465
 20
-188.0872166552533
 10
339.1023629145597
 20
-188.085959211689
 97
        0
 97
        1
330
81
 75
     2
 76
     1
 98
        1
 10
0.0
 20
0.0
450
        0
451
        0
460
0.0
461
0.0
452
        0
462
0.0
453
        0
470

  0
SPLINE
  5
83
330
70
100
AcDbEntity
  8
Engraving
100
AcDbSpline
210
0.0
220
0.0
230
1.0
 70
     9
 71
     3
 72
    32
 73
    28
 74
     0
 42
0.0000000001
 43
0.0000000001
 40
0.0
 40
0.0
 40
0.0
 40
0.0
 40
1.0
 40
1.0
 40
1.0
 40
2.0
 40
2.0
 40
2.0
 40
3.0
 40
3.0
 40
3.0
 40
4.0
 40
4.0
 40
4.0
 40
5.0
 40
5.0
 40
5.0
 40
6.0
 40
6.0
 40
6.0
 40
7.0
 40
7.0
 40
7.0
 40
8.0
 40
8.0
 40
8.0
 40
9.0
 40
9.0
 40
9.0
 40
9.0
 10
339.098190304678
 20
-188.1489910973893
 30
0.0
 10
339.1064229879651
 20
-188.1431051698349
 30
0.0
 10
339.1142661737537
 20
-188.1365622179096
 30
0.0
 10
339.1229436119688
 20
-188.1314276566871
 30
0.0
 10
339.5488928201671
 20
-187.879385695521
 30
0.0
 10
340.0000380689724
 20
-187.6951068693962
 30
0.0
 10
340.4933919082906
 20
-187.6266971549877
 30
0.0
 10
340.6594580078564
 20
-187.6036697985383
 30
0.0
 10
340.8270760325738
 20
-187.5892614225572
 30
0.0
 10
340.9917310460452
 20
-187.6324577425079
 30
0.0
 10
341.0543781471667
 20
-187.648893122906
 30
0.0
 10
341.1175744532388
 20
-187.6760700094257
 30
0.0
 10
341.1708776576225
 20
-187.7124711811731
 30
0.0
 10
341.2658314872467
 20
-187.7773154433297
 30
0.0
 10
341.2691469330821
 20
-187.8735978162193
 30
0.0
 10
341.1751439355873
 20
-187.9388218047684
 30
0.0
 10
341.1056327833918
 20
-187.987052447608
 30
0.0
 10
341.0249360447295
 20
-188.024441177525
 30
0.0
 10
340.943947519878
 20
-188.049847804535
 30
0.0
 10
340.7147592400636
 20
-188.1217454760121
 30
0.0
 10
340.4768160268575
 20
-188.1533621626008
 30
0.0
 10
340.2379395021705
 20
-188.1581803413176
 30
0.0
 10
339.8596114171998
 20
-188.1658115951489
 30
0.0
 10
339.4810158054013
 20
-188.1602137475107
 30
0.0
 10
339.1025334039487
 20
-188.1602137475107
 30
0.0
 10
339.1010859288158
 20
-188.1564727518241
 30
0.0
 10
339.0996384536828
 20
-188.1527317561393
 30
0.0
 10
339.098190304678
 20
-188.1489910973893
 30
0.0
  0
HATCH
  5
84
330
70
100
AcDbEntity
  8
Engraving
 62
     7
440
 33554687
100
AcDbHatch
 10
0.0
 20
0.0
 30
0.0
210
0.0
220
0.0
230
1.0
  2
SOLID
 70
     1
 71
     1
 91
        1
 92
        1
 93
        1
 72
     4
 94
        3
 73
     0
 74
     0
 95
       32
 96
       28
 40
0.0
 40
0.0
 40
0.0
 40
0.0
 40
1.0
 40
1.0
 40
1.0
 40
2.0
 40
2.0
 40
2.0
 40
3.0
 40
3.0
 40
3.0
 40
4.0
 40
4.0
 40
4.0
 40
5.0
 40
5.0
 40
5.0
 40
6.0
 40
6.0
 40
6.0
 40
7.0
 40
7.0
 40
7.0
 40
8.0
 40
8.0
 40
8.0
 40
9.0
 40
9.0
 40
9.0
 40
9.0
 10
339.098190304678
 20
-188.1489910973893
 10
339.1064229879651
 20
-188.1431051698349
 10
339.1142661737537
 20
-188.1365622179096
 10
339.1229436119688
 20
-188.1314276566871
 10
339.5488928201671
 20
-187.879385695521
 10
340.0000380689724
 20
-187.6951068693962
 10
340.4933919082906
 20
-187.6266971549877
 10
340.6594580078564
 20
-187.6036697985383
 10
340.8270760325738
 20
-187.5892614225572
 10
340.9917310460452
 20
-187.6324577425079
 10
341.0543781471667
 20
-187.648893122906
 10
341.1175744532388
 20
-187.6760700094257
 10
341.1708776576225
 20
-187.7124711811731
 10
341.2658314872467
 20
-187.7773154433297
 10
341.2691469330821
 20
-187.8735978162193
 10
341.1751439355873
 20
-187.9388218047684
 10
341.1056327833918
 20
-187.987052447608
 10
341.0249360447295
 20
-188.024441177525
 10
340.943947519878
 20
-188.049847804535
 10
340.7147592400636
 20
-188.1217454760121
 10
340.4768160268575
 20
-188.1533621626008
 10
340.2379395021705
 20
-188.1581803413176
 10
339.8596114171998
 20
-188.1658115951489
 10
339.4810158054013
 20
-188.1602137475107
 10
339.1025334039487
 20
-188.1602137475107
 10
339.1010859288158
 20
-188.1564727518241
 10
339.0996384536828
 20
-188.1527317561393
 10
339.098190304678
 20
-188.1489910973893
 97
        0
 97
        1
330
83
 75
     2
 76
     1
 98
        1
 10
0.0
 20
0.0
450
        0
451
        0
460
0.0
461
0.0
452
        0
462
0.0
453
        0
470

  0
SPLINE
  5
85
330
70
100
AcDbEntity
  8
Engraving
100
AcDbSpline
210
0.0
220
0.0
230
1.0
 70
     9
 71
     3
 72
    35
 73
    31
 74
     0
 42
0.0000000001
 43
0.0000000001
 40
0.0
 40
0.0
 40
0.0
 40
0.0
 40
1.0
 40
1.0
 40
1.0
 40
2.0
 40
2.0
 40
2.0
 40
3.0
 40
3.0
 40
3.0
 40
4.0
 40
4.0
 40
4.0
 40
5.0
 40
5.0
 40
5.0
 40
6.0
 40
6.0
 40
6.0
 40
7.0
 40
7.0
 40
7.0
 40
8.0
 40
8.0
 40
8.0
 40
9.0
 40
9.0
 40
9.0
 40
10.0
 40
10.0
 40
10.0
 40
10.0
 10
337.9935696709406
 20
-187.9550816417319
 30
0.0
 10
337.8148334468662
 20
-187.9354871533856
 30
0.0
 10
337.6358795624234
 20
-187.9176787605212
 30
0.0
 10
337.4574105282426
 20
-187.8958945278749
 30
0.0
 10
337.1638648624418
 20
-187.8600631141836
 30
0.0
 10
336.8703913008499
 20
-187.8207841756927
 30
0.0
 10
336.5878536564806
 20
-187.7296801656507
 30
0.0
 10
336.4909843482408
 20
-187.6984448901343
 30
0.0
 10
336.3972909945179
 20
-187.6533211302296
 30
0.0
 10
336.307966010231
 20
-187.6040023539502
 30
0.0
 10
336.235858095735
 20
-187.5641893725736
 30
0.0
 10
336.1890166413746
 20
-187.4999960699475
 30
0.0
 10
336.2029051248418
 20
-187.4084053564686
 30
0.0
 10
336.216529450838
 20
-187.3185613170075
 30
0.0
 10
336.2777129039195
 20
-187.27227428703
 30
0.0
 10
336.3563027845728
 20
-187.2451656299658
 30
0.0
 10
336.5205736915135
 20
-187.1885031743692
 30
0.0
 10
336.6829877466264
 20
-187.2170914840106
 30
0.0
 10
336.8437097113933
 20
-187.2626928500928
 30
0.0
 10
337.0359324548232
 20
-187.3172321061663
 30
0.0
 10
337.2157482204079
 20
-187.402271107395
 30
0.0
 10
337.3818156677139
 20
-187.5111636311021
 30
0.0
 10
337.5858759679041
 20
-187.6449681603962
 30
0.0
 10
337.7826382440308
 20
-187.7899013347873
 30
0.0
 10
337.9826212871027
 20
-187.9299297380161
 30
0.0
 10
337.9884418487692
 20
-187.9340053107288
 30
0.0
 10
337.9950063641359
 20
-187.9370185255716
 30
0.0
 10
338.001223835884
 20
-187.9405270357115
 30
0.0
 10
337.998672559882
 20
-187.945378571052
 30
0.0
 10
337.9961209469429
 20
-187.9502301063924
 30
0.0
 10
337.9935696709406
 20
-187.9550816417319
 30
0.0
  0
HATCH
  5
86
330
70
100
AcDbEntity
  8
Engraving
 62
     7
440
 33554687
100
AcDbHatch
 10
0.0
 20
0.0
 30
0.0
210
0.0
220
0.0
230
1.0
  2
SOLID
 70
     1
 71
     1
 91
        1
 92
        1
 93
        1
 72
     4
 94
        3
 73
     0
 74
     0
 95
       35
 96
       31
 40
0.0
 40
0.0
 40
0.0
 40
0.0
 40
1.0
 40
1.0
 40
1.0
 40
2.0
 40
2.0
 40
2.0
 40
3.0
 40
3.0
 40
3.0
 40
4.0
 40
4.0
 40
4.0
 40
5.0
 40
5.0
 40
5.0
 40
6.0
 40
6.0
 40
6.0
 40
7.0
 40
7.0
 40
7.0
 40
8.0
 40
8.0
 40
8.0
 40
9.0
 40
9.0
 40
9.0
 40
10.0
 40
10.0
 40
10.0
 40
10.0
 10
337.9935696709406
 20
-187.9550816417319
 10
337.8148334468662
 20
-187.9354871533856
 10
337.6358795624234
 20
-187.9176787605212
 10
337.4574105282426
 20
-187.8958945278749
 10
337.1638648624418
 20
-187.8600631141836
 10
336.8703913008499
 20
-187.8207841756927
 10
336.5878536564806
 20
-187.7296801656507
 10
336.4909843482408
 20
-187.6984448901343
 10
336.3972909945179
 20
-187.6533211302296
 10
336.307966010231
 20
-187.6040023539502
 10
336.235858095735
 20
-187.5641893725736
 10
336.1890166413746
 20
-187.4999960699475
 10
336.2029051248418
 20
-187.4084053564686
 10
336.216529450838
 20
-187.3185613170075
 10
336.2777129039195
 20
-187.27227428703
 10
336.3563027845728
 20
-187.2451656299658
 10
336.5205736915135
 20
-187.1885031743692
 10
336.6829877466264
 20
-187.2170914840106
 10
336.8437097113933
 20
-187.2626928500928
 10
337.0359324548232
 20
-187.3172321061663
 10
337.2157482204079
 20
-187.402271107395
 10
337.3818156677139
 20
-187.5111636311021
 10
337.5858759679041
 20
-187.6449681603962
 10
337.7826382440308
 20
-187.7899013347873
 10
337.9826212871027
 20
-187.9299297380161
 10
337.9884418487692
 20
-187.9340053107288
 10
337.9950063641359
 20
-187.9370185255716
 10
338.001223835884
 20
-187.9405270357115
 10
337.998672559882
 20
-187.945378571052
 10
337.9961209469429
 20
-187.9502301063924
 10
337.9935696709406
 20
-187.9550816417319
 97
        0
 97
        1
330
85
 75
     2
 76
     1
 98
        1
 10
0.0
 20
0.0
450
        0
451
        0
460
0.0
461
0.0
452
        0
462
0.0
453
        0
470

  0
SPLINE
  5
87
330
70
100
AcDbEntity
  8
Engraving
100
AcDbSpline
210
0.0
220
0.0
230
1.0
 70
     9
 71
     3
 72
    59
 73
    55
 74
     0
 42
0.0000000001
 43
0.0000000001
 40
0.0
 40
0.0
 40
0.0
 40
0.0
 40
1.0
 40
1.0
 40
1.0
 40
2.0
 40
2.0
 40
2.0
 40
3.0
 40
3.0
 40
3.0
 40
4.0
 40
4.0
 40
4.0
 40
5.0
 40
5.0
 40
5.0
 40
6.0
 40
6.0
 40
6.0
 40
7.0
 40
7.0
 40
7.0
 40
8.0
 40
8.0
 40
8.0
 40
9.0
 40
9.0
 40
9.0
 40
10.0
 40
10.0
 40
10.0
 40
11.0
 40
11.0
 40
11.0
 40
12.0
 40
12.0
 40
12.0
 40
13.0
 40
13.0
 40
13.0
 40
14.0
 40
14.0
 40
14.0
 40
15.0
 40
15.0
 40
15.0
 40
16.0
 40
16.0
 40
16.0
 40
17.0
 40
17.0
 40
17.0
 40
18.0
 40
18.0
 40
18.0
 40
18.0
 10
338.4464673215539
 20
-187.2982801539597
 30
0.0
 10
338.3566379447439
 20
-187.1567918088855
 30
0.0
 10
338.2814376357482
 20
-187.0215131864515
 30
0.0
 10
338.1895708096539
 20
-186.8987015172187
 30
0.0
 10
338.1085698181891
 20
-186.790415309077
 30
0.0
 10
338.0161810789246
 20
-186.6881044848861
 30
0.0
 10
337.9161112198728
 20
-186.5971369337516
 30
0.0
 10
337.6838194266856
 20
-186.3859753658635
 30
0.0
 10
337.4182441288287
 20
-186.3643489875342
 30
0.0
 10
337.1376573413079
 20
-186.4901723554024
 30
0.0
 10
336.9970989477355
 20
-186.5532027248927
 30
0.0
 10
336.88614169018
 20
-186.6556269279062
 30
0.0
 10
336.7950525113416
 20
-186.7783654821205
 30
0.0
 10
336.692389596279
 20
-186.9166996048111
 30
0.0
 10
336.7162180154774
 20
-187.0103971764394
 30
0.0
 10
336.8695873726208
 20
-187.0879100477372
 30
0.0
 10
337.0399082943416
 20
-187.1739901798926
 30
0.0
 10
337.2133199258821
 20
-187.2545017778046
 30
0.0
 10
337.3799187205541
 20
-187.347257109098
 30
0.0
 10
337.5713102439759
 20
-187.4538160170149
 30
0.0
 10
337.7504248466763
 20
-187.579734737651
 30
0.0
 10
337.9103853370959
 20
-187.731004996331
 30
0.0
 10
337.9380952538574
 20
-187.7572094867809
 30
0.0
 10
337.9674601980523
 20
-187.7816629230502
 30
0.0
 10
337.9960606354796
 20
-187.8069253416334
 30
0.0
 10
337.9921633019454
 20
-187.811251594412
 30
0.0
 10
337.9882659684111
 20
-187.8155778471919
 30
0.0
 10
337.9843686348768
 20
-187.8199044369065
 30
0.0
 10
337.970031353253
 20
-187.8103563565916
 30
0.0
 10
337.9554049809247
 20
-187.8012119250943
 30
0.0
 10
337.9413985700135
 20
-187.791201232234
 30
0.0
 10
337.6586372004376
 20
-187.5891023889671
 30
0.0
 10
337.3752555325094
 20
-187.3866281994693
 30
0.0
 10
337.0528287619678
 20
-187.2516295704984
 30
0.0
 10
336.9269752467068
 20
-187.1989353736329
 30
0.0
 10
336.7926828436019
 20
-187.1599802302286
 30
0.0
 10
336.6584628816403
 20
-187.1351635774096
 30
0.0
 10
336.4483508819938
 20
-187.09631473718
 30
0.0
 10
336.2653568033431
 20
-187.1555328491108
 30
0.0
 10
336.1235194024142
 20
-187.3426166638952
 30
0.0
 10
336.1263934626761
 20
-187.3237177790426
 30
0.0
 10
336.1261936598936
 20
-187.316256172274
 30
0.0
 10
336.1286930478209
 20
-187.3098469837716
 30
0.0
 10
336.3332317964961
 20
-186.7853147783481
 30
0.0
 10
336.6908336278971
 20
-186.4189625379009
 30
0.0
 10
337.2383798445242
 20
-186.2611555606045
 30
0.0
 10
337.474567623503
 20
-186.1930843822154
 30
0.0
 10
337.6953517198352
 20
-186.2471159606112
 30
0.0
 10
337.8936908543479
 20
-186.3971457909711
 30
0.0
 10
338.0947935342588
 20
-186.5492661381058
 30
0.0
 10
338.2345763021904
 20
-186.7453623056429
 30
0.0
 10
338.3279128411632
 20
-186.9765177990001
 30
0.0
 10
338.3689805678989
 20
-187.0782255085138
 30
0.0
 10
338.403992888887
 20
-187.1823781910242
 30
0.0
 10
338.4464673215539
 20
-187.2982801539597
 30
0.0
  0
HATCH
  5
88
330
70
100
AcDbEntity
  8
Engraving
 62
     7
440
 33554687
100
AcDbHatch
 10
0.0
 20
0.0
 30
0.0
210
0.0
220
0.0
230
1.0
  2
SOLID
 70
     1
 71
     1
 91
        1
 92
        1
 93
        1
 72
     4
 94
        3
 73
     0
 74
     0
 95
       59
 96
       55
 40
0.0
 40
0.0
 40
0.0
 40
0.0
 40
1.0
 40
1.0
 40
1.0
 40
2.0
 40
2.0
 40
2.0
 40
3.0
 40
3.0
 40
3.0
 40
4.0
 40
4.0
 40
4.0
 40
5.0
 40
5.0
 40
5.0
 40
6.0
 40
6.0
 40
6.0
 40
7.0
 40
7.0
 40
7.0
 40
8.0
 40
8.0
 40
8.0
 40
9.0
 40
9.0
 40
9.0
 40
10.0
 40
10.0
 40
10.0
 40
11.0
 40
11.0
 40
11.0
 40
12.0
 40
12.0
 40
12.0
 40
13.0
 40
13.0
 40
13.0
 40
14.0
 40
14.0
 40
14.0
 40
15.0
 40
15.0
 40
15.0
 40
16.0
 40
16.0
 40
16.0
 40
17.0
 40
17.0
 40
17.0
 40
18.0
 40
18.0
 40
18.0
 40
18.0
 10
338.4464673215539
 20
-187.2982801539597
 10
338.3566379447439
 20
-187.1567918088855
 10
338.2814376357482
 20
-187.0215131864515
 10
338.1895708096539
 20
-186.8987015172187
 10
338.1085698181891
 20
-186.790415309077
 10
338.0161810789246
 20
-186.6881044848861
 10
337.9161112198728
 20
-186.5971369337516
 10
337.6838194266856
 20
-186.3859753658635
 10
337.4182441288287
 20
-186.3643489875342
 10
337.1376573413079
 20
-186.4901723554024
 10
336.9970989477355
 20
-186.5532027248927
 10
336.88614169018
 20
-186.6556269279062
 10
336.7950525113416
 20
-186.7783654821205
 10
336.692389596279
 20
-186.9166996048111
 10
336.7162180154774
 20
-187.0103971764394
 10
336.8695873726208
 20
-187.0879100477372
 10
337.0399082943416
 20
-187.1739901798926
 10
337.2133199258821
 20
-187.2545017778046
 10
337.3799187205541
 20
-187.347257109098
 10
337.5713102439759
 20
-187.4538160170149
 10
337.7504248466763
 20
-187.579734737651
 10
337.9103853370959
 20
-187.731004996331
 10
337.9380952538574
 20
-187.7572094867809
 10
337.9674601980523
 20
-187.7816629230502
 10
337.9960606354796
 20
-187.8069253416334
 10
337.9921633019454
 20
-187.811251594412
 10
337.9882659684111
 20
-187.8155778471919
 10
337.9843686348768
 20
-187.8199044369065
 10
337.970031353253
 20
-187.8103563565916
 10
337.9554049809247
 20
-187.8012119250943
 10
337.9413985700135
 20
-187.791201232234
 10
337.6586372004376
 20
-187.5891023889671
 10
337.3752555325094
 20
-187.3866281994693
 10
337.0528287619678
 20
-187.2516295704984
 10
336.9269752467068
 20
-187.1989353736329
 10
336.7926828436019
 20
-187.1599802302286
 10
336.6584628816403
 20
-187.1351635774096
 10
336.4483508819938
 20
-187.09631473718
 10
336.2653568033431
 20
-187.1555328491108
 10
336.1235194024142
 20
-187.3426166638952
 10
336.1263934626761
 20
-187.3237177790426
 10
336.1261936598936
 20
-187.316256172274
 10
336.1286930478209
 20
-187.3098469837716
 10
336.3332317964961
 20
-186.7853147783481
 10
336.6908336278971
 20
-186.4189625379009
 10
337.2383798445242
 20
-186.2611555606045
 10
337.474567623503
 20
-186.1930843822154
 10
337.6953517198352
 20
-186.2471159606112
 10
337.8936908543479
 20
-186.3971457909711
 10
338.0947935342588
 20
-186.5492661381058
 10
338.2345763021904
 20
-186.7453623056429
 10
338.3279128411632
 20
-186.9765177990001
 10
338.3689805678989
 20
-187.0782255085138
 10
338.403992888887
 20
-187.1823781910242
 10
338.4464673215539
 20
-187.2982801539597
 97
        0
 97
        1
330
87
 75
     2
 76
     1
 98
        1
 10
0.0
 20
0.0
450
        0
451
        0
460
0.0
461
0.0
452
        0
462
0.0
453
        0
470

  0
SPLINE
  5
89
330
70
100
AcDbEntity
  8
Engraving
100
AcDbSpline
210
0.0
220
0.0
230
1.0
 70
     9
 71
     3
 72
    35
 73
    31
 74
     0
 42
0.0000000001
 43
0.0000000001
 40
0.0
 40
0.0
 40
0.0
 40
0.0
 40
1.0
 40
1.0
 40
1.0
 40
2.0
 40
2.0
 40
2.0
 40
3.0
 40
3.0
 40
3.0
 40
4.0
 40
4.0
 40
4.0
 40
5.0
 40
5.0
 40
5.0
 40
6.0
 40
6.0
 40
6.0
 40
7.0
 40
7.0
 40
7.0
 40
8.0
 40
8.0
 40
8.0
 40
9.0
 40
9.0
 40
9.0
 40
10.0
 40
10.0
 40
10.0
 40
10.0
 10
335.6381038294627
 20
-193.3983267281948
 30
0.0
 10
335.6326715936899
 20
-193.3261052616306
 30
0.0
 10
335.6279523125394
 20
-193.2538217989204
 30
0.0
 10
335.6216873417253
 20
-193.1816724365678
 30
0.0
 10
335.5892443686022
 20
-192.8080465994023
 30
0.0
 10
335.5612870121547
 20
-192.4339497263044
 30
0.0
 10
335.5225965888417
 20
-192.0609674360854
 30
0.0
 10
335.4598368713965
 20
-191.4559497452565
 30
0.0
 10
335.3022395325388
 20
-190.8735444747165
 30
0.0
 10
335.0861256681244
 20
-190.3061699001633
 30
0.0
 10
335.0614854375051
 20
-190.2414809653068
 30
0.0
 10
335.0368398159246
 20
-190.176794052063
 30
0.0
 10
335.0118014965135
 20
-190.111068703379
 30
0.0
 10
335.1803854458801
 20
-190.1958578668793
 30
0.0
 10
335.3455523681682
 20
-190.2780034338612
 30
0.0
 10
335.5093515025125
 20
-190.3627919234915
 30
0.0
 10
335.5251239388505
 20
-190.3709558724659
 30
0.0
 10
335.5405028350196
 20
-190.3946697351488
 30
0.0
 10
335.5424173001249
 20
-190.4126209886968
 30
0.0
 10
335.5771096518201
 20
-190.7379272320309
 30
0.0
 10
335.6164490120898
 20
-191.0629433738353
 30
0.0
 10
335.6413313305616
 20
-191.3890484914175
 30
0.0
 10
335.691507196765
 20
-192.0466503696456
 30
0.0
 10
335.6723906797922
 20
-192.7051525397322
 30
0.0
 10
335.6516787752314
 20
-193.3634161594297
 30
0.0
 10
335.6513130322055
 20
-193.3750363935288
 30
0.0
 10
335.6494064850754
 20
-193.3866074350355
 30
0.0
 10
335.6482191258649
 20
-193.3982013881605
 30
0.0
 10
335.6448474165526
 20
-193.3982431681724
 30
0.0
 10
335.6414755387737
 20
-193.3982849481849
 30
0.0
 10
335.6381038294627
 20
-193.3983267281948
 30
0.0
  0
HATCH
  5
8A
330
70
100
AcDbEntity
  8
Engraving
 62
     7
440
 33554687
100
AcDbHatch
 10
0.0
 20
0.0
 30
0.0
210
0.0
220
0.0
230
1.0
  2
SOLID
 70
     1
 71
     1
 91
        1
 92
        1
 93
        1
 72
     4
 94
        3
 73
     0
 74
     0
 95
       35
 96
       31
 40
0.0
 40
0.0
 40
0.0
 40
0.0
 40
1.0
 40
1.0
 40
1.0
 40
2.0
 40
2.0
 40
2.0
 40
3.0
 40
3.0
 40
3.0
 40
4.0
 40
4.0
 40
4.0
 40
5.0
 40
5.0
 40
5.0
 40
6.0
 40
6.0
 40
6.0
 40
7.0
 40
7.0
 40
7.0
 40
8.0
 40
8.0
 40
8.0
 40
9.0
 40
9.0
 40
9.0
 40
10.0
 40
10.0
 40
10.0
 40
10.0
 10
335.6381038294627
 20
-193.3983267281948
 10
335.6326715936899
 20
-193.3261052616306
 10
335.6279523125394
 20
-193.2538217989204
 10
335.6216873417253
 20
-193.1816724365678
 10
335.5892443686022
 20
-192.8080465994023
 10
335.5612870121547
 20
-192.4339497263044
 10
335.5225965888417
 20
-192.0609674360854
 10
335.4598368713965
 20
-191.4559497452565
 10
335.3022395325388
 20
-190.8735444747165
 10
335.0861256681244
 20
-190.3061699001633
 10
335.0614854375051
 20
-190.2414809653068
 10
335.0368398159246
 20
-190.176794052063
 10
335.0118014965135
 20
-190.111068703379
 10
335.1803854458801
 20
-190.1958578668793
 10
335.3455523681682
 20
-190.2780034338612
 10
335.5093515025125
 20
-190.3627919234915
 10
335.5251239388505
 20
-190.3709558724659
 10
335.5405028350196
 20
-190.3946697351488
 10
335.5424173001249
 20
-190.4126209886968
 10
335.5771096518201
 20
-190.7379272320309
 10
335.6164490120898
 20
-191.0629433738353
 10
335.6413313305616
 20
-191.3890484914175
 10
335.691507196765
 20
-192.0466503696456
 10
335.6723906797922
 20
-192.7051525397322
 10
335.6516787752314
 20
-193.3634161594297
 10
335.6513130322055
 20
-193.3750363935288
 10
335.6494064850754
 20
-193.3866074350355
 10
335.6482191258649
 20
-193.3982013881605
 10
335.6448474165526
 20
-193.3982431681724
 10
335.6414755387737
 20
-193.3982849481849
 10
335.6381038294627
 20
-193.3983267281948
 97
        0
 97
        1
330
89
 75
     2
 76
     1
 98
        1
 10
0.0
 20
0.0
450
        0
451
        0
460
0.0
461
0.0
452
        0
462
0.0
453
        0
470

  0
SPLINE
  5
8B
330
70
100
AcDbEntity
  8
Engraving
100
AcDbSpline
210
0.0
220
0.0
230
1.0
 70
     9
 71
     3
 72
    44
 73
    40
 74
     0
 42
0.0000000001
 43
0.0000000001
 40
0.0
 40
0.0
 40
0.0
 40
0.0
 40
1.0
 40
1.0
 40
1.0
 40
2.0
 40
2.0
 40
2.0
 40
3.0
 40
3.0
 40
3.0
 40
4.0
 40
4.0
 40
4.0
 40
5.0
 40
5.0
 40
5.0
 40
6.0
 40
6.0
 40
6.0
 40
7.0
 40
7.0
 40
7.0
 40
8.0
 40
8.0
 40
8.0
 40
9.0
 40
9.0
 40
9.0
 40
10.0
 40
10.0
 40
10.0
 40
11.0
 40
11.0
 40
11.0
 40
12.0
 40
12.0
 40
12.0
 40
13.0
 40
13.0
 40
13.0
 40
13.0
 10
338.3224649302169
 20
-188.3509078269787
 30
0.0
 10
338.1696528644769
 20
-188.24831734626
 30
0.0
 10
338.0453172438788
 20
-188.1180442387249
 30
0.0
 10
338.0617300485055
 20
-187.9057256340732
 30
0.0
 10
338.0656004271961
 20
-187.8556617247711
 30
0.0
 10
338.0803918979446
 20
-187.8039266150185
 30
0.0
 10
338.1014058944746
 20
-187.7581195497678
 30
0.0
 10
338.2205452949825
 20
-187.4984170213761
 30
0.0
 10
338.5725422034723
 20
-187.3404564014585
 30
0.0
 10
338.845602524624
 20
-187.4213303735816
 30
0.0
 10
338.930543303503
 20
-187.4464874997979
 30
0.0
 10
339.002602362345
 20
-187.4908474267544
 30
0.0
 10
339.0566522159121
 20
-187.5669327020226
 30
0.0
 10
338.9656425538637
 20
-187.6543113838826
 30
0.0
 10
338.9140260488546
 20
-187.7620465338918
 30
0.0
 10
338.8853467685095
 20
-187.8818807034516
 30
0.0
 10
338.8349351450354
 20
-188.0925176626501
 30
0.0
 10
338.8903765424351
 20
-188.1960097829665
 30
0.0
 10
339.0909044102951
 20
-188.2660677862054
 30
0.0
 10
338.824556182281
 20
-188.375062738328
 30
0.0
 10
338.5834218524575
 20
-188.1896662969009
 30
0.0
 10
338.6170736276859
 20
-187.9024587067405
 30
0.0
 10
338.6340369850048
 20
-187.7576798488432
 30
0.0
 10
338.6936695237392
 20
-187.6356896285408
 30
0.0
 10
338.8072437597297
 20
-187.5411616791888
 30
0.0
 10
338.806508566354
 20
-187.5356829382761
 30
0.0
 10
338.805773372978
 20
-187.5302041973646
 30
0.0
 10
338.805038179603
 20
-187.5247254564519
 30
0.0
 10
338.744761757028
 20
-187.5239788072189
 30
0.0
 10
338.6834630719866
 20
-187.5158241239714
 30
0.0
 10
338.6244141056288
 20
-187.5239717315709
 30
0.0
 10
338.4861125063853
 20
-187.5430549201831
 30
0.0
 10
338.3645518869977
 20
-187.6026682575432
 30
0.0
 10
338.264766401553
 20
-187.7012828984794
 30
0.0
 10
338.1465427918751
 20
-187.8181200261032
 30
0.0
 10
338.1140467055927
 20
-187.9584388677983
 30
0.0
 10
338.1798610009056
 20
-188.1102627116258
 30
0.0
 10
338.217648996975
 20
-188.197434346576
 30
0.0
 10
338.2768340852961
 20
-188.2753311559611
 30
0.0
 10
338.3224649302169
 20
-188.3509078269787
 30
0.0
  0
HATCH
  5
8C
330
70
100
AcDbEntity
  8
Engraving
 62
     7
440
 33554687
100
AcDbHatch
 10
0.0
 20
0.0
 30
0.0
210
0.0
220
0.0
230
1.0
  2
SOLID
 70
     1
 71
     1
 91
        1
 92
        1
 93
        1
 72
     4
 94
        3
 73
     0
 74
     0
 95
       44
 96
       40
 40
0.0
 40
0.0
 40
0.0
 40
0.0
 40
1.0
 40
1.0
 40
1.0
 40
2.0
 40
2.0
 40
2.0
 40
3.0
 40
3.0
 40
3.0
 40
4.0
 40
4.0
 40
4.0
 40
5.0
 40
5.0
 40
5.0
 40
6.0
 40
6.0
 40
6.0
 40
7.0
 40
7.0
 40
7.0
 40
8.0
 40
8.0
 40
8.0
 40
9.0
 40
9.0
 40
9.0
 40
10.0
 40
10.0
 40
10.0
 40
11.0
 40
11.0
 40
11.0
 40
12.0
 40
12.0
 40
12.0
 40
13.0
 40
13.0
 40
13.0
 40
13.0
 10
338.3224649302169
 20
-188.3509078269787
 10
338.1696528644769
 20
-188.24831734626
 10
338.0453172438788
 20
-188.1180442387249
 10
338.0617300485055
 20
-187.9057256340732
 10
338.0656004271961
 20
-187.8556617247711
 10
338.0803918979446
 20
-187.8039266150185
 10
338.1014058944746
 20
-187.7581195497678
 10
338.2205452949825
 20
-187.4984170213761
 10
338.5725422034723
 20
-187.3404564014585
 10
338.845602524624
 20
-187.4213303735816
 10
338.930543303503
 20
-187.4464874997979
 10
339.002602362345
 20
-187.4908474267544
 10
339.0566522159121
 20
-187.5669327020226
 10
338.9656425538637
 20
-187.6543113838826
 10
338.9140260488546
 20
-187.7620465338918
 10
338.8853467685095
 20
-187.8818807034516
 10
338.8349351450354
 20
-188.0925176626501
 10
338.8903765424351
 20
-188.1960097829665
 10
339.0909044102951
 20
-188.2660677862054
 10
338.824556182281
 20
-188.375062738328
 10
338.5834218524575
 20
-188.1896662969009
 10
338.6170736276859
 20
-187.9024587067405
 10
338.6340369850048
 20
-187.7576798488432
 10
338.6936695237392
 20
-187.6356896285408
 10
338.8072437597297
 20
-187.5411616791888
 10
338.806508566354
 20
-187.5356829382761
 10
338.805773372978
 20
-187.5302041973646
 10
338.805038179603
 20
-187.5247254564519
 10
338.744761757028
 20
-187.5239788072189
 10
338.6834630719866
 20
-187.5158241239714
 10
338.6244141056288
 20
-187.5239717315709
 10
338.4861125063853
 20
-187.5430549201831
 10
338.3645518869977
 20
-187.6026682575432
 10
338.264766401553
 20
-187.7012828984794
 10
338.1465427918751
 20
-187.8181200261032
 10
338.1140467055927
 20
-187.9584388677983
 10
338.1798610009056
 20
-188.1102627116258
 10
338.217648996975
 20
-188.197434346576
 10
338.2768340852961
 20
-188.2753311559611
 10
338.3224649302169
 20
-188.3509078269787
 97
        0
 97
        1
330
8B
 75
     2
 76
     1
 98
        1
 10
0.0
 20
0.0
450
        0
451
        0
460
0.0
461
0.0
452
        0
462
0.0
453
        0
470

  0
SPLINE
  5
8D
330
70
100
AcDbEntity
  8
Engraving
100
AcDbSpline
210
0.0
220
0.0
230
1.0
 70
     9
 71
     3
 72
    20
 73
    16
 74
     0
 42
0.0000000001
 43
0.0000000001
 40
0.0
 40
0.0
 40
0.0
 40
0.0
 40
1.0
 40
1.0
 40
1.0
 40
2.0
 40
2.0
 40
2.0
 40
3.0
 40
3.0
 40
3.0
 40
4.0
 40
4.0
 40
4.0
 40
5.0
 40
5.0
 40
5.0
 40
5.0
 10
340.1086377884671
 20
-187.2245188918197
 30
0.0
 10
339.6332547437668
 20
-187.3758860194766
 30
0.0
 10
339.2667470318452
 20
-187.6686422646817
 30
0.0
 10
338.9830843596682
 20
-188.0719100090305
 30
0.0
 10
338.9301322421295
 20
-188.0165986650886
 30
0.0
 10
338.9247176878023
 20
-187.9339564550696
 30
0.0
 10
338.9692504597588
 20
-187.874445209189
 30
0.0
 10
339.0662515097992
 20
-187.7448166594087
 30
0.0
 10
339.1891521218795
 20
-187.6431938576605
 30
0.0
 10
339.3225294080234
 20
-187.5535710164048
 30
0.0
 10
339.5567434185377
 20
-187.3961909364816
 30
0.0
 10
339.8123966382471
 20
-187.2885093592295
 30
0.0
 10
340.0874121964107
 20
-187.2263371646475
 30
0.0
 10
340.0942735519989
 20
-187.22478608173
 30
0.0
 10
340.101553381543
 20
-187.2250835958423
 30
0.0
 10
340.1086377884671
 20
-187.2245188918197
 30
0.0
  0
HATCH
  5
8E
330
70
100
AcDbEntity
  8
Engraving
 62
     7
440
 33554687
100
AcDbHatch
 10
0.0
 20
0.0
 30
0.0
210
0.0
220
0.0
230
1.0
  2
SOLID
 70
     1
 71
     1
 91
        1
 92
        1
 93
        1
 72
     4
 94
        3
 73
     0
 74
     0
 95
       20
 96
       16
 40
0.0
 40
0.0
 40
0.0
 40
0.0
 40
1.0
 40
1.0
 40
1.0
 40
2.0
 40
2.0
 40
2.0
 40
3.0
 40
3.0
 40
3.0
 40
4.0
 40
4.0
 40
4.0
 40
5.0
 40
5.0
 40
5.0
 40
5.0
 10
340.1086377884671
 20
-187.2245188918197
 10
339.6332547437668
 20
-187.3758860194766
 10
339.2667470318452
 20
-187.6686422646817
 10
338.9830843596682
 20
-188.0719100090305
 10
338.9301322421295
 20
-188.0165986650886
 10
338.9247176878023
 20
-187.9339564550696
 10
338.9692504597588
 20
-187.874445209189
 10
339.0662515097992
 20
-187.7448166594087
 10
339.1891521218795
 20
-187.6431938576605
 10
339.3225294080234
 20
-187.5535710164048
 10
339.5567434185377
 20
-187.3961909364816
 10
339.8123966382471
 20
-187.2885093592295
 10
340.0874121964107
 20
-187.2263371646475
 10
340.0942735519989
 20
-187.22478608173
 10
340.101553381543
 20
-187.2250835958423
 10
340.1086377884671
 20
-187.2245188918197
 97
        0
 97
        1
330
8D
 75
     2
 76
     1
 98
        1
 10
0.0
 20
0.0
450
        0
451
        0
460
0.0
461
0.0
452
        0
462
0.0
453
        0
470

  0
SPLINE
  5
8F
330
70
100
AcDbEntity
  8
Engraving
100
AcDbSpline
210
0.0
220
0.0
230
1.0
 70
     9
 71
     3
 72
    14
 73
    10
 74
     0
 42
0.0000000001
 43
0.0000000001
 40
0.0
 40
0.0
 40
0.0
 40
0.0
 40
1.0
 40
1.0
 40
1.0
 40
2.0
 40
2.0
 40
2.0
 40
3.0
 40
3.0
 40
3.0
 40
3.0
 10
337.7527780045732
 20
-186.8565532353728
 30
0.0
 10
338.0041154167952
 20
-186.9940886522859
 30
0.0
 10
338.1773427445885
 20
-187.2028786991311
 30
0.0
 10
338.3116924267367
 20
-187.4559338255698
 30
0.0
 10
338.2813675531533
 20
-187.4774862465403
 30
0.0
 10
338.2519675676605
 20
-187.4983811377371
 30
0.0
 10
338.2162200532977
 20
-187.5237875962805
 30
0.0
 10
338.1154409449075
 20
-187.2619918556304
 30
0.0
 10
337.9498185894667
 20
-187.0481807948499
 30
0.0
 10
337.7527780045732
 20
-186.8565532353728
 30
0.0
  0
HATCH
  5
90
330
70
100
AcDbEntity
  8
Engraving
 62
     7
440
 33554687
100
AcDbHatch
 10
0.0
 20
0.0
 30
0.0
210
0.0
220
0.0
230
1.0
  2
SOLID
 70
     1
 71
     1
 91
        1
 92
        1
 93
        1
 72
     4
 94
        3
 73
     0
 74
     0
 95
       14
 96
       10
 40
0.0
 40
0.0
 40
0.0
 40
0.0
 40
1.0
 40
1.0
 40
1.0
 40
2.0
 40
2.0
 40
2.0
 40
3.0
 40
3.0
 40
3.0
 40
3.0
 10
337.7527780045732
 20
-186.8565532353728
 10
338.0041154167952
 20
-186.9940886522859
 10
338.1773427445885
 20
-187.2028786991311
 10
338.3116924267367
 20
-187.4559338255698
 10
338.2813675531533
 20
-187.4774862465403
 10
338.2519675676605
 20
-187.4983811377371
 10
338.2162200532977
 20
-187.5237875962805
 10
338.1154409449075
 20
-187.2619918556304
 10
337.9498185894667
 20
-187.0481807948499
 10
337.7527780045732
 20
-186.8565532353728
 97
        0
 97
        1
330
8F
 75
     2
 76
     1
 98
        1
 10
0.0
 20
0.0
450
        0
451
        0
460
0.0
461
0.0
452
        0
462
0.0
453
        0
470

  0
SPLINE
  5
91
330
70
100
AcDbEntity
  8
Engraving
100
AcDbSpline
210
0.0
220
0.0
230
1.0
 70
     9
 71
     3
 72
    20
 73
    16
 74
     0
 42
0.0000000001
 43
0.0000000001
 40
0.0
 40
0.0
 40
0.0
 40
0.0
 40
1.0
 40
1.0
 40
1.0
 40
2.0
 40
2.0
 40
2.0
 40
3.0
 40
3.0
 40
3.0
 40
4.0
 40
4.0
 40
4.0
 40
5.0
 40
5.0
 40
5.0
 40
5.0
 10
339.4008925310499
 20
-187.0841286197819
 30
0.0
 10
339.4005279667823
 20
-187.0850585619691
 30
0.0
 10
339.4001593592884
 20
-187.0869769046634
 30
0.0
 10
339.399143161662
 20
-187.0884477969138
 30
0.0
 10
339.3526992912539
 20
-187.1556487549484
 30
0.0
 10
339.3001932763863
 20
-187.1695395978862
 30
0.0
 10
339.2192013821804
 20
-187.136094530403
 30
0.0
 10
338.9752991267954
 20
-187.035376400673
 30
0.0
 10
338.7274173255997
 20
-186.9442990085411
 30
0.0
 10
338.4811437177959
 20
-186.8493150168899
 30
0.0
 10
338.46933446362
 20
-186.8447603217909
 30
0.0
 10
338.4580659910077
 20
-186.838802795427
 30
0.0
 10
338.4520995362456
 20
-186.836055759686
 30
0.0
 10
338.7637763779896
 20
-186.91754716625
 30
0.0
 10
339.0809418998821
 20
-187.0004737498939
 30
0.0
 10
339.4008925310499
 20
-187.0841286197819
 30
0.0
  0
HATCH
  5
92
330
70
100
AcDbEntity
  8
Engraving
 62
     7
440
 33554687
100
AcDbHatch
 10
0.0
 20
0.0
 30
0.0
210
0.0
220
0.0
230
1.0
  2
SOLID
 70
     1
 71
     1
 91
        1
 92
        1
 93
        1
 72
     4
 94
        3
 73
     0
 74
     0
 95
       20
 96
       16
 40
0.0
 40
0.0
 40
0.0
 40
0.0
 40
1.0
 40
1.0
 40
1.0
 40
2.0
 40
2.0
 40
2.0
 40
3.0
 40
3.0
 40
3.0
 40
4.0
 40
4.0
 40
4.0
 40
5.0
 40
5.0
 40
5.0
 40
5.0
 10
339.4008925310499
 20
-187.0841286197819
 10
339.4005279667823
 20
-187.0850585619691
 10
339.4001593592884
 20
-187.0869769046634
 10
339.399143161662
 20
-187.0884477969138
 10
339.3526992912539
 20
-187.1556487549484
 10
339.3001932763863
 20
-187.1695395978862
 10
339.2192013821804
 20
-187.136094530403
 10
338.9752991267954
 20
-187.035376400673
 10
338.7274173255997
 20
-186.9442990085411
 10
338.4811437177959
 20
-186.8493150168899
 10
338.46933446362
 20
-186.8447603217909
 10
338.4580659910077
 20
-186.838802795427
 10
338.4520995362456
 20
-186.836055759686
 10
338.7637763779896
 20
-186.91754716625
 10
339.0809418998821
 20
-187.0004737498939
 10
339.4008925310499
 20
-187.0841286197819
 97
        0
 97
        1
330
91
 75
     2
 76
     1
 98
        1
 10
0.0
 20
0.0
450
        0
451
        0
460
0.0
461
0.0
452
        0
462
0.0
453
        0
470

  0
SPLINE
  5
93
330
70
100
AcDbEntity
  8
Engraving
100
AcDbSpline
210
0.0
220
0.0
230
1.0
 70
     9
 71
     3
 72
    17
 73
    13
 74
     0
 42
0.0000000001
 43
0.0000000001
 40
0.0
 40
0.0
 40
0.0
 40
0.0
 40
1.0
 40
1.0
 40
1.0
 40
2.0
 40
2.0
 40
2.0
 40
3.0
 40
3.0
 40
3.0
 40
4.0
 40
4.0
 40
4.0
 40
4.0
 10
335.9216768120301
 20
-187.8643634229231
 30
0.0
 10
336.0372531190725
 20
-187.8132149180067
 30
0.0
 10
336.1435636984244
 20
-187.7659155650955
 30
0.0
 10
336.2502556888227
 20
-187.7194939293568
 30
0.0
 10
336.2576756835569
 20
-187.7162654126799
 30
0.0
 10
336.2686213719108
 20
-187.7174591754205
 30
0.0
 10
336.2767597132418
 20
-187.7201405087243
 30
0.0
 10
336.3462011197782
 20
-187.7430194450526
 30
0.0
 10
336.4153723040004
 20
-187.7667181456343
 30
0.0
 10
336.4808318061774
 20
-187.7888874956429
 30
0.0
 10
336.3163439127403
 20
-187.9204396106199
 30
0.0
 10
336.1259069277385
 20
-187.8997339087476
 30
0.0
 10
335.9216768120301
 20
-187.8643634229231
 30
0.0
  0
HATCH
  5
94
330
70
100
AcDbEntity
  8
Engraving
 62
     7
440
 33554687
100
AcDbHatch
 10
0.0
 20
0.0
 30
0.0
210
0.0
220
0.0
230
1.0
  2
SOLID
 70
     1
 71
     1
 91
        1
 92
        1
 93
        1
 72
     4
 94
        3
 73
     0
 74
     0
 95
       17
 96
       13
 40
0.0
 40
0.0
 40
0.0
 40
0.0
 40
1.0
 40
1.0
 40
1.0
 40
2.0
 40
2.0
 40
2.0
 40
3.0
 40
3.0
 40
3.0
 40
4.0
 40
4.0
 40
4.0
 40
4.0
 10
335.9216768120301
 20
-187.8643634229231
 10
336.0372531190725
 20
-187.8132149180067
 10
336.1435636984244
 20
-187.7659155650955
 10
336.2502556888227
 20
-187.7194939293568
 10
336.2576756835569
 20
-187.7162654126799
 10
336.2686213719108
 20
-187.7174591754205
 10
336.2767597132418
 20
-187.7201405087243
 10
336.3462011197782
 20
-187.7430194450526
 10
336.4153723040004
 20
-187.7667181456343
 10
336.4808318061774
 20
-187.7888874956429
 10
336.3163439127403
 20
-187.9204396106199
 10
336.1259069277385
 20
-187.8997339087476
 10
335.9216768120301
 20
-187.8643634229231
 97
        0
 97
        1
330
93
 75
     2
 76
     1
 98
        1
 10
0.0
 20
0.0
450
        0
451
        0
460
0.0
461
0.0
452
        0
462
0.0
453
        0
470

  0
SPLINE
  5
95
330
70
100
AcDbEntity
  8
Engraving
100
AcDbSpline
210
0.0
220
0.0
230
1.0
 70
     9
 71
     3
 72
    20
 73
    16
 74
     0
 42
0.0000000001
 43
0.0000000001
 40
0.0
 40
0.0
 40
0.0
 40
0.0
 40
1.0
 40
1.0
 40
1.0
 40
2.0
 40
2.0
 40
2.0
 40
3.0
 40
3.0
 40
3.0
 40
4.0
 40
4.0
 40
4.0
 40
5.0
 40
5.0
 40
5.0
 40
5.0
 10
339.505059016446
 20
-189.7647616026104
 30
0.0
 10
339.4189026957501
 20
-189.7647616026104
 30
0.0
 10
339.3326823573893
 20
-189.7665500566404
 30
0.0
 10
339.2466392468786
 20
-189.7634337395098
 30
0.0
 10
339.2265491560026
 20
-189.7627059586692
 30
0.0
 10
339.2070628527819
 20
-189.7453345712444
 30
0.0
 10
339.1872982411887
 20
-189.7356213924961
 30
0.0
 10
339.1895664881241
 20
-189.7293658466172
 30
0.0
 10
339.1918347350601
 20
-189.7231103007372
 30
0.0
 10
339.1941023081255
 20
-189.7168547548579
 30
0.0
 10
339.2984544706981
 20
-189.7286774872384
 30
0.0
 10
339.4028066332699
 20
-189.7405002196179
 30
0.0
 10
339.5071587958443
 20
-189.7523229519987
 30
0.0
 10
339.5064586447538
 20
-189.7564692811814
 30
0.0
 10
339.5057584936647
 20
-189.7606152734271
 30
0.0
 10
339.505059016446
 20
-189.7647616026104
 30
0.0
  0
HATCH
  5
96
330
70
100
AcDbEntity
  8
Engraving
 62
     7
440
 33554687
100
AcDbHatch
 10
0.0
 20
0.0
 30
0.0
210
0.0
220
0.0
230
1.0
  2
SOLID
 70
     1
 71
     1
 91
        1
 92
        1
 93
        1
 72
     4
 94
        3
 73
     0
 74
     0
 95
       20
 96
       16
 40
0.0
 40
0.0
 40
0.0
 40
0.0
 40
1.0
 40
1.0
 40
1.0
 40
2.0
 40
2.0
 40
2.0
 40
3.0
 40
3.0
 40
3.0
 40
4.0
 40
4.0
 40
4.0
 40
5.0
 40
5.0
 40
5.0
 40
5.0
 10
339.505059016446
 20
-189.7647616026104
 10
339.4189026957501
 20
-189.7647616026104
 10
339.3326823573893
 20
-189.7665500566404
 10
339.2466392468786
 20
-189.7634337395098
 10
339.2265491560026
 20
-189.7627059586692
 10
339.2070628527819
 20
-189.7453345712444
 10
339.1872982411887
 20
-189.7356213924961
 10
339.1895664881241
 20
-189.7293658466172
 10
339.1918347350601
 20
-189.7231103007372
 10
339.1941023081255
 20
-189.7168547548579
 10
339.2984544706981
 20
-189.7286774872384
 10
339.4028066332699
 20
-189.7405002196179
 10
339.5071587958443
 20
-189.7523229519987
 10
339.5064586447538
 20
-189.7564692811814
 10
339.5057584936647
 20
-189.7606152734271
 10
339.505059016446
 20
-189.7647616026104
 97
        0
 97
        1
330
95
 75
     2
 76
     1
 98
        1
 10
0.0
 20
0.0
450
        0
451
        0
460
0.0
461
0.0
452
        0
462
0.0
453
        0
470

  0
CIRCLE
  5
98
330
70
100
AcDbEntity
  8
Body
 62
     7
370
    18
100
AcDbCircle
 10
338.666666582
 20
-190.4999999523749
 30
0.0
 40
5.999995762388882
  0
CIRCLE
  5
9A
330
70
100
AcDbEntity
  8
Handles
100
AcDbCircle
 10
333.9222288380729
 20
-190.499999952375
 30
0.0
 40
0.549999611552439
  0
HATCH
  5
9B
330
70
100
AcDbEntity
  8
Handles
 62
     7
440
 33554687
100
AcDbHatch
 10
0.0
 20
0.0
 30
0.0
210
0.0
220
0.0
230
1.0
  2
SOLID
 70
     1
 71
     1
 91
        1
 92
        1
 93
        1
 72
     2
 10
333.9222288380729
 20
-190.499999952375
 40
0.549999611552439
 50
0.0
 51
360.0
 73
     1
 97
        1
330
9A
 75
     2
 76
     1
 98
        1
 10
0.0
 20
0.0
450
        0
451
        0
460
0.0
461
0.0
452
        0
462
0.0
453
        0
470

  0
CIRCLE
  5
9C
330
70
100
AcDbEntity
  8
Handles
100
AcDbCircle
 10
343.4111043259274
 20
-190.499999952375
 30
0.0
 40
0.5499996115518374
  0
HATCH
  5
9D
330
70
100
AcDbEntity
  8
Handles
 62
     7
440
 33554687
100
AcDbHatch
 10
0.0
 20
0.0
 30
0.0
210
0.0
220
0.0
230
1.0
  2
SOLID
 70
     1
 71
     1
 91
        1
 92
        1
 93
        1
 72
     2
 10
343.4111043259274
 20
-190.499999952375
 40
0.5499996115518374
 50
0.0
 51
360.0
 73
     1
 97
        1
330
9C
 75
     2
 76
     1
 98
        1
 10
0.0
 20
0.0
450
        0
451
        0
460
0.0
461
0.0
452
        0
462
0.0
453
        0
470

  0
ENDSEC
  0
SECTION
  2
OBJECTS
  0
DICTIONARY
  5
C
330
0
100
AcDbDictionary
281
     1
  3
ACAD_COLOR
350
63
  3
ACAD_DETAILVIEWSTYLE
350
6A
  3
ACAD_GROUP
350
D
  3
ACAD_LAYOUT
350
62
  3
ACAD_MATERIAL
350
10
  3
ACAD_MLEADERSTYLE
350
66
  3
ACAD_MLINESTYLE
350
5F
  3
ACAD_PLOTSETTINGS
350
61
  3
ACAD_PLOTSTYLENAME
350
E
  3
ACAD_SCALELIST
350
42
  3
ACAD_SECTIONVIEWSTYLE
350
68
  3
ACAD_TABLESTYLE
350
64
  3
ACAD_VISUALSTYLE
350
29
  3
ACDB_RECOMPOSE_DATA
350
A6
  3
AcDbVariableDictionary
350
9E
  0
DICTIONARY
  5
63
102
{ACAD_REACTORS
330
C
102
}
330
C
100
AcDbDictionary
281
     1
  0
DICTIONARY
  5
6A
102
{ACAD_REACTORS
330
C
102
}
330
C
100
AcDbDictionary
281
     1
  3
Imperial24
350
6B
  0
DICTIONARY
  5
D
102
{ACAD_REACTORS
330
C
102
}
330
C
100
AcDbDictionary
281
     1
  0
DICTIONARY
  5
62
102
{ACAD_REACTORS
330
C
102
}
330
C
100
AcDbDictionary
281
     1
  3
Layout1
350
6F
  3
Layout2
350
77
  3
Model
350
73
  0
DICTIONARY
  5
10
102
{ACAD_REACTORS
330
C
102
}
330
C
100
AcDbDictionary
281
     1
  3
ByBlock
350
19
  3
ByLayer
350
11
  3
Global
350
21
  0
DICTIONARY
  5
66
102
{ACAD_REACTORS
330
C
102
}
330
C
100
AcDbDictionary
281
     1
  3
Standard
350
67
  0
DICTIONARY
  5
5F
102
{ACAD_REACTORS
330
C
102
}
330
C
100
AcDbDictionary
281
     1
  3
Standard
350
60
  0
DICTIONARY
  5
61
102
{ACAD_REACTORS
330
C
102
}
330
C
100
AcDbDictionary
281
     1
  0
ACDBDICTIONARYWDFLT
  5
E
102
{ACAD_REACTORS
330
C
102
}
330
C
100
AcDbDictionary
281
     1
  3
Normal
350
F
100
AcDbDictionaryWithDefault
340
F
  0
DICTIONARY
  5
42
102
{ACAD_REACTORS
330
C
102
}
330
C
100
AcDbDictionary
281
     1
  3
A0
350
43
  3
A1
350
44
  3
A2
350
45
  3
A3
350
46
  3
A4
350
47
  3
A5
350
48
  3
A6
350
49
  3
A7
350
4A
  3
A8
350
4B
  3
A9
350
4C
  3
B0
350
4D
  3
B1
350
4E
  3
B2
350
4F
  3
B3
350
50
  3
B4
350
51
  3
B5
350
52
  3
B6
350
53
  0
DICTIONARY
  5
68
102
{ACAD_REACTORS
330
C
102
}
330
C
100
AcDbDictionary
281
     1
  3
Imperial24
350
69
  0
DICTIONARY
  5
64
102
{ACAD_REACTORS
330
C
102
}
330
C
100
AcDbDictionary
281
     1
  3
Standard
350
65
  0
DICTIONARY
  5
29
102
{ACAD_REACTORS
330
C
102
}
330
C
100
AcDbDictionary
281
     1
  3
2dWireframe
350
2F
  3
Basic
350
2E
  3
Brighten
350
35
  3
ColorChange
350
39
  3
Conceptual
350
32
  3
Dim
350
34
  3
EdgeColorOff
350
41
  3
Facepattern
350
38
  3
Flat
350
2A
  3
FlatWithEdges
350
2B
  3
Gouraud
350
2C
  3
GouraudWithEdges
350
2D
  3
Hidden
350
31
  3
JitterOff
350
3F
  3
Linepattern
350
37
  3
OverhangOff
350
40
  3
Realistic
350
33
  3
Shaded
350
3E
  3
Shaded with edges
350
3D
  3
Shades of Gray
350
3A
  3
Sketchy
350
3B
  3
Thicken
350
36
  3
Wireframe
350
30
  3
X-Ray
350
3C
  0
XRECORD
  5
A6
102
{ACAD_REACTORS
330
C
102
}
330
C
100
AcDbXrecord
280
     1
 90
        1
330
65
  0
DICTIONARY
  5
9E
102
{ACAD_REACTORS
330
C
102
}
330
C
100
AcDbDictionary
281
     1
  3
CANNOSCALE
350
A3
  3
CMLEADERSTYLE
350
A0
  3
CTABLESTYLE
350
9F
  3
CVIEWDETAILSTYLE
350
A1
  3
CVIEWSECTIONSTYLE
350
A2
  0
ACDBDETAILVIEWSTYLE
  5
6B
102
{ACAD_REACTORS
330
6A
102
}
330
6A
100
AcDbModelDocViewStyle
 70
     0
  3
Imperial24
290
     1
300
Imperial24
 90
        0
100
AcDbDetailViewStyle
 70
     0
 71
     0
 90
        3
 71
     1
340
55
 62
   256
 40
0.24
340
0
 62
   256
 40
0.24
300

 40
0.36
280
     3
 71
     2
340
5D
 90
       25
 62
   256
 71
     3
340
55
 62
   256
 40
0.24
 90
        1
 40
0.75
 90
        1
300
%<\AcVar ViewType \f "%tc1">% %<\AcVar ViewDetailId>%\PSCALE %<\AcVar ViewScale \f "%sn">%
 71
     4
340
5D
 90
       25
 62
   256
340
5D
 90
       25
 62
   256
280
     0
  0
LAYOUT
  5
6F
102
{ACAD_REACTORS
330
62
102
}
330
62
100
AcDbPlotSettings
  1

  2

  4

  6

 40
0.0
 41
0.0
 42
0.0
 43
0.0
 44
0.0
 45
0.0
 46
0.0
 47
0.0
 48
0.0
 49
0.0
140
0.0
141
0.0
142
1.0
143
1.0
 70
   688
 72
     0
 73
     0
 74
     5
  7

 75
    16
147
1.0
 76
     0
 77
     2
 78
   300
148
0.0
149
0.0
100
AcDbLayout
  1
Layout1
 70
     1
 71
     1
 10
0.0
 20
0.0
 11
12.0
 21
9.0
 12
0.0
 22
0.0
 32
0.0
 14
0.0
 24
0.0
 34
0.0
 15
0.0
 25
0.0
 35
0.0
146
0.0
 13
0.0
 23
0.0
 33
0.0
 16
1.0
 26
0.0
 36
0.0
 17
0.0
 27
1.0
 37
0.0
 76
     0
330
6C
  0
LAYOUT
  5
77
102
{ACAD_REACTORS
330
62
102
}
330
62
100
AcDbPlotSettings
  1

  2

  4

  6

 40
0.0
 41
0.0
 42
0.0
 43
0.0
 44
0.0
 45
0.0
 46
0.0
 47
0.0
 48
0.0
 49
0.0
140
0.0
141
0.0
142
1.0
143
1.0
 70
   688
 72
     0
 73
     0
 74
     5
  7

 75
    16
147
1.0
 76
     0
 77
     2
 78
   300
148
0.0
149
0.0
100
AcDbLayout
  1
Layout2
 70
     1
 71
     2
 10
0.0
 20
0.0
 11
12.0
 21
9.0
 12
0.0
 22
0.0
 32
0.0
 14
0.0
 24
0.0
 34
0.0
 15
0.0
 25
0.0
 35
0.0
146
0.0
 13
0.0
 23
0.0
 33
0.0
 16
1.0
 26
0.0
 36
0.0
 17
0.0
 27
1.0
 37
0.0
 76
     0
330
74
  0
LAYOUT
  5
73
102
{ACAD_REACTORS
330
62
102
}
330
62
100
AcDbPlotSettings
  1

  2

  4

  6

 40
0.0
 41
0.0
 42
0.0
 43
0.0
 44
0.0
 45
0.0
 46
0.0
 47
0.0
 48
0.0
 49
0.0
140
0.0
141
0.0
142
1.0
143
1.0
 70
  1712
 72
     0
 73
     0
 74
     0
  7

 75
     0
147
1.0
 76
     0
 77
     2
 78
   300
148
0.0
149
0.0
100
AcDbLayout
  1
Model
 70
     1
 71
     0
 10
0.0
 20
0.0
 11
12.0
 21
9.0
 12
0.0
 22
0.0
 32
0.0
 14
0.0
 24
0.0
 34
0.0
 15
0.0
 25
0.0
 35
0.0
146
0.0
 13
0.0
 23
0.0
 33
0.0
 16
1.0
 26
0.0
 36
0.0
 17
0.0
 27
1.0
 37
0.0
 76
     0
330
70
  0
MATERIAL
  5
19
102
{ACAD_XDICTIONARY
360
1A
102
}
102
{ACAD_REACTORS
330
10
102
}
330
10
100
AcDbMaterial
  1
ByBlock
 72
     0
 43
0.0208333333333333
 43
0.0
 43
0.0
 43
0.0
 43
0.0
 43
0.0208333333333333
 43
0.0
 43
0.0
 43
0.0
 43
0.0
 43
1.0
 43
0.0
 43
0.0
 43
0.0
 43
0.0
 43
1.0
 77
     0
 47
0.0208333333333333
 47
0.0
 47
0.0
 47
0.0
 47
0.0
 47
0.0208333333333333
 47
0.0
 47
0.0
 47
0.0
 47
0.0
 47
1.0
 47
0.0
 47
0.0
 47
0.0
 47
0.0
 47
1.0
171
     0
 49
0.0208333333333333
 49
0.0
 49
0.0
 49
0.0
 49
0.0
 49
0.0208333333333333
 49
0.0
 49
0.0
 49
0.0
 49
0.0
 49
1.0
 49
0.0
 49
0.0
 49
0.0
 49
0.0
 49
1.0
175
     0
142
0.0208333333333333
142
0.0
142
0.0
142
0.0
142
0.0
142
0.0208333333333333
142
0.0
142
0.0
142
0.0
142
0.0
142
1.0
142
0.0
142
0.0
142
0.0
142
0.0
142
1.0
179
     0
144
0.0208333333333333
144
0.0
144
0.0
144
0.0
144
0.0
144
0.0208333333333333
144
0.0
144
0.0
144
0.0
144
0.0
144
1.0
144
0.0
144
0.0
144
0.0
144
0.0
144
1.0
147
0.0208333333333333
147
0.0
147
0.0
147
0.0
147
0.0
147
0.0208333333333333
147
0.0
147
0.0
147
0.0
147
0.0
147
1.0
147
0.0
147
0.0
147
0.0
147
0.0
147
1.0
  0
MATERIAL
  5
11
102
{ACAD_XDICTIONARY
360
12
102
}
102
{ACAD_REACTORS
330
10
102
}
330
10
100
AcDbMaterial
  1
ByLayer
 72
     0
 43
0.0208333333333333
 43
0.0
 43
0.0
 43
0.0
 43
0.0
 43
0.0208333333333333
 43
0.0
 43
0.0
 43
0.0
 43
0.0
 43
1.0
 43
0.0
 43
0.0
 43
0.0
 43
0.0
 43
1.0
 77
     0
 47
0.0208333333333333
 47
0.0
 47
0.0
 47
0.0
 47
0.0
 47
0.0208333333333333
 47
0.0
 47
0.0
 47
0.0
 47
0.0
 47
1.0
 47
0.0
 47
0.0
 47
0.0
 47
0.0
 47
1.0
171
     0
 49
0.0208333333333333
 49
0.0
 49
0.0
 49
0.0
 49
0.0
 49
0.0208333333333333
 49
0.0
 49
0.0
 49
0.0
 49
0.0
 49
1.0
 49
0.0
 49
0.0
 49
0.0
 49
0.0
 49
1.0
175
     0
142
0.0208333333333333
142
0.0
142
0.0
142
0.0
142
0.0
142
0.0208333333333333
142
0.0
142
0.0
142
0.0
142
0.0
142
1.0
142
0.0
142
0.0
142
0.0
142
0.0
142
1.0
179
     0
144
0.0208333333333333
144
0.0
144
0.0
144
0.0
144
0.0
144
0.0208333333333333
144
0.0
144
0.0
144
0.0
144
0.0
144
1.0
144
0.0
144
0.0
144
0.0
144
0.0
144
1.0
147
0.0208333333333333
147
0.0
147
0.0
147
0.0
147
0.0
147
0.0208333333333333
147
0.0
147
0.0
147
0.0
147
0.0
147
1.0
147
0.0
147
0.0
147
0.0
147
0.0
147
1.0
  0
MATERIAL
  5
21
102
{ACAD_XDICTIONARY
360
22
102
}
102
{ACAD_REACTORS
330
10
102
}
330
10
100
AcDbMaterial
  1
Global
 72
     0
 43
0.0208333333333333
 43
0.0
 43
0.0
 43
0.0
 43
0.0
 43
0.0208333333333333
 43
0.0
 43
0.0
 43
0.0
 43
0.0
 43
1.0
 43
0.0
 43
0.0
 43
0.0
 43
0.0
 43
1.0
 77
     0
 47
0.0208333333333333
 47
0.0
 47
0.0
 47
0.0
 47
0.0
 47
0.0208333333333333
 47
0.0
 47
0.0
 47
0.0
 47
0.0
 47
1.0
 47
0.0
 47
0.0
 47
0.0
 47
0.0
 47
1.0
171
     0
 49
0.0208333333333333
 49
0.0
 49
0.0
 49
0.0
 49
0.0
 49
0.0208333333333333
 49
0.0
 49
0.0
 49
0.0
 49
0.0
 49
1.0
 49
0.0
 49
0.0
 49
0.0
 49
0.0
 49
1.0
175
     0
142
0.0208333333333333
142
0.0
142
0.0
142
0.0
142
0.0
142
0.0208333333333333
142
0.0
142
0.0
142
0.0
142
0.0
142
1.0
142
0.0
142
0.0
142
0.0
142
0.0
142
1.0
179
     0
144
0.0208333333333333
144
0.0
144
0.0
144
0.0
144
0.0
144
0.0208333333333333
144
0.0
144
0.0
144
0.0
144
0.0
144
1.0
144
0.0
144
0.0
144
0.0
144
0.0
144
1.0
147
0.0208333333333333
147
0.0
147
0.0
147
0.0
147
0.0
147
0.0208333333333333
147
0.0
147
0.0
147
0.0
147
0.0
147
1.0
147
0.0
147
0.0
147
0.0
147
0.0
147
1.0
  0
MLEADERSTYLE
  5
67
102
{ACAD_REACTORS
330
66
102
}
330
66
100
AcDbMLeaderStyle
179
     2
170
     2
171
     1
172
     0
 90
        2
 40
0.0
 41
0.0
173
     1
 91
-1056964608
340
5B
 92
       -2
290
     1
 42
0.09
291
     1
 43
0.36
  3
Standard
 44
0.18
300

342
55
174
     1
178
     6
175
     1
176
     0
 93
-1056964608
 45
0.18
292
     0
297
     0
 46
0.18
 94
-1056964608
 47
1.0
 49
1.0
140
1.0
293
     1
141
0.0
294
     1
177
     0
142
1.0
295
     1
296
     0
143
0.125
271
     0
272
     9
273
     9
298
     1
  0
MLINESTYLE
  5
60
102
{ACAD_REACTORS
330
5F
102
}
330
5F
100
AcDbMlineStyle
  2
STANDARD
 70
     0
  3

 62
   256
 51
90.0
 52
90.0
 71
     2
 49
0.5
 62
   256
  6
BYLAYER
 49
-0.5
 62
   256
  6
BYLAYER
  0
ACDBPLACEHOLDER
  5
F
102
{ACAD_REACTORS
330
E
102
}
330
E
  0
SCALE
  5
43
102
{ACAD_REACTORS
330
42
102
}
330
42
100
AcDbScale
 70
     0
300
1:1
140
1.0
141
1.0
290
     1
  0
SCALE
  5
44
102
{ACAD_REACTORS
330
42
102
}
330
42
100
AcDbScale
 70
     0
300
1/128" = 1'-0"
140
0.0078125
141
12.0
290
     0
  0
SCALE
  5
45
102
{ACAD_REACTORS
330
42
102
}
330
42
100
AcDbScale
 70
     0
300
1/64" = 1'-0"
140
0.015625
141
12.0
290
     0
  0
SCALE
  5
46
102
{ACAD_REACTORS
330
42
102
}
330
42
100
AcDbScale
 70
     0
300
1/32" = 1'-0"
140
0.03125
141
12.0
290
     0
  0
SCALE
  5
47
102
{ACAD_REACTORS
330
42
102
}
330
42
100
AcDbScale
 70
     0
300
1/16" = 1'-0"
140
0.0625
141
12.0
290
     0
  0
SCALE
  5
48
102
{ACAD_REACTORS
330
42
102
}
330
42
100
AcDbScale
 70
     0
300
3/32" = 1'-0"
140
0.09375
141
12.0
290
     0
  0
SCALE
  5
49
102
{ACAD_REACTORS
330
42
102
}
330
42
100
AcDbScale
 70
     0
300
1/8" = 1'-0"
140
0.125
141
12.0
290
     0
  0
SCALE
  5
4A
102
{ACAD_REACTORS
330
42
102
}
330
42
100
AcDbScale
 70
     0
300
3/16" = 1'-0"
140
0.1875
141
12.0
290
     0
  0
SCALE
  5
4B
102
{ACAD_REACTORS
330
42
102
}
330
42
100
AcDbScale
 70
     0
300
1/4" = 1'-0"
140
0.25
141
12.0
290
     0
  0
SCALE
  5
4C
102
{ACAD_REACTORS
330
42
102
}
330
42
100
AcDbScale
 70
     0
300
3/8" = 1'-0"
140
0.375
141
12.0
290
     0
  0
SCALE
  5
4D
102
{ACAD_REACTORS
330
42
102
}
330
42
100
AcDbScale
 70
     0
300
1/2" = 1'-0"
140
0.5
141
12.0
290
     0
  0
SCALE
  5
4E
102
{ACAD_REACTORS
330
42
102
}
330
42
100
AcDbScale
 70
     0
300
3/4" = 1'-0"
140
0.75
141
12.0
290
     0
  0
SCALE
  5
4F
102
{ACAD_REACTORS
330
42
102
}
330
42
100
AcDbScale
 70
     0
300
1" = 1'-0"
140
1.0
141
12.0
290
     0
  0
SCALE
  5
50
102
{ACAD_REACTORS
330
42
102
}
330
42
100
AcDbScale
 70
     0
300
1-1/2" = 1'-0"
140
1.5
141
12.0
290
     0
  0
SCALE
  5
51
102
{ACAD_REACTORS
330
42
102
}
330
42
100
AcDbScale
 70
     0
300
3" = 1'-0"
140
3.0
141
12.0
290
     0
  0
SCALE
  5
52
102
{ACAD_REACTORS
330
42
102
}
330
42
100
AcDbScale
 70
     0
300
6" = 1'-0"
140
6.0
141
12.0
290
     0
  0
SCALE
  5
53
102
{ACAD_REACTORS
330
42
102
}
330
42
100
AcDbScale
 70
     0
300
1'-0" = 1'-0"
140
12.0
141
12.0
290
     0
  0
ACDBSECTIONVIEWSTYLE
  5
69
102
{ACAD_REACTORS
330
68
102
}
330
68
100
AcDbModelDocViewStyle
 70
     0
  3
Imperial24
290
     1
300
Imperial24
 90
        0
100
AcDbSectionViewStyle
 70
     0
 71
     0
 90
       78
 71
     1
340
55
 62
   256
 40
0.24
340
0
340
0
 62
   256
 40
0.24
300
I, O, Q, S, X, Z
 40
0.48
 90
        3
 40
0.18
 90
        1
 71
     2
340
5D
 90
       25
 62
   256
340
5D
 90
       50
 62
   256
 40
0.24
 40
0.0
 40
0.24
 71
     3
340
55
 62
   256
 40
0.24
 90
        1
 40
0.75
 90
        1
300
%<\AcVar ViewType \f "%tc1">% %<\AcVar ViewSectionStartId>%-%<\AcVar ViewSectionEndId>%\PSCALE %<\AcVar ViewScale \f "%sn">%
 71
     4
 62
   256
 62
   257
300
ANSI31
 40
1.0
 90
        0
290
     0
290
     0
 90
        6
 40
0.0
 40
1.570796326794896
 40
0.2617993877991494
 40
1.308996938995747
 40
-0.2617993877991494
 40
1.832595714594046
  0
TABLESTYLE
  5
65
102
{ACAD_XDICTIONARY
360
A4
102
}
102
{ACAD_REACTORS
330
64
102
}
330
64
100
AcDbTableStyle
280
     0
  3
Standard
 70
     0
 71
     0
 40
0.06
 41
0.06
280
     0
281
     0
  7
Standard
140
0.18
170
     2
 62
     0
 63
     7
283
     0
 90
      512
 91
        0
  1

274
    -2
284
     1
 64
     0
275
    -2
285
     1
 65
     0
276
    -2
286
     1
 66
     0
277
    -2
287
     1
 67
     0
278
    -2
288
     1
 68
     0
279
    -2
289
     1
 69
     0
  7
Standard
140
0.25
170
     5
 62
     0
 63
     7
283
     0
 90
      512
 91
        0
  1

274
    -2
284
     1
 64
     0
275
    -2
285
     1
 65
     0
276
    -2
286
     1
 66
     0
277
    -2
287
     1
 67
     0
278
    -2
288
     1
 68
     0
279
    -2
289
     1
 69
     0
  7
Standard
140
0.18
170
     5
 62
     0
 63
     7
283
     0
 90
      512
 91
        0
  1

274
    -2
284
     1
 64
     0
275
    -2
285
     1
 65
     0
276
    -2
286
     1
 66
     0
277
    -2
287
     1
 67
     0
278
    -2
288
     1
 68
     0
279
    -2
289
     1
 69
     0
  0
VISUALSTYLE
  5
2F
102
{ACAD_REACTORS
330
29
102
}
330
29
100
AcDbVisualStyle
  2
2dWireframe
 70
     4
177
     3
291
     0
 70
    58
 90
        0
176
     1
 90
        2
176
     1
 90
        0
176
     1
 90
        0
176
     1
 40
0.6
176
     1
 40
30.0
176
     1
 62
     7
420
 16777215
176
     1
 90
        1
176
     1
 90
        4
176
     1
 62
     7
176
     1
 62
   257
176
     1
 90
        1
176
     1
 90
        1
176
     1
 40
1.0
176
     1
 90
        0
176
     1
 62
   257
176
     1
 40
1.0
176
     1
 90
        1
176
     1
 90
        6
176
     1
 90
        2
176
     1
 62
     7
176
     1
 90
        5
176
     1
 90
        0
176
     1
 90
        0
176
     1
290
     0
176
     1
 90
        1
176
     1
 40
0.0
176
     1
 90
        0
176
     1
290
     1
176
     1
290
     1
176
     1
290
     0
176
     1
290
     0
176
     1
290
     0
176
     1
290
     0
176
     1
290
     0
176
     1
290
     0
176
     1
290
     0
176
     1
 90
       50
176
     1
 40
0.0
176
     1
 40
1.0
176
     1
 90
        0
176
     1
 62
    18
420
        0
176
     1
 90
       50
176
     1
 90
        3
176
     1
 62
     5
420
      255
176
     1
290
     0
176
     1
 90
       50
176
     1
 90
       50
176
     1
 90
       50
176
     1
290
     0
176
     1
 90
       50
176
     1
 62
   256
176
     0
 40
1.0
176
     0
 90
        2
176
     1
  1
strokes_ogs.tif
176
     1
290
     0
176
     1
 40
1.0
176
     1
 40
1.0
176
     1
  0
VISUALSTYLE
  5
2E
102
{ACAD_REACTORS
330
29
102
}
330
29
100
AcDbVisualStyle
  2
Basic
 70
     7
177
     3
291
     1
 70
    58
 90
        1
176
     1
 90
        0
176
     1
 90
        1
176
     1
 90
        0
176
     1
 40
0.6
176
     1
 40
30.0
176
     1
 62
     7
420
 16777215
176
     1
 90
        0
176
     1
 90
        4
176
     1
 62
     7
176
     1
 62
   257
176
     1
 90
        1
176
     1
 90
        1
176
     1
 40
1.0
176
     1
 90
        8
176
     1
 62
     7
176
     1
 40
1.0
176
     1
 90
        1
176
     1
 90
        6
176
     1
 90
        2
176
     1
 62
     7
176
     1
 90
        5
176
     1
 90
        0
176
     1
 90
        0
176
     1
290
     0
176
     1
 90
        1
176
     1
 40
0.0
176
     1
 90
        0
176
     1
290
     0
176
     1
290
     1
176
     1
290
     1
176
     1
290
     0
176
     1
290
     0
176
     1
290
     0
176
     1
290
     0
176
     1
290
     0
176
     1
290
     0
176
     1
 90
       50
176
     1
 40
0.0
176
     1
 40
1.0
176
     1
 90
        0
176
     1
 62
    18
420
        0
176
     1
 90
       50
176
     1
 90
        3
176
     1
 62
     5
420
      255
176
     1
290
     0
176
     1
 90
       50
176
     1
 90
       50
176
     1
 90
       50
176
     1
290
     0
176
     1
 90
       50
176
     1
 62
   256
176
     0
 40
1.0
176
     0
 90
        2
176
     1
  1
strokes_ogs.tif
176
     1
290
     0
176
     1
 40
1.0
176
     1
 40
1.0
176
     1
  0
VISUALSTYLE
  5
35
102
{ACAD_REACTORS
330
29
102
}
330
29
100
AcDbVisualStyle
  2
Brighten
 70
    12
177
     3
291
     1
 70
    58
 90
        2
176
     1
 90
        2
176
     1
 90
        0
176
     1
 90
        0
176
     1
 40
0.6
176
     1
 40
30.0
176
     1
 62
     7
420
 16777215
176
     1
 90
        1
176
     1
 90
        4
176
     1
 62
     7
176
     1
 62
   257
176
     1
 90
        1
176
     1
 90
        1
176
     1
 40
1.0
176
     1
 90
        8
176
     1
 62
     7
176
     1
 40
1.0
176
     1
 90
        1
176
     1
 90
        6
176
     1
 90
        2
176
     1
 62
     7
176
     1
 90
        5
176
     1
 90
        0
176
     1
 90
        0
176
     1
290
     0
176
     1
 90
        1
176
     1
 40
50.0
176
     1
 90
        0
176
     1
290
     0
176
     1
290
     1
176
     1
290
     1
176
     1
290
     0
176
     1
290
     0
176
     1
290
     0
176
     1
290
     0
176
     1
290
     0
176
     1
290
     0
176
     1
 90
       50
176
     1
 40
0.0
176
     1
 40
1.0
176
     1
 90
        0
176
     1
 62
    18
420
        0
176
     1
 90
       50
176
     1
 90
        3
176
     1
 62
     5
420
      255
176
     1
290
     0
176
     1
 90
       50
176
     1
 90
       50
176
     1
 90
       50
176
     1
290
     0
176
     1
 90
       50
176
     1
 62
   256
176
     0
 40
1.0
176
     0
 90
        2
176
     1
  1
strokes_ogs.tif
176
     1
290
     0
176
     1
 40
1.0
176
     1
 40
1.0
176
     1
  0
VISUALSTYLE
  5
39
102
{ACAD_REACTORS
330
29
102
}
330
29
100
AcDbVisualStyle
  2
ColorChange
 70
    16
177
     3
291
     1
 70
    58
 90
        2
176
     1
 90
        2
176
     1
 90
        3
176
     1
 90
        0
176
     1
 40
0.6
176
     1
 40
30.0
176
     1
 62
     8
420
  8421504
176
     1
 90
        1
176
     1
 90
        4
176
     1
 62
     7
176
     1
 62
   257
176
     1
 90
        1
176
     1
 90
        1
176
     1
 40
1.0
176
     1
 90
        8
176
     1
 62
     8
420
  8421504
176
     1
 40
1.0
176
     1
 90
        1
176
     1
 90
        6
176
     1
 90
        2
176
     1
 62
     7
176
     1
 90
        5
176
     1
 90
        0
176
     1
 90
        0
176
     1
290
     0
176
     1
 90
        1
176
     1
 40
0.0
176
     1
 90
        0
176
     1
290
     0
176
     1
290
     1
176
     1
290
     1
176
     1
290
     0
176
     1
290
     0
176
     1
290
     0
176
     1
290
     0
176
     1
290
     0
176
     1
290
     0
176
     1
 90
       50
176
     1
 40
0.0
176
     1
 40
1.0
176
     1
 90
        0
176
     1
 62
    18
420
        0
176
     1
 90
       50
176
     1
 90
        3
176
     1
 62
     5
420
      255
176
     1
290
     0
176
     1
 90
       50
176
     1
 90
       50
176
     1
 90
       50
176
     1
290
     0
176
     1
 90
       50
176
     1
 62
   256
176
     0
 40
1.0
176
     0
 90
        2
176
     1
  1
strokes_ogs.tif
176
     1
290
     0
176
     1
 40
1.0
176
     1
 40
1.0
176
     1
  0
VISUALSTYLE
  5
32
102
{ACAD_REACTORS
330
29
102
}
330
29
100
AcDbVisualStyle
  2
Conceptual
 70
     9
177
     3
291
     0
 70
    58
 90
        3
176
     1
 90
        2
176
     1
 90
        0
176
     1
 90
        0
176
     1
 40
0.6
176
     1
 40
30.0
176
     1
 62
     7
420
 16777215
176
     1
 90
        2
176
     1
 90
        2
176
     1
 62
     7
176
     1
 62
   257
176
     1
 90
        1
176
     1
 90
        1
176
     1
 40
179.0
176
     1
 90
        8
176
     1
 62
     7
176
     1
 40
1.0
176
     1
 90
        1
176
     1
 90
        6
176
     1
 90
        2
176
     1
 62
     7
176
     1
 90
        3
176
     1
 90
        0
176
     1
 90
        0
176
     1
290
     0
176
     1
 90
        1
176
     1
 40
0.0
176
     1
 90
        0
176
     1
290
     0
176
     1
290
     1
176
     1
290
     1
176
     1
290
     0
176
     1
290
     0
176
     1
290
     0
176
     1
290
     0
176
     1
290
     0
176
     1
290
     0
176
     1
 90
       50
176
     1
 40
0.0
176
     1
 40
1.0
176
     1
 90
        0
176
     1
 62
    18
420
        0
176
     1
 90
       50
176
     1
 90
        3
176
     1
 62
     5
420
      255
176
     1
290
     0
176
     1
 90
       50
176
     1
 90
       50
176
     1
 90
       50
176
     1
290
     0
176
     1
 90
       50
176
     1
 62
   256
176
     0
 40
1.0
176
     0
 90
        2
176
     1
  1
strokes_ogs.tif
176
     1
290
     0
176
     1
 40
1.0
176
     1
 40
1.0
176
     1
  0
VISUALSTYLE
  5
34
102
{ACAD_REACTORS
330
29
102
}
330
29
100
AcDbVisualStyle
  2
Dim
 70
    11
177
     3
291
     1
 70
    58
 90
        2
176
     1
 90
        2
176
     1
 90
        0
176
     1
 90
        0
176
     1
 40
0.6
176
     1
 40
30.0
176
     1
 62
     7
420
 16777215
176
     1
 90
        1
176
     1
 90
        4
176
     1
 62
     7
176
     1
 62
   257
176
     1
 90
        1
176
     1
 90
        1
176
     1
 40
1.0
176
     1
 90
        8
176
     1
 62
     7
176
     1
 40
1.0
176
     1
 90
        1
176
     1
 90
        6
176
     1
 90
        2
176
     1
 62
     7
176
     1
 90
        5
176
     1
 90
        0
176
     1
 90
        0
176
     1
290
     0
176
     1
 90
        1
176
     1
 40
-50.0
176
     1
 90
        0
176
     1
290
     0
176
     1
290
     1
176
     1
290
     1
176
     1
290
     0
176
     1
290
     0
176
     1
290
     0
176
     1
290
     0
176
     1
290
     0
176
     1
290
     0
176
     1
 90
       50
176
     1
 40
0.0
176
     1
 40
1.0
176
     1
 90
        0
176
     1
 62
    18
420
        0
176
     1
 90
       50
176
     1
 90
        3
176
     1
 62
     5
420
      255
176
     1
290
     0
176
     1
 90
       50
176
     1
 90
       50
176
     1
 90
       50
176
     1
290
     0
176
     1
 90
       50
176
     1
 62
   256
176
     0
 40
1.0
176
     0
 90
        2
176
     1
  1
strokes_ogs.tif
176
     1
290
     0
176
     1
 40
1.0
176
     1
 40
1.0
176
     1
  0
VISUALSTYLE
  5
41
102
{ACAD_REACTORS
330
29
102
}
330
29
100
AcDbVisualStyle
  2
EdgeColorOff
 70
    22
177
     3
291
     1
 70
    58
 90
        2
176
     0
 90
        2
176
     0
 90
        0
176
     0
 90
        0
176
     0
 40
0.6
176
     0
 40
30.0
176
     0
 62
     7
420
 16777215
176
     0
 90
        1
176
     0
 90
        4
176
     0
 62
     7
176
     0
 62
   257
176
     0
 90
        1
176
     0
 90
        1
176
     0
 40
1.0
176
     0
 90
        8
176
     2
 62
     7
176
     0
 40
1.0
176
     0
 90
        1
176
     0
 90
        6
176
     0
 90
        2
176
     0
 62
     7
176
     0
 90
        5
176
     0
 90
        0
176
     0
 90
        0
176
     0
290
     0
176
     0
 90
        1
176
     0
 40
0.0
176
     0
 90
        0
176
     0
290
     0
176
     0
290
     1
176
     0
290
     1
176
     0
290
     0
176
     0
290
     0
176
     0
290
     0
176
     0
290
     0
176
     0
290
     0
176
     0
290
     0
176
     0
 90
       50
176
     0
 40
0.0
176
     0
 40
1.0
176
     0
 90
        0
176
     0
 62
    18
420
        0
176
     0
 90
       50
176
     0
 90
        3
176
     0
 62
     5
420
      255
176
     0
290
     0
176
     0
 90
       50
176
     0
 90
       50
176
     0
 90
       50
176
     0
290
     0
176
     0
 90
       50
176
     0
 62
   256
176
     0
 40
1.0
176
     0
 90
        2
176
     0
  1
strokes_ogs.tif
176
     0
290
     0
176
     0
 40
1.0
176
     0
 40
1.0
176
     0
  0
VISUALSTYLE
  5
38
102
{ACAD_REACTORS
330
29
102
}
330
29
100
AcDbVisualStyle
  2
Facepattern
 70
    15
177
     3
291
     1
 70
    58
 90
        2
176
     1
 90
        2
176
     1
 90
        0
176
     1
 90
        0
176
     1
 40
0.6
176
     1
 40
30.0
176
     1
 62
     7
420
 16777215
176
     1
 90
        1
176
     1
 90
        4
176
     1
 62
     7
176
     1
 62
   257
176
     1
 90
        1
176
     1
 90
        1
176
     1
 40
1.0
176
     1
 90
        8
176
     1
 62
     7
176
     1
 40
1.0
176
     1
 90
        1
176
     1
 90
        6
176
     1
 90
        2
176
     1
 62
     7
176
     1
 90
        5
176
     1
 90
        0
176
     1
 90
        0
176
     1
290
     0
176
     1
 90
        1
176
     1
 40
0.0
176
     1
 90
        0
176
     1
290
     0
176
     1
290
     1
176
     1
290
     1
176
     1
290
     0
176
     1
290
     0
176
     1
290
     0
176
     1
290
     0
176
     1
290
     0
176
     1
290
     0
176
     1
 90
       50
176
     1
 40
0.0
176
     1
 40
1.0
176
     1
 90
        0
176
     1
 62
    18
420
        0
176
     1
 90
       50
176
     1
 90
        3
176
     1
 62
     5
420
      255
176
     1
290
     0
176
     1
 90
       50
176
     1
 90
       50
176
     1
 90
       50
176
     1
290
     0
176
     1
 90
       50
176
     1
 62
   256
176
     0
 40
1.0
176
     0
 90
        2
176
     1
  1
strokes_ogs.tif
176
     1
290
     0
176
     1
 40
1.0
176
     1
 40
1.0
176
     1
  0
VISUALSTYLE
  5
2A
102
{ACAD_REACTORS
330
29
102
}
330
29
100
AcDbVisualStyle
  2
Flat
 70
     0
177
     3
291
     1
 70
    58
 90
        2
176
     1
 90
        1
176
     1
 90
        1
176
     1
 90
        2
176
     1
 40
0.6
176
     1
 40
30.0
176
     1
 62
     7
420
 16777215
176
     1
 90
        0
176
     1
 90
        0
176
     1
 62
     7
176
     1
 62
   257
176
     1
 90
        1
176
     1
 90
        1
176
     1
 40
1.0
176
     1
 90
        8
176
     1
 62
     7
176
     1
 40
1.0
176
     1
 90
        1
176
     1
 90
        6
176
     1
 90
        2
176
     1
 62
     7
176
     1
 90
        5
176
     1
 90
        0
176
     1
 90
        0
176
     1
290
     0
176
     1
 90
       13
176
     1
 40
0.0
176
     1
 90
        0
176
     1
290
     0
176
     1
290
     1
176
     1
290
     1
176
     1
290
     0
176
     1
290
     0
176
     1
290
     0
176
     1
290
     0
176
     1
290
     0
176
     1
290
     0
176
     1
 90
       50
176
     1
 40
0.0
176
     1
 40
1.0
176
     1
 90
        0
176
     1
 62
    18
420
        0
176
     1
 90
       50
176
     1
 90
        3
176
     1
 62
     5
420
      255
176
     1
290
     0
176
     1
 90
       50
176
     1
 90
       50
176
     1
 90
       50
176
     1
290
     0
176
     1
 90
       50
176
     1
 62
   256
176
     0
 40
1.0
176
     0
 90
        2
176
     1
  1
strokes_ogs.tif
176
     1
290
     0
176
     1
 40
1.0
176
     1
 40
1.0
176
     1
  0
VISUALSTYLE
  5
2B
102
{ACAD_REACTORS
330
29
102
}
330
29
100
AcDbVisualStyle
  2
FlatWithEdges
 70
     1
177
     3
291
     1
 70
    58
 90
        2
176
     1
 90
        1
176
     1
 90
        1
176
     1
 90
        2
176
     1
 40
0.6
176
     1
 40
30.0
176
     1
 62
     7
420
 16777215
176
     1
 90
        1
176
     1
 90
        0
176
     1
 62
     7
176
     1
 62
   257
176
     1
 90
        1
176
     1
 90
        1
176
     1
 40
1.0
176
     1
 90
        0
176
     1
 62
   257
176
     1
 40
1.0
176
     1
 90
        1
176
     1
 90
        6
176
     1
 90
        2
176
     1
 62
     7
176
     1
 90
        5
176
     1
 90
        0
176
     1
 90
        0
176
     1
290
     0
176
     1
 90
       13
176
     1
 40
0.0
176
     1
 90
        0
176
     1
290
     0
176
     1
290
     1
176
     1
290
     1
176
     1
290
     0
176
     1
290
     0
176
     1
290
     0
176
     1
290
     0
176
     1
290
     0
176
     1
290
     0
176
     1
 90
       50
176
     1
 40
0.0
176
     1
 40
1.0
176
     1
 90
        0
176
     1
 62
    18
420
        0
176
     1
 90
       50
176
     1
 90
        3
176
     1
 62
     5
420
      255
176
     1
290
     0
176
     1
 90
       50
176
     1
 90
       50
176
     1
 90
       50
176
     1
290
     0
176
     1
 90
       50
176
     1
 62
   256
176
     0
 40
1.0
176
     0
 90
        2
176
     1
  1
strokes_ogs.tif
176
     1
290
     0
176
     1
 40
1.0
176
     1
 40
1.0
176
     1
  0
VISUALSTYLE
  5
2C
102
{ACAD_REACTORS
330
29
102
}
330
29
100
AcDbVisualStyle
  2
Gouraud
 70
     2
177
     3
291
     1
 70
    58
 90
        2
176
     1
 90
        2
176
     1
 90
        1
176
     1
 90
        2
176
     1
 40
0.6
176
     1
 40
30.0
176
     1
 62
     7
420
 16777215
176
     1
 90
        0
176
     1
 90
        0
176
     1
 62
     7
176
     1
 62
   257
176
     1
 90
        1
176
     1
 90
        1
176
     1
 40
1.0
176
     1
 90
        0
176
     1
 62
     7
176
     1
 40
1.0
176
     1
 90
        1
176
     1
 90
        6
176
     1
 90
        2
176
     1
 62
     7
176
     1
 90
        5
176
     1
 90
        0
176
     1
 90
        0
176
     1
290
     0
176
     1
 90
       13
176
     1
 40
0.0
176
     1
 90
        0
176
     1
290
     0
176
     1
290
     1
176
     1
290
     1
176
     1
290
     0
176
     1
290
     0
176
     1
290
     0
176
     1
290
     0
176
     1
290
     0
176
     1
290
     0
176
     1
 90
       50
176
     1
 40
0.0
176
     1
 40
1.0
176
     1
 90
        0
176
     1
 62
    18
420
        0
176
     1
 90
       50
176
     1
 90
        3
176
     1
 62
     5
420
      255
176
     1
290
     0
176
     1
 90
       50
176
     1
 90
       50
176
     1
 90
       50
176
     1
290
     0
176
     1
 90
       50
176
     1
 62
   256
176
     0
 40
1.0
176
     0
 90
        2
176
     1
  1
strokes_ogs.tif
176
     1
290
     0
176
     1
 40
1.0
176
     1
 40
1.0
176
     1
  0
VISUALSTYLE
  5
2D
102
{ACAD_REACTORS
330
29
102
}
330
29
100
AcDbVisualStyle
  2
GouraudWithEdges
 70
     3
177
     3
291
     1
 70
    58
 90
        2
176
     1
 90
        2
176
     1
 90
        1
176
     1
 90
        2
176
     1
 40
0.6
176
     1
 40
30.0
176
     1
 62
     7
420
 16777215
176
     1
 90
        1
176
     1
 90
        0
176
     1
 62
     7
176
     1
 62
   257
176
     1
 90
        1
176
     1
 90
        1
176
     1
 40
1.0
176
     1
 90
        0
176
     1
 62
   257
176
     1
 40
1.0
176
     1
 90
        1
176
     1
 90
        6
176
     1
 90
        2
176
     1
 62
     7
176
     1
 90
        5
176
     1
 90
        0
176
     1
 90
        0
176
     1
290
     0
176
     1
 90
       13
176
     1
 40
0.0
176
     1
 90
        0
176
     1
290
     0
176
     1
290
     1
176
     1
290
     1
176
     1
290
     0
176
     1
290
     0
176
     1
290
     0
176
     1
290
     0
176
     1
290
     0
176
     1
290
     0
176
     1
 90
       50
176
     1
 40
0.0
176
     1
 40
1.0
176
     1
 90
        0
176
     1
 62
    18
420
        0
176
     1
 90
       50
176
     1
 90
        3
176
     1
 62
     5
420
      255
176
     1
290
     0
176
     1
 90
       50
176
     1
 90
       50
176
     1
 90
       50
176
     1
290
     0
176
     1
 90
       50
176
     1
 62
   256
176
     0
 40
1.0
176
     0
 90
        2
176
     1
  1
strokes_ogs.tif
176
     1
290
     0
176
     1
 40
1.0
176
     1
 40
1.0
176
     1
  0
VISUALSTYLE
  5
31
102
{ACAD_REACTORS
330
29
102
}
330
29
100
AcDbVisualStyle
  2
Hidden
 70
     6
177
     3
291
     0
 70
    58
 90
        1
176
     1
 90
        2
176
     1
 90
        2
176
     1
 90
        0
176
     1
 40
0.6
176
     1
 40
30.0
176
     1
 62
     7
420
 16777215
176
     1
 90
        2
176
     1
 90
        2
176
     1
 62
     7
176
     1
 62
   257
176
     1
 90
        2
176
     1
 90
        1
176
     1
 40
40.0
176
     1
 90
        0
176
     1
 62
   257
176
     1
 40
1.0
176
     1
 90
        1
176
     1
 90
        6
176
     1
 90
        2
176
     1
 62
     7
176
     1
 90
        3
176
     1
 90
        0
176
     1
 90
        0
176
     1
290
     0
176
     1
 90
        1
176
     1
 40
0.0
176
     1
 90
        0
176
     1
290
     0
176
     1
290
     1
176
     1
290
     1
176
     1
290
     0
176
     1
290
     0
176
     1
290
     0
176
     1
290
     0
176
     1
290
     0
176
     1
290
     0
176
     1
 90
       50
176
     1
 40
0.0
176
     1
 40
1.0
176
     1
 90
        0
176
     1
 62
    18
420
        0
176
     1
 90
       50
176
     1
 90
        3
176
     1
 62
     5
420
      255
176
     1
290
     0
176
     1
 90
       50
176
     1
 90
       50
176
     1
 90
       50
176
     1
290
     0
176
     1
 90
       50
176
     1
 62
   256
176
     0
 40
1.0
176
     0
 90
        2
176
     1
  1
strokes_ogs.tif
176
     1
290
     0
176
     1
 40
1.0
176
     1
 40
1.0
176
     1
  0
VISUALSTYLE
  5
3F
102
{ACAD_REACTORS
330
29
102
}
330
29
100
AcDbVisualStyle
  2
JitterOff
 70
    20
177
     3
291
     1
 70
    58
 90
        2
176
     0
 90
        2
176
     0
 90
        0
176
     0
 90
        0
176
     0
 40
0.6
176
     0
 40
30.0
176
     0
 62
     7
420
 16777215
176
     0
 90
        1
176
     0
 90
        4
176
     0
 62
     7
176
     0
 62
   257
176
     0
 90
        1
176
     0
 90
        1
176
     0
 40
1.0
176
     0
 90
       10
176
     2
 62
     7
176
     0
 40
1.0
176
     0
 90
        1
176
     0
 90
        6
176
     0
 90
        2
176
     0
 62
     7
176
     0
 90
        5
176
     0
 90
        0
176
     0
 90
        0
176
     0
290
     0
176
     0
 90
        1
176
     0
 40
0.0
176
     0
 90
        0
176
     0
290
     0
176
     0
290
     1
176
     0
290
     1
176
     0
290
     0
176
     0
290
     0
176
     0
290
     0
176
     0
290
     0
176
     0
290
     0
176
     0
290
     0
176
     0
 90
       50
176
     0
 40
0.0
176
     0
 40
1.0
176
     0
 90
        0
176
     0
 62
    18
420
        0
176
     0
 90
       50
176
     0
 90
        3
176
     0
 62
     5
420
      255
176
     0
290
     0
176
     0
 90
       50
176
     0
 90
       50
176
     0
 90
       50
176
     0
290
     0
176
     0
 90
       50
176
     0
 62
   256
176
     0
 40
1.0
176
     0
 90
        2
176
     0
  1
strokes_ogs.tif
176
     0
290
     0
176
     0
 40
1.0
176
     0
 40
1.0
176
     0
  0
VISUALSTYLE
  5
37
102
{ACAD_REACTORS
330
29
102
}
330
29
100
AcDbVisualStyle
  2
Linepattern
 70
    14
177
     3
291
     1
 70
    58
 90
        2
176
     1
 90
        2
176
     1
 90
        0
176
     1
 90
        0
176
     1
 40
0.6
176
     1
 40
30.0
176
     1
 62
     7
420
 16777215
176
     1
 90
        1
176
     1
 90
        4
176
     1
 62
     7
176
     1
 62
   257
176
     1
 90
        7
176
     1
 90
        7
176
     1
 40
1.0
176
     1
 90
        8
176
     1
 62
     7
176
     1
 40
1.0
176
     1
 90
        1
176
     1
 90
        6
176
     1
 90
        2
176
     1
 62
     7
176
     1
 90
        5
176
     1
 90
        0
176
     1
 90
        0
176
     1
290
     0
176
     1
 90
        1
176
     1
 40
0.0
176
     1
 90
        0
176
     1
290
     0
176
     1
290
     1
176
     1
290
     1
176
     1
290
     0
176
     1
290
     0
176
     1
290
     0
176
     1
290
     0
176
     1
290
     0
176
     1
290
     0
176
     1
 90
       50
176
     1
 40
0.0
176
     1
 40
1.0
176
     1
 90
        0
176
     1
 62
    18
420
        0
176
     1
 90
       50
176
     1
 90
        3
176
     1
 62
     5
420
      255
176
     1
290
     0
176
     1
 90
       50
176
     1
 90
       50
176
     1
 90
       50
176
     1
290
     0
176
     1
 90
       50
176
     1
 62
   256
176
     0
 40
1.0
176
     0
 90
        2
176
     1
  1
strokes_ogs.tif
176
     1
290
     0
176
     1
 40
1.0
176
     1
 40
1.0
176
     1
  0
VISUALSTYLE
  5
40
102
{ACAD_REACTORS
330
29
102
}
330
29
100
AcDbVisualStyle
  2
OverhangOff
 70
    21
177
     3
291
     1
 70
    58
 90
        2
176
     0
 90
        2
176
     0
 90
        0
176
     0
 90
        0
176
     0
 40
0.6
176
     0
 40
30.0
176
     0
 62
     7
420
 16777215
176
     0
 90
        1
176
     0
 90
        4
176
     0
 62
     7
176
     0
 62
   257
176
     0
 90
        1
176
     0
 90
        1
176
     0
 40
1.0
176
     0
 90
        9
176
     2
 62
     7
176
     0
 40
1.0
176
     0
 90
        1
176
     0
 90
        6
176
     0
 90
        2
176
     0
 62
     7
176
     0
 90
        5
176
     0
 90
        0
176
     0
 90
        0
176
     0
290
     0
176
     0
 90
        1
176
     0
 40
0.0
176
     0
 90
        0
176
     0
290
     0
176
     0
290
     1
176
     0
290
     1
176
     0
290
     0
176
     0
290
     0
176
     0
290
     0
176
     0
290
     0
176
     0
290
     0
176
     0
290
     0
176
     0
 90
       50
176
     0
 40
0.0
176
     0
 40
1.0
176
     0
 90
        0
176
     0
 62
    18
420
        0
176
     0
 90
       50
176
     0
 90
        3
176
     0
 62
     5
420
      255
176
     0
290
     0
176
     0
 90
       50
176
     0
 90
       50
176
     0
 90
       50
176
     0
290
     0
176
     0
 90
       50
176
     0
 62
   256
176
     0
 40
1.0
176
     0
 90
        2
176
     0
  1
strokes_ogs.tif
176
     0
290
     0
176
     0
 40
1.0
176
     0
 40
1.0
176
     0
  0
VISUALSTYLE
  5
33
102
{ACAD_REACTORS
330
29
102
}
330
29
100
AcDbVisualStyle
  2
Realistic
 70
     8
177
     3
291
     0
 70
    58
 90
        2
176
     1
 90
        3
176
     1
 90
        0
176
     1
 90
        2
176
     1
 40
0.6
176
     1
 40
30.0
176
     1
 62
     7
420
 16777215
176
     1
 90
        0
176
     1
 90
        0
176
     1
 62
     7
176
     1
 62
   257
176
     1
 90
        1
176
     1
 90
        1
176
     1
 40
1.0
176
     1
 90
        8
176
     1
 62
   257
176
     1
 40
1.0
176
     1
 90
        1
176
     1
 90
        6
176
     1
 90
        2
176
     1
 62
     7
176
     1
 90
        3
176
     1
 90
        0
176
     1
 90
        0
176
     1
290
     0
176
     1
 90
       13
176
     1
 40
0.0
176
     1
 90
        0
176
     1
290
     0
176
     1
290
     1
176
     1
290
     1
176
     1
290
     0
176
     1
290
     0
176
     1
290
     0
176
     1
290
     0
176
     1
290
     0
176
     1
290
     0
176
     1
 90
       50
176
     1
 40
0.0
176
     1
 40
1.0
176
     1
 90
        0
176
     1
 62
    18
420
        0
176
     1
 90
       50
176
     1
 90
        3
176
     1
 62
     5
420
      255
176
     1
290
     0
176
     1
 90
       50
176
     1
 90
       50
176
     1
 90
       50
176
     1
290
     0
176
     1
 90
       50
176
     1
 62
   256
176
     0
 40
1.0
176
     0
 90
        2
176
     1
  1
strokes_ogs.tif
176
     1
290
     0
176
     1
 40
1.0
176
     1
 40
1.0
176
     1
  0
VISUALSTYLE
  5
3E
102
{ACAD_REACTORS
330
29
102
}
330
29
100
AcDbVisualStyle
  2
Shaded
 70
    27
177
     3
291
     0
 70
    58
 90
        2
176
     1
 90
        2
176
     1
 90
        1
176
     1
 90
        2
176
     1
 40
0.6
176
     1
 40
30.0
176
     1
 62
     7
420
 16777215
176
     1
 90
        0
176
     1
 90
        4
176
     1
 62
     7
176
     1
 62
   257
176
     1
 90
        1
176
     1
 90
        1
176
     1
 40
1.0
176
     1
 90
        8
176
     1
 62
   257
176
     1
 40
1.0
176
     1
 90
        1
176
     1
 90
        6
176
     1
 90
        2
176
     1
 62
     8
420
  7895160
176
     1
 90
        3
176
     1
 90
        0
176
     1
 90
        0
176
     1
290
     0
176
     1
 90
        5
176
     1
 40
0.0
176
     1
 90
        0
176
     1
290
     0
176
     1
290
     1
176
     1
290
     1
176
     1
290
     0
176
     1
290
     0
176
     1
290
     0
176
     1
290
     0
176
     1
290
     0
176
     1
290
     0
176
     1
 90
       50
176
     1
 40
0.0
176
     1
 40
1.0
176
     1
 90
        0
176
     1
 62
    18
420
        0
176
     1
 90
       50
176
     1
 90
        3
176
     1
 62
     5
420
      255
176
     1
290
     0
176
     1
 90
       50
176
     1
 90
       50
176
     1
 90
       50
176
     1
290
     0
176
     1
 90
       50
176
     1
 62
   256
176
     0
 40
1.0
176
     0
 90
        2
176
     1
  1
strokes_ogs.tif
176
     1
290
     0
176
     1
 40
1.0
176
     1
 40
1.0
176
     1
  0
VISUALSTYLE
  5
3D
102
{ACAD_REACTORS
330
29
102
}
330
29
100
AcDbVisualStyle
  2
Shaded with edges
 70
    26
177
     3
291
     0
 70
    58
 90
        2
176
     1
 90
        2
176
     1
 90
        1
176
     1
 90
        2
176
     1
 40
0.6
176
     1
 40
30.0
176
     1
 62
     7
420
 16777215
176
     1
 90
        1
176
     1
 90
        2
176
     1
 62
     7
176
     1
 62
   257
176
     1
 90
        2
176
     1
 90
        1
176
     1
 40
1.0
176
     1
 90
        8
176
     1
 62
   257
176
     1
 40
1.0
176
     1
 90
        1
176
     1
 90
        6
176
     1
 90
        2
176
     1
 62
     7
176
     1
 90
        3
176
     1
 90
        0
176
     1
 90
        0
176
     1
290
     0
176
     1
 90
        5
176
     1
 40
0.0
176
     1
 90
        0
176
     1
290
     0
176
     1
290
     1
176
     1
290
     1
176
     1
290
     0
176
     1
290
     0
176
     1
290
     0
176
     1
290
     0
176
     1
290
     0
176
     1
290
     0
176
     1
 90
       50
176
     1
 40
0.0
176
     1
 40
1.0
176
     1
 90
        0
176
     1
 62
    18
420
        0
176
     1
 90
       50
176
     1
 90
        3
176
     1
 62
     5
420
      255
176
     1
290
     0
176
     1
 90
       50
176
     1
 90
       50
176
     1
 90
       50
176
     1
290
     0
176
     1
 90
       50
176
     1
 62
   256
176
     0
 40
1.0
176
     0
 90
        2
176
     1
  1
strokes_ogs.tif
176
     1
290
     0
176
     1
 40
1.0
176
     1
 40
1.0
176
     1
  0
VISUALSTYLE
  5
3A
102
{ACAD_REACTORS
330
29
102
}
330
29
100
AcDbVisualStyle
  2
Shades of Gray
 70
    23
177
     3
291
     0
 70
    58
 90
        2
176
     1
 90
        2
176
     1
 90
        3
176
     1
 90
        0
176
     1
 40
0.6
176
     1
 40
30.0
176
     1
 62
     7
420
 16777215
176
     1
 90
        2
176
     1
 90
        2
176
     1
 62
     7
176
     1
 62
     7
176
     1
 90
        1
176
     1
 90
        1
176
     1
 40
40.0
176
     1
 90
        8
176
     1
 62
     7
176
     1
 40
1.0
176
     1
 90
        1
176
     1
 90
        6
176
     1
 90
        2
176
     1
 62
     7
176
     1
 90
        3
176
     1
 90
        0
176
     1
 90
        0
176
     1
290
     0
176
     1
 90
        1
176
     1
 40
0.0
176
     1
 90
        0
176
     1
290
     0
176
     1
290
     1
176
     1
290
     1
176
     1
290
     0
176
     1
290
     0
176
     1
290
     0
176
     1
290
     0
176
     1
290
     0
176
     1
290
     0
176
     1
 90
       50
176
     1
 40
0.0
176
     1
 40
1.0
176
     1
 90
        0
176
     1
 62
    18
420
        0
176
     1
 90
       50
176
     1
 90
        3
176
     1
 62
     5
420
      255
176
     1
290
     0
176
     1
 90
       50
176
     1
 90
       50
176
     1
 90
       50
176
     1
290
     0
176
     1
 90
       50
176
     1
 62
   256
176
     0
 40
1.0
176
     0
 90
        2
176
     1
  1
strokes_ogs.tif
176
     1
290
     0
176
     1
 40
1.0
176
     1
 40
1.0
176
     1
  0
VISUALSTYLE
  5
3B
102
{ACAD_REACTORS
330
29
102
}
330
29
100
AcDbVisualStyle
  2
Sketchy
 70
    24
177
     3
291
     0
 70
    58
 90
        1
176
     1
 90
        2
176
     1
 90
        2
176
     1
 90
        0
176
     1
 40
0.6
176
     1
 40
30.0
176
     1
 62
     7
420
 16777215
176
     1
 90
        2
176
     1
 90
        2
176
     1
 62
     7
176
     1
 62
     7
176
     1
 90
        1
176
     1
 90
        1
176
     1
 40
40.0
176
     1
 90
       11
176
     1
 62
     7
176
     1
 40
1.0
176
     1
 90
        1
176
     1
 90
        6
176
     1
 90
        2
176
     1
 62
     7
176
     1
 90
        6
176
     1
 90
        0
176
     1
 90
        0
176
     1
290
     0
176
     1
 90
        1
176
     1
 40
0.0
176
     1
 90
        0
176
     1
290
     0
176
     1
290
     1
176
     1
290
     1
176
     1
290
     0
176
     1
290
     0
176
     1
290
     0
176
     1
290
     0
176
     1
290
     0
176
     1
290
     0
176
     1
 90
       50
176
     1
 40
0.0
176
     1
 40
1.0
176
     1
 90
        0
176
     1
 62
    18
420
        0
176
     1
 90
       50
176
     1
 90
        3
176
     1
 62
     5
420
      255
176
     1
290
     0
176
     1
 90
       50
176
     1
 90
       50
176
     1
 90
       50
176
     1
290
     0
176
     1
 90
       50
176
     1
 62
   256
176
     0
 40
1.0
176
     0
 90
        2
176
     1
  1
strokes_ogs.tif
176
     1
290
     0
176
     1
 40
1.0
176
     1
 40
1.0
176
     1
  0
VISUALSTYLE
  5
36
102
{ACAD_REACTORS
330
29
102
}
330
29
100
AcDbVisualStyle
  2
Thicken
 70
    13
177
     3
291
     1
 70
    58
 90
        2
176
     1
 90
        2
176
     1
 90
        0
176
     1
 90
        0
176
     1
 40
0.6
176
     1
 40
30.0
176
     1
 62
     7
420
 16777215
176
     1
 90
        1
176
     1
 90
        4
176
     1
 62
     7
176
     1
 62
   257
176
     1
 90
        1
176
     1
 90
        1
176
     1
 40
1.0
176
     1
 90
       12
176
     1
 62
     7
176
     1
 40
1.0
176
     1
 90
        1
176
     1
 90
        6
176
     1
 90
        2
176
     1
 62
     7
176
     1
 90
        5
176
     1
 90
        0
176
     1
 90
        0
176
     1
290
     0
176
     1
 90
        1
176
     1
 40
0.0
176
     1
 90
        0
176
     1
290
     0
176
     1
290
     1
176
     1
290
     1
176
     1
290
     0
176
     1
290
     0
176
     1
290
     0
176
     1
290
     0
176
     1
290
     0
176
     1
290
     0
176
     1
 90
       50
176
     1
 40
0.0
176
     1
 40
1.0
176
     1
 90
        0
176
     1
 62
    18
420
        0
176
     1
 90
       50
176
     1
 90
        3
176
     1
 62
     5
420
      255
176
     1
290
     0
176
     1
 90
       50
176
     1
 90
       50
176
     1
 90
       50
176
     1
290
     0
176
     1
 90
       50
176
     1
 62
   256
176
     0
 40
1.0
176
     0
 90
        2
176
     1
  1
strokes_ogs.tif
176
     1
290
     0
176
     1
 40
1.0
176
     1
 40
1.0
176
     1
  0
VISUALSTYLE
  5
30
102
{ACAD_REACTORS
330
29
102
}
330
29
100
AcDbVisualStyle
  2
Wireframe
 70
     5
177
     3
291
     0
 70
    58
 90
        0
176
     1
 90
        2
176
     1
 90
        0
176
     1
 90
        0
176
     1
 40
0.6
176
     1
 40
30.0
176
     1
 62
     7
420
 16777215
176
     1
 90
        1
176
     1
 90
        4
176
     1
 62
     7
176
     1
 62
   257
176
     1
 90
        1
176
     1
 90
        1
176
     1
 40
1.0
176
     1
 90
        0
176
     1
 62
   257
176
     1
 40
1.0
176
     1
 90
        1
176
     1
 90
        6
176
     1
 90
        2
176
     1
 62
     7
176
     1
 90
        3
176
     1
 90
        0
176
     1
 90
        0
176
     1
290
     0
176
     1
 90
        1
176
     1
 40
0.0
176
     1
 90
        0
176
     1
290
     0
176
     1
290
     1
176
     1
290
     1
176
     1
290
     0
176
     1
290
     0
176
     1
290
     0
176
     1
290
     0
176
     1
290
     0
176
     1
290
     0
176
     1
 90
       50
176
     1
 40
0.0
176
     1
 40
1.0
176
     1
 90
        0
176
     1
 62
    18
420
        0
176
     1
 90
       50
176
     1
 90
        3
176
     1
 62
     5
420
      255
176
     1
290
     0
176
     1
 90
       50
176
     1
 90
       50
176
     1
 90
       50
176
     1
290
     0
176
     1
 90
       50
176
     1
 62
   256
176
     0
 40
1.0
176
     0
 90
        2
176
     1
  1
strokes_ogs.tif
176
     1
290
     0
176
     1
 40
1.0
176
     1
 40
1.0
176
     1
  0
VISUALSTYLE
  5
3C
102
{ACAD_REACTORS
330
29
102
}
330
29
100
AcDbVisualStyle
  2
X-Ray
 70
    25
177
     3
291
     0
 70
    58
 90
        2
176
     1
 90
        2
176
     1
 90
        1
176
     1
 90
        1
176
     1
 40
0.5
176
     1
 40
30.0
176
     1
 62
     7
420
 16777215
176
     1
 90
        1
176
     1
 90
        0
176
     1
 62
     7
176
     1
 62
   257
176
     1
 90
        1
176
     1
 90
        1
176
     1
 40
1.0
176
     1
 90
        8
176
     1
 62
     7
176
     1
 40
1.0
176
     1
 90
        1
176
     1
 90
        6
176
     1
 90
        2
176
     1
 62
     7
176
     1
 90
        3
176
     1
 90
        0
176
     1
 90
        0
176
     1
290
     0
176
     1
 90
       13
176
     1
 40
0.0
176
     1
 90
        0
176
     1
290
     0
176
     1
290
     1
176
     1
290
     1
176
     1
290
     0
176
     1
290
     0
176
     1
290
     0
176
     1
290
     0
176
     1
290
     0
176
     1
290
     0
176
     1
 90
       50
176
     1
 40
0.0
176
     1
 40
1.0
176
     1
 90
        0
176
     1
 62
    18
420
        0
176
     1
 90
       50
176
     1
 90
        3
176
     1
 62
     5
420
      255
176
     1
290
     0
176
     1
 90
       50
176
     1
 90
       50
176
     1
 90
       50
176
     1
290
     0
176
     1
 90
       50
176
     1
 62
   256
176
     0
 40
1.0
176
     0
 90
        2
176
     1
  1
strokes_ogs.tif
176
     1
290
     0
176
     1
 40
1.0
176
     1
 40
1.0
176
     1
  0
DICTIONARYVAR
  5
A3
102
{ACAD_REACTORS
330
9E
102
}
330
9E
100
DictionaryVariables
280
     0
  1
1:1
  0
DICTIONARYVAR
  5
A0
102
{ACAD_REACTORS
330
9E
102
}
330
9E
100
DictionaryVariables
280
     0
  1
STANDARD
  0
DICTIONARYVAR
  5
9F
102
{ACAD_REACTORS
330
9E
102
}
330
9E
100
DictionaryVariables
280
     0
  1
STANDARD
  0
DICTIONARYVAR
  5
A1
102
{ACAD_REACTORS
330
9E
102
}
330
9E
100
DictionaryVariables
280
     0
  1
Imperial24
  0
DICTIONARYVAR
  5
A2
102
{ACAD_REACTORS
330
9E
102
}
330
9E
100
DictionaryVariables
280
     0
  1
Imperial24
  0
DICTIONARY
  5
1A
330
19
100
AcDbDictionary
280
     1
281
     1
  3
BUMPTILE
360
1C
  3
DIFFUSETILE
360
1B
  3
OPACITYTILE
360
1F
  3
REFLECTIONTILE
360
1E
  3
REFRACTIONTILE
360
20
  3
SPECULARTILE
360
1D
  0
DICTIONARY
  5
12
330
11
100
AcDbDictionary
280
     1
281
     1
  3
BUMPTILE
360
14
  3
DIFFUSETILE
360
13
  3
OPACITYTILE
360
17
  3
REFLECTIONTILE
360
16
  3
REFRACTIONTILE
360
18
  3
SPECULARTILE
360
15
  0
DICTIONARY
  5
22
330
21
100
AcDbDictionary
280
     1
281
     1
  3
BUMPTILE
360
24
  3
DIFFUSETILE
360
23
  3
OPACITYTILE
360
27
  3
REFLECTIONTILE
360
26
  3
REFRACTIONTILE
360
28
  3
SPECULARTILE
360
25
  0
DICTIONARY
  5
A4
330
65
100
AcDbDictionary
280
     1
281
     1
  3
ACAD_ROUNDTRIP_2008_TABLESTYLE_CELLSTYLEMAP
360
A5
  0
XRECORD
  5
1C
102
{ACAD_REACTORS
330
1A
102
}
330
1A
100
AcDbXrecord
280
     1
270
     1
271
     1
  0
XRECORD
  5
1B
102
{ACAD_REACTORS
330
1A
102
}
330
1A
100
AcDbXrecord
280
     1
270
     1
271
     1
  0
XRECORD
  5
1F
102
{ACAD_REACTORS
330
1A
102
}
330
1A
100
AcDbXrecord
280
     1
270
     1
271
     1
  0
XRECORD
  5
1E
102
{ACAD_REACTORS
330
1A
102
}
330
1A
100
AcDbXrecord
280
     1
270
     1
271
     1
  0
XRECORD
  5
20
102
{ACAD_REACTORS
330
1A
102
}
330
1A
100
AcDbXrecord
280
     1
270
     1
271
     1
  0
XRECORD
  5
1D
102
{ACAD_REACTORS
330
1A
102
}
330
1A
100
AcDbXrecord
280
     1
270
     1
271
     1
  0
XRECORD
  5
14
102
{ACAD_REACTORS
330
12
102
}
330
12
100
AcDbXrecord
280
     1
270
     1
271
     1
  0
XRECORD
  5
13
102
{ACAD_REACTORS
330
12
102
}
330
12
100
AcDbXrecord
280
     1
270
     1
271
     1
  0
XRECORD
  5
17
102
{ACAD_REACTORS
330
12
102
}
330
12
100
AcDbXrecord
280
     1
270
     1
271
     1
  0
XRECORD
  5
16
102
{ACAD_REACTORS
330
12
102
}
330
12
100
AcDbXrecord
280
     1
270
     1
271
     1
  0
XRECORD
  5
18
102
{ACAD_REACTORS
330
12
102
}
330
12
100
AcDbXrecord
280
     1
270
     1
271
     1
  0
XRECORD
  5
15
102
{ACAD_REACTORS
330
12
102
}
330
12
100
AcDbXrecord
280
     1
270
     1
271
     1
  0
XRECORD
  5
24
102
{ACAD_REACTORS
330
22
102
}
330
22
100
AcDbXrecord
280
     1
270
     1
271
     1
  0
XRECORD
  5
23
102
{ACAD_REACTORS
330
22
102
}
330
22
100
AcDbXrecord
280
     1
270
     1
271
     1
  0
XRECORD
  5
27
102
{ACAD_REACTORS
330
22
102
}
330
22
100
AcDbXrecord
280
     1
270
     1
271
     1
  0
XRECORD
  5
26
102
{ACAD_REACTORS
330
22
102
}
330
22
100
AcDbXrecord
280
     1
270
     1
271
     1
  0
XRECORD
  5
28
102
{ACAD_REACTORS
330
22
102
}
330
22
100
AcDbXrecord
280
     1
270
     1
271
     1
  0
XRECORD
  5
25
102
{ACAD_REACTORS
330
22
102
}
330
22
100
AcDbXrecord
280
     1
270
     1
271
     1
  0
CELLSTYLEMAP
  5
A5
102
{ACAD_REACTORS
330
A4
102
}
330
A4
100
AcDbCellStyleMap
 90
        3
300
CELLSTYLE
  1
TABLEFORMAT_BEGIN
 90
        5
170
     1
 91
        0
 92
    32768
 62
   257
 93
        1
300
CONTENTFORMAT
  1
CONTENTFORMAT_BEGIN
 90
        0
 91
        0
 92
      512
 93
        0
300

 40
0.0
140
1.0
 94
        5
 62
     0
340
55
144
0.25
309
CONTENTFORMAT_END
171
     0
 94
        0
309
TABLEFORMAT_END
  1
CELLSTYLE_BEGIN
 90
        1
 91
        1
300
_TITLE
309
CELLSTYLE_END
300
CELLSTYLE
  1
TABLEFORMAT_BEGIN
 90
        5
170
     1
 91
        0
 92
        0
 62
   257
 93
        1
300
CONTENTFORMAT
  1
CONTENTFORMAT_BEGIN
 90
        0
 91
        0
 92
      512
 93
        0
300

 40
0.0
140
1.0
 94
        5
 62
     0
340
55
144
0.18
309
CONTENTFORMAT_END
171
     0
 94
        0
309
TABLEFORMAT_END
  1
CELLSTYLE_BEGIN
 90
        2
 91
        1
300
_HEADER
309
CELLSTYLE_END
300
CELLSTYLE
  1
TABLEFORMAT_BEGIN
 90
        5
170
     1
 91
        0
 92
        0
 62
   257
 93
        1
300
CONTENTFORMAT
  1
CONTENTFORMAT_BEGIN
 90
        0
 91
        0
 92
      512
 93
        0
300

 40
0.0
140
1.0
 94
        2
 62
     0
340
55
144
0.18
309
CONTENTFORMAT_END
171
     0
 94
        0
309
TABLEFORMAT_END
  1
CELLSTYLE_BEGIN
 90
        3
 91
        2
300
_DATA
309
CELLSTYLE_END
  0
ENDSEC
  0
EOF
