<?xml version="1.0" encoding="UTF-8"?>
<svg id="Layer_1" data-name="Layer 1" xmlns="http://www.w3.org/2000/svg" viewBox="0 0 34.52 34.52">
  <g id="engraving">
    <path d="m6.25,15.52c1.58.56,3.17,1.11,4.82,1.53,0-.06.01-.1.01-.15.01-.86.03-1.71.04-2.57,0-.07,0-.12-.09-.15-1.68-.43-3.32-.97-4.95-1.54,0,0-.02,0-.04,0,.01.42.04.84.04,1.26,0,.42-.04.84-.09,1.26-.24-1.16-.49-2.32-.73-3.48.02,0,.05.01.09.03,1.94.74,3.92,1.37,5.93,1.9.08.02.19.01.27-.02,1.63-.74,3.26-1.48,4.9-2.22.08-.04.18-.05.27-.04.25.01.51.04.79.07-1.4.91-2.77,1.81-4.15,2.7,0,.01,0,.03,0,.04.88.17,1.75.35,2.64.52v.39c-1.06-.07-2.11-.24-3.17-.44v2.85c.42.07.84.15,1.26.21,1.72.26,3.45.34,5.19.33.13,0,.2-.04.22-.17.18-.79.36-1.57.54-2.36.01-.06.03-.12.06-.18.07,1.27.11,2.54.04,3.82-2.24-.17-4.45-.37-6.65-.84.06.32.13.61.17.92.15,1.1.32,2.2.42,3.3.13,1.48.18,2.97.27,4.45,0,.09.02.15.13.17,1.38.29,2.73.66,4.07,1.09.03.01.07.02.12.03-.15-3.01.06-6,.32-9,.28.01.55.03.85.04-.35,3.36-.39,6.71-.08,10.09-.28-.08-.53-.15-.78-.22-2.01-.59-4.01-1.21-6.03-1.77-1.34-.37-2.71-.67-4.07-1-.04-.01-.09-.03-.13-.04v-.04c1.29.15,2.58.3,3.88.45.02-.27.05-.56.06-.84.11-2.14-.07-4.26-.59-6.35-.14-.55-.33-1.09-.49-1.63-.03-.1-.08-.15-.19-.18-1.8-.54-3.5-1.3-5.15-2.19-.02,0-.03-.02-.05-.03Z"/>
    <path d="m27.96,14.27c-.13.56-.25,1.11-.38,1.67-.33,1.46-.65,2.92-.78,4.41-.09,1.06-.13,2.13-.17,3.2,0,.14-.05.24-.16.33-1.72,1.34-3.43,2.69-5.15,4.03-.41.32-.81.64-1.23.95.03-.05.06-.09.1-.14.69-.9,1.46-1.71,2.28-2.49.08-.08.11-.15.11-.26.03-1.75.03-3.49.1-5.24.04-1.01.19-2.01.29-3.02,0-.02,0-.04,0-.05-.71.35-1.43.7-2.14,1.05,0-.01-.01-.02-.02-.04.03-.02.05-.04.08-.06,1.02-.73,2.05-1.45,3.07-2.19.05-.04.1-.12.11-.18.06-1.04.12-2.08.18-3.12,0-.12,0-.24,0-.39-1.16.77-2.36,1.47-3.64,2.04,1.12-.83,2.23-1.65,3.34-2.47,0-.02-.02-.03-.02-.05-1.81-.39-3.62-.78-5.43-1.18.46-.15.92-.18,1.4-.16,1.07.05,2.15.08,3.22.12.69.03,1.39.05,2.08.08.06,0,.13,0,.17-.04.63-.6,1.26-1.2,1.89-1.81.02-.02.03-.04.06-.07-.64-.04-1.25-.08-1.87-.12v-.67c1.28.07,2.54.15,3.84.22-.13.12-.24.22-.34.32-.98.95-2.01,1.83-3.1,2.66-.06.04-.12.13-.12.19-.06,1.04-.12,2.08-.17,3.12,0,.08,0,.15,0,.25.04-.03.07-.04.09-.06.97-.79,1.92-1.61,2.79-2.51.07-.07.12-.17.14-.26.22-1.09.43-2.19.65-3.28,0-.03.02-.07.05-.14-.02.52-.04.99-.06,1.46-.04.82-.08,1.64-.11,2.45,0,.12-.04.19-.13.27-1.31,1.19-2.66,2.33-4.1,3.35-.06.04-.1.13-.12.2-.38,1.42-.63,2.86-.72,4.33-.08,1.27-.11,2.54-.16,3.81,0,.04,0,.08,0,.14.05-.04.07-.06.1-.08.53-.48,1.06-.96,1.58-1.45.06-.05.1-.15.11-.22.19-2.91.88-5.7,2.06-8.37.08-.19.17-.37.25-.55h.02Z"/>
    <path d="m15.66,11.07c-.23,0-.46,0-.69,0-.95.01-1.89.17-2.82.33-1.27.21-2.54.42-3.84.36-.91-.05-1.79-.24-2.63-.63-.04-.02-.08-.04-.17-.08.84-.05,1.65-.07,2.43-.34-.43-.49-.85-.96-1.26-1.43.33.12.65.27.99.38.81.26,1.66.36,2.51.41.97.06,1.95.11,2.92.19.86.08,1.69.31,2.45.73.04.02.07.04.11.06,0,0,0,.02,0,.01Z"/>
    <path d="m19.67,16.52c-.69-.17-1.29-.43-1.9-.72-.3.49-.23,1.05-.29,1.61-.09-.07-.15-.13-.22-.19-.65-.64-1.01-1.41-1.08-2.31-.04-.47.09-.91.31-1.32.19-.35.41-.68.6-1.03.19-.36.36-.74.54-1.11.02-.05.08-.1.14-.11.15-.04.31-.07.48-.1,0,.17,0,.33,0,.49-.02.54-.03,1.08-.06,1.63-.04.73.16,1.38.56,1.98.24.36.52.69.79,1.03.03.04.07.08.13.15Z"/>
    <path d="m18.49,10.41c.06-.06.13-.11.19-.16.97-.79,2.03-1.44,3.25-1.79.48-.14.98-.2,1.48-.18.26,0,.52,0,.78-.05.35-.07.5-.32.45-.67-.11-.77-.56-1.18-1.33-1.21-.74-.03-1.43.19-2.09.49-1.16.54-2.11,1.33-2.83,2.39-.02.03-.04.06-.08.08,0-.02,0-.04.02-.05.82-1.52,2.01-2.62,3.67-3.17.65-.21,1.33-.28,2.01-.18.45.07.77.33.94.75.18.44.27.9.28,1.37.02.58,0,1.16,0,1.77-.06-.03-.07-.03-.08-.04-.6-.76-1.41-.98-2.32-.92-1.15.07-2.2.5-3.21,1-.37.19-.73.39-1.09.59,0,0,0,0,0-.01Z"/>
    <path d="m18.48,10.59s.05-.04.07-.05c1.21-.71,2.49-1.24,3.88-1.43.47-.07.95-.11,1.41.02.18.05.36.12.51.23.27.18.28.46.01.64-.2.14-.43.24-.66.31-.65.2-1.32.29-2,.31-1.07.02-2.15,0-3.22,0,0-.01,0-.02-.01-.03Z"/>
    <path d="m15.35,10.04c-.51-.06-1.01-.11-1.52-.17-.83-.1-1.66-.21-2.46-.47-.27-.09-.54-.22-.79-.36-.2-.11-.34-.29-.3-.55.04-.25.21-.39.43-.46.47-.16.93-.08,1.38.05.54.15,1.05.4,1.53.7.58.38,1.14.79,1.7,1.19.02.01.04.02.05.03,0,.01-.01.03-.02.04Z"/>
    <path d="m16.63,8.18c-.25-.4-.47-.78-.73-1.13-.23-.31-.49-.6-.78-.85-.66-.6-1.41-.66-2.21-.3-.4.18-.71.47-.97.82-.29.39-.22.66.21.88.48.24.97.47,1.45.74.54.3,1.05.66,1.5,1.09.08.07.16.14.24.22-.01.01-.02.02-.03.04-.04-.03-.08-.05-.12-.08-.8-.57-1.6-1.15-2.52-1.53-.36-.15-.74-.26-1.12-.33-.6-.11-1.11.06-1.52.59,0-.05,0-.07.01-.09.58-1.49,1.59-2.53,3.15-2.97.67-.19,1.3-.04,1.86.39.57.43.97.99,1.23,1.64.12.29.22.58.34.91Z"/>
    <path d="m8.67,25.47c-.02-.2-.03-.41-.05-.61-.09-1.06-.17-2.12-.28-3.18-.18-1.72-.62-3.37-1.24-4.97-.07-.18-.14-.37-.21-.55.48.24.95.47,1.41.71.04.02.09.09.09.14.1.92.21,1.84.28,2.77.14,1.86.09,3.73.03,5.6,0,.03,0,.07,0,.1,0,0-.02,0-.03,0Z"/>
    <path d="m16.28,11.17c-.43-.29-.79-.66-.74-1.26.01-.14.05-.29.11-.42.34-.74,1.34-1.18,2.11-.95.24.07.45.2.6.41-.26.25-.4.55-.49.89-.14.6.01.89.58,1.09-.76.31-1.44-.22-1.34-1.03.05-.41.22-.76.54-1.02v-.05c-.18,0-.35-.03-.52,0-.39.05-.74.22-1.02.5-.34.33-.43.73-.24,1.16.11.25.27.47.4.68Z"/>
    <path d="m21.35,7.97c-1.35.43-2.39,1.26-3.19,2.4-.15-.16-.17-.39-.04-.56.27-.37.62-.66,1-.91.66-.45,1.39-.75,2.17-.93.02,0,.04,0,.06,0Z"/>
    <path d="m14.67,6.93c.71.39,1.2.98,1.58,1.7-.09.06-.17.12-.27.19-.29-.74-.76-1.35-1.31-1.89Z"/>
    <path d="m19.34,7.58s0,0,0,.01c-.13.19-.28.23-.51.14-.69-.29-1.39-.54-2.09-.81-.03-.01-.07-.03-.08-.04.88.23,1.78.47,2.69.7Z"/>
    <path d="m9.48,9.79c.33-.14.63-.28.93-.41.02,0,.05,0,.08,0,.2.06.39.13.58.19-.47.37-1.01.31-1.59.21Z"/>
    <path d="m19.63,15.17c-.24,0-.49,0-.73,0-.06,0-.11-.05-.17-.08,0-.02.01-.04.02-.05l.89.1s0,.02,0,.04Z"/>
  </g>
  <circle id="body" cx="17.26" cy="17.26" r="17.01" style="fill: none; stroke: #000; stroke-miterlimit: 10; stroke-width: .5px;"/>
  <circle id="handle-left" cx="3.81" cy="17.26" r="1.56"/>
  <circle id="handle-right" cx="30.71" cy="17.26" r="1.56"/>
</svg>